<!DOCTYPE svg PUBLIC "-//W3C//DTD SVG 1.1//EN" "http://www.w3.org/Graphics/SVG/1.1/DTD/svg11.dtd">
<svg xmlns="http://www.w3.org/2000/svg" version="1.1" width="247.7mm" height="95.3mm" viewBox="-273.075 25.375 247.7 95.3">
            <title>Picture generated by PcbDraw </title>
            <desc>Picture generated by PcbDraw</desc>
        <defs><clipPath id="cut-off"><path d=" M 273.05 61.0 L 273.05 28.4 A 3 3 0 0 0 270.05 25.4 L 28.4 25.4 A 3 3 0 0 0 25.4 28.4 L 25.4 99.1 A 0.5 0.5 0 0 0 25.9 99.6 L 26.9 99.6 A 2 2 0 0 1 26.9 103.6 L 25.9 103.6 A 0.5 0.5 0 0 0 25.4 104.1 L 25.4 117.65 A 3 3 0 0 0 28.4 120.65 L 270.05 120.65 A 3 3 0 0 0 273.05 117.65 L 273.05 66.0 A 0.5 0.5 0 0 0 272.55 65.5 L 270.05 65.5 A 2 2 0 0 1 270.05 61.5 L 272.55 61.5 A 0.5 0.5 0 0 0 273.05 61.0  M 104.14 28.34 A 0.4 0.4 0 0 1 104.54 27.94 L 117.71 27.94 A 0.4 0.4 0 0 1 118.11 28.34 L 118.11 41.51 A 0.4 0.4 0 0 1 117.71 41.91 L 104.54 41.91 A 0.4 0.4 0 0 1 104.14 41.51 L 104.14 28.34  M 56.515 47.39 A 0.4 0.4 0 0 1 56.915 46.99 L 70.085 46.99 A 0.4 0.4 0 0 1 70.485 47.39 L 70.485 60.56 A 0.4 0.4 0 0 1 70.085 60.96 L 56.915 60.96 A 0.4 0.4 0 0 1 56.515 60.56 L 56.515 47.39  M 75.565 47.39 A 0.4 0.4 0 0 1 75.965 46.99 L 89.135 46.99 A 0.4 0.4 0 0 1 89.535 47.39 L 89.535 60.56 A 0.4 0.4 0 0 1 89.135 60.96 L 75.965 60.96 A 0.4 0.4 0 0 1 75.565 60.56 L 75.565 47.39  M 189.865 47.39 A 0.4 0.4 0 0 1 190.265 46.99 L 203.435 46.99 A 0.4 0.4 0 0 1 203.835 47.39 L 203.835 60.56 A 0.4 0.4 0 0 1 203.435 60.96 L 190.265 60.96 A 0.4 0.4 0 0 1 189.865 60.56 L 189.865 47.39  M 180.34 28.34 A 0.4 0.4 0 0 1 180.74 27.94 L 193.91 27.94 A 0.4 0.4 0 0 1 194.31 28.34 L 194.31 41.51 A 0.4 0.4 0 0 1 193.91 41.91 L 180.74 41.91 A 0.4 0.4 0 0 1 180.34 41.51 L 180.34 28.34  M 61.278 66.44 A 0.4 0.4 0 0 1 61.678 66.04 L 74.848 66.04 A 0.4 0.4 0 0 1 75.248 66.44 L 75.248 79.61 A 0.4 0.4 0 0 1 74.848 80.01 L 61.678 80.01 A 0.4 0.4 0 0 1 61.278 79.61 L 61.278 66.44  M 237.515 28.34 A 0.4 0.4 0 0 1 237.915 27.94 L 270.085 27.94 A 0.4 0.4 0 0 1 270.485 28.34 L 270.485 41.51 A 0.4 0.4 0 0 1 270.085 41.91 L 269.6 41.91 A 0.2 0.2 0 0 0 269.4 42.11 L 269.4 43.525 A 0.4 0.4 0 0 1 269.0 43.925 L 262.8 43.925 A 0.4 0.4 0 0 1 262.4 43.525 L 262.4 42.11 A 0.2 0.2 0 0 0 262.2 41.91 L 245.8 41.91 A 0.2 0.2 0 0 0 245.6 42.11 L 245.6 43.525 A 0.4 0.4 0 0 1 245.2 43.925 L 239.0 43.925 A 0.4 0.4 0 0 1 238.6 43.525 L 238.6 42.11 A 0.2 0.2 0 0 0 238.4 41.91 L 237.915 41.91 A 0.4 0.4 0 0 1 237.515 41.51 L 237.515 28.34  M 161.29 28.34 A 0.4 0.4 0 0 1 161.69 27.94 L 174.86 27.94 A 0.4 0.4 0 0 1 175.26 28.34 L 175.26 41.51 A 0.4 0.4 0 0 1 174.86 41.91 L 161.69 41.91 A 0.4 0.4 0 0 1 161.29 41.51 L 161.29 28.34  M 151.765 47.39 A 0.4 0.4 0 0 1 152.165 46.99 L 165.335 46.99 A 0.4 0.4 0 0 1 165.735 47.39 L 165.735 60.56 A 0.4 0.4 0 0 1 165.335 60.96 L 152.165 60.96 A 0.4 0.4 0 0 1 151.765 60.56 L 151.765 47.39  M 199.39 28.34 A 0.4 0.4 0 0 1 199.79 27.94 L 212.96 27.94 A 0.4 0.4 0 0 1 213.36 28.34 L 213.36 41.51 A 0.4 0.4 0 0 1 212.96 41.91 L 199.79 41.91 A 0.4 0.4 0 0 1 199.39 41.51 L 199.39 28.34  M 132.715 47.39 A 0.4 0.4 0 0 1 133.115 46.99 L 146.285 46.99 A 0.4 0.4 0 0 1 146.685 47.39 L 146.685 60.56 A 0.4 0.4 0 0 1 146.285 60.96 L 133.115 60.96 A 0.4 0.4 0 0 1 132.715 60.56 L 132.715 47.39  M 27.94 104.54 A 0.4 0.4 0 0 1 28.34 104.14 L 98.66 104.14 A 0.4 0.4 0 0 1 99.06 104.54 L 99.06 117.71 A 0.4 0.4 0 0 1 98.66 118.11 L 28.34 118.11 A 0.4 0.4 0 0 1 27.94 117.71 L 27.94 104.54  M 32.6898 60.4739 A 0.5 0.5 0 0 0 33.1898 60.9739 L 46.187 60.975 A 0.5 0.5 0 0 0 46.687 60.475 L 46.687 47.475 A 0.5 0.5 0 0 0 46.187 46.975 L 33.187 46.975 A 0.5 0.5 0 0 0 32.687 47.475 L 32.687 60.475  M 237.515 85.49 A 0.4 0.4 0 0 1 237.915 85.09 L 238.4 85.09 A 0.2 0.2 0 0 0 238.6 84.89 L 238.6 83.475 A 0.4 0.4 0 0 1 239.0 83.075 L 245.2 83.075 A 0.4 0.4 0 0 1 245.6 83.475 L 245.6 84.89 A 0.2 0.2 0 0 0 245.8 85.09 L 262.2 85.09 A 0.2 0.2 0 0 0 262.4 84.89 L 262.4 83.475 A 0.4 0.4 0 0 1 262.8 83.075 L 269.0 83.075 A 0.4 0.4 0 0 1 269.4 83.475 L 269.4 84.89 A 0.2 0.2 0 0 0 269.6 85.09 L 270.085 85.09 A 0.4 0.4 0 0 1 270.485 85.49 L 270.485 98.66 A 0.4 0.4 0 0 1 270.085 99.06 L 237.915 99.06 A 0.4 0.4 0 0 1 237.515 98.66 L 237.515 85.49  M 142.24 85.49 A 0.4 0.4 0 0 1 142.64 85.09 L 155.81 85.09 A 0.4 0.4 0 0 1 156.21 85.49 L 156.21 98.66 A 0.4 0.4 0 0 1 155.81 99.06 L 142.64 99.06 A 0.4 0.4 0 0 1 142.24 98.66 L 142.24 85.49  M 80.328 66.44 A 0.4 0.4 0 0 1 80.728 66.04 L 93.898 66.04 A 0.4 0.4 0 0 1 94.298 66.44 L 94.298 79.61 A 0.4 0.4 0 0 1 93.898 80.01 L 80.728 80.01 A 0.4 0.4 0 0 1 80.328 79.61 L 80.328 66.44  M 123.19 85.49 A 0.4 0.4 0 0 1 123.59 85.09 L 136.76 85.09 A 0.4 0.4 0 0 1 137.16 85.49 L 137.16 98.66 A 0.4 0.4 0 0 1 136.76 99.06 L 123.59 99.06 A 0.4 0.4 0 0 1 123.19 98.66 L 123.19 85.49  M 251.7648 60.4739 A 0.5 0.5 0 0 0 252.2648 60.9739 L 265.262 60.975 A 0.5 0.5 0 0 0 265.762 60.475 L 265.762 47.475 A 0.5 0.5 0 0 0 265.262 46.975 L 252.262 46.975 A 0.5 0.5 0 0 0 251.762 47.475 L 251.762 60.475  M 66.04 85.49 A 0.4 0.4 0 0 1 66.44 85.09 L 79.61 85.09 A 0.4 0.4 0 0 1 80.01 85.49 L 80.01 98.66 A 0.4 0.4 0 0 1 79.61 99.06 L 66.44 99.06 A 0.4 0.4 0 0 1 66.04 98.66 L 66.04 85.49  M 99.378 66.44 A 0.4 0.4 0 0 1 99.778 66.04 L 112.948 66.04 A 0.4 0.4 0 0 1 113.348 66.44 L 113.348 79.61 A 0.4 0.4 0 0 1 112.948 80.01 L 99.778 80.01 A 0.4 0.4 0 0 1 99.378 79.61 L 99.378 66.44  M 199.39 85.49 A 0.4 0.4 0 0 1 199.79 85.09 L 212.96 85.09 A 0.4 0.4 0 0 1 213.36 85.49 L 213.36 98.66 A 0.4 0.4 0 0 1 212.96 99.06 L 199.79 99.06 A 0.4 0.4 0 0 1 199.39 98.66 L 199.39 85.49  M 161.29 85.49 A 0.4 0.4 0 0 1 161.69 85.09 L 174.86 85.09 A 0.4 0.4 0 0 1 175.26 85.49 L 175.26 98.66 A 0.4 0.4 0 0 1 174.86 99.06 L 161.69 99.06 A 0.4 0.4 0 0 1 161.29 98.66 L 161.29 85.49  M 213.678 66.44 A 0.4 0.4 0 0 1 214.078 66.04 L 227.248 66.04 A 0.4 0.4 0 0 1 227.648 66.44 L 227.648 79.61 A 0.4 0.4 0 0 1 227.248 80.01 L 214.078 80.01 A 0.4 0.4 0 0 1 213.678 79.61 L 213.678 66.44  M 142.24 28.34 A 0.4 0.4 0 0 1 142.64 27.94 L 155.81 27.94 A 0.4 0.4 0 0 1 156.21 28.34 L 156.21 41.51 A 0.4 0.4 0 0 1 155.81 41.91 L 142.64 41.91 A 0.4 0.4 0 0 1 142.24 41.51 L 142.24 28.34  M 107.6495 116.725 A 0.4 0.4 0 0 0 108.0495 117.125 L 118.9552 117.125 A 0.3999 0.3999 0 0 0 119.3552 116.725 L 119.3552 102.525 A 0.4 0.4 0 0 0 118.9552 102.125 L 108.0495 102.125 A 0.4 0.4 0 0 0 107.6495 102.525 L 107.6495 116.725  M 120.8082 117.71 A 0.4 0.4 0 0 0 121.2082 118.11 L 134.3782 118.11 A 0.3999 0.3999 0 0 0 134.7782 117.71 L 134.7782 104.54 A 0.4 0.4 0 0 0 134.3783 104.14 L 121.2082 104.14 A 0.3999 0.3999 0 0 0 120.8082 104.54 L 120.8083 117.71  M 136.2312 116.725 A 0.4 0.4 0 0 0 136.6312 117.125 L 142.8312 117.125 A 0.3999 0.3999 0 0 0 143.2312 116.725 L 143.2312 102.525 A 0.4 0.4 0 0 0 142.8313 102.125 L 136.6312 102.125 A 0.3999 0.3999 0 0 0 136.2313 102.525 L 136.2312 116.725  M 151.7645 117.71 A 0.4 0.4 0 0 0 152.1645 118.11 L 166.5803 118.11 A 0.4 0.4 0 0 0 166.9802 117.71 L 166.9802 102.525 A 0.3999 0.3999 0 0 0 166.5802 102.125 L 160.3802 102.125 A 0.4 0.4 0 0 0 159.9802 102.525 L 159.9802 103.74 A 0.4 0.4 0 0 1 159.5803 104.14 L 152.1645 104.14 A 0.4 0.4 0 0 0 151.7645 104.54 L 151.7645 117.71  M 168.4332 117.71 A 0.3999 0.3999 0 0 0 168.8332 118.11 L 182.0032 118.11 A 0.4 0.4 0 0 0 182.4032 117.71 L 182.4032 104.54 A 0.3999 0.3999 0 0 0 182.0032 104.14 L 168.8332 104.14 A 0.4 0.4 0 0 0 168.4332 104.54 L 168.4332 117.71  M 183.8562 116.725 A 0.3999 0.3999 0 0 0 184.2562 117.125 L 190.4562 117.125 A 0.4 0.4 0 0 0 190.8562 116.725 L 190.8562 102.525 A 0.3999 0.3999 0 0 0 190.4562 102.125 L 184.2562 102.125 A 0.4 0.4 0 0 0 183.8562 102.525 L 183.8562 116.725  M 199.3895 117.71 A 0.4 0.4 0 0 0 199.7895 118.11 L 215.8972 118.11 L 270.11 118.11 A 0.4 0.4 0 0 0 270.51 117.71 L 270.51 104.54 A 0.4 0.4 0 0 0 270.11 104.14 L 215.9 104.14 L 210.2495 104.14 A 0.4 0.4 0 0 1 209.8495 103.74 L 209.8495 102.525 A 0.4 0.4 0 0 0 209.4495 102.125 L 203.2495 102.125 A 0.4 0.4 0 0 0 202.8495 102.525 L 202.8495 103.74 A 0.4 0.4 0 0 1 202.4495 104.14 L 199.7895 104.14 A 0.4 0.4 0 0 0 199.3895 104.54 L 199.3895 117.71  M 170.815 47.39 A 0.4 0.4 0 0 1 171.215 46.99 L 184.385 46.99 A 0.4 0.4 0 0 1 184.785 47.39 L 184.785 60.56 A 0.4 0.4 0 0 1 184.385 60.96 L 171.215 60.96 A 0.4 0.4 0 0 1 170.815 60.56 L 170.815 47.39  M 85.09 85.49 A 0.4 0.4 0 0 1 85.49 85.09 L 98.66 85.09 A 0.4 0.4 0 0 1 99.06 85.49 L 99.06 98.66 A 0.4 0.4 0 0 1 98.66 99.06 L 85.49 99.06 A 0.4 0.4 0 0 1 85.09 98.66 L 85.09 85.49  M 85.09 28.34 A 0.4 0.4 0 0 1 85.49 27.94 L 98.66 27.94 A 0.4 0.4 0 0 1 99.06 28.34 L 99.06 41.51 A 0.4 0.4 0 0 1 98.66 41.91 L 85.49 41.91 A 0.4 0.4 0 0 1 85.09 41.51 L 85.09 28.34  M 27.965 85.49 A 0.4 0.4 0 0 1 28.365 85.09 L 28.85 85.09 A 0.2 0.2 0 0 0 29.05 84.89 L 29.05 83.475 A 0.4 0.4 0 0 1 29.45 83.075 L 35.65 83.075 A 0.4 0.4 0 0 1 36.05 83.475 L 36.05 84.89 A 0.2 0.2 0 0 0 36.25 85.09 L 52.65 85.09 A 0.2 0.2 0 0 0 52.85 84.89 L 52.85 83.475 A 0.4 0.4 0 0 1 53.25 83.075 L 59.45 83.075 A 0.4 0.4 0 0 1 59.85 83.475 L 59.85 84.89 A 0.2 0.2 0 0 0 60.05 85.09 L 60.535 85.09 A 0.4 0.4 0 0 1 60.935 85.49 L 60.935 98.66 A 0.4 0.4 0 0 1 60.535 99.06 L 28.365 99.06 A 0.4 0.4 0 0 1 27.965 98.66 L 27.965 85.49  M 104.14 85.49 A 0.4 0.4 0 0 1 104.54 85.09 L 117.71 85.09 A 0.4 0.4 0 0 1 118.11 85.49 L 118.11 98.66 A 0.4 0.4 0 0 1 117.71 99.06 L 104.54 99.06 A 0.4 0.4 0 0 1 104.14 98.66 L 104.14 85.49  M 208.915 47.39 A 0.4 0.4 0 0 1 209.315 46.99 L 222.485 46.99 A 0.4 0.4 0 0 1 222.885 47.39 L 222.885 60.56 A 0.4 0.4 0 0 1 222.485 60.96 L 209.315 60.96 A 0.4 0.4 0 0 1 208.915 60.56 L 208.915 47.39  M 94.615 47.39 A 0.4 0.4 0 0 1 95.015 46.99 L 108.185 46.99 A 0.4 0.4 0 0 1 108.585 47.39 L 108.585 60.56 A 0.4 0.4 0 0 1 108.185 60.96 L 95.015 60.96 A 0.4 0.4 0 0 1 94.615 60.56 L 94.615 47.39  M 118.428 66.44 A 0.4 0.4 0 0 1 118.828 66.04 L 131.998 66.04 A 0.4 0.4 0 0 1 132.398 66.44 L 132.398 79.61 A 0.4 0.4 0 0 1 131.998 80.01 L 118.828 80.01 A 0.4 0.4 0 0 1 118.428 79.61 L 118.428 66.44  M 180.34 85.49 A 0.4 0.4 0 0 1 180.74 85.09 L 193.91 85.09 A 0.4 0.4 0 0 1 194.31 85.49 L 194.31 98.66 A 0.4 0.4 0 0 1 193.91 99.06 L 180.74 99.06 A 0.4 0.4 0 0 1 180.34 98.66 L 180.34 85.49  M 113.665 47.39 A 0.4 0.4 0 0 1 114.065 46.99 L 127.235 46.99 A 0.4 0.4 0 0 1 127.635 47.39 L 127.635 60.56 A 0.4 0.4 0 0 1 127.235 60.96 L 114.065 60.96 A 0.4 0.4 0 0 1 113.665 60.56 L 113.665 47.39  M 35.0718 79.5239 A 0.5 0.5 0 0 0 35.5718 80.0239 L 48.569 80.025 A 0.5 0.5 0 0 0 49.069 79.525 L 49.069 66.525 A 0.5 0.5 0 0 0 48.569 66.025 L 35.569 66.025 A 0.5 0.5 0 0 0 35.069 66.525 L 35.069 79.525  M 46.99 28.34 A 0.4 0.4 0 0 1 47.39 27.94 L 60.56 27.94 A 0.4 0.4 0 0 1 60.96 28.34 L 60.96 41.51 A 0.4 0.4 0 0 1 60.56 41.91 L 47.39 41.91 A 0.4 0.4 0 0 1 46.99 41.51 L 46.99 28.34  M 194.628 66.44 A 0.4 0.4 0 0 1 195.028 66.04 L 208.198 66.04 A 0.4 0.4 0 0 1 208.598 66.44 L 208.598 79.61 A 0.4 0.4 0 0 1 208.198 80.01 L 195.028 80.01 A 0.4 0.4 0 0 1 194.628 79.61 L 194.628 66.44  M 27.94 28.34 A 0.4 0.4 0 0 1 28.34 27.94 L 41.51 27.94 A 0.4 0.4 0 0 1 41.91 28.34 L 41.91 41.51 A 0.4 0.4 0 0 1 41.51 41.91 L 28.34 41.91 A 0.4 0.4 0 0 1 27.94 41.51 L 27.94 28.34  M 175.578 66.44 A 0.4 0.4 0 0 1 175.978 66.04 L 189.148 66.04 A 0.4 0.4 0 0 1 189.548 66.44 L 189.548 79.61 A 0.4 0.4 0 0 1 189.148 80.01 L 175.978 80.01 A 0.4 0.4 0 0 1 175.578 79.61 L 175.578 66.44  M 123.19 28.34 A 0.4 0.4 0 0 1 123.59 27.94 L 136.76 27.94 A 0.4 0.4 0 0 1 137.16 28.34 L 137.16 41.51 A 0.4 0.4 0 0 1 136.76 41.91 L 123.59 41.91 A 0.4 0.4 0 0 1 123.19 41.51 L 123.19 28.34  M 218.44 85.49 A 0.4 0.4 0 0 1 218.84 85.09 L 232.01 85.09 A 0.4 0.4 0 0 1 232.41 85.49 L 232.41 98.66 A 0.4 0.4 0 0 1 232.01 99.06 L 218.84 99.06 A 0.4 0.4 0 0 1 218.44 98.66 L 218.44 85.49  M 66.04 28.34 A 0.4 0.4 0 0 1 66.44 27.94 L 79.61 27.94 A 0.4 0.4 0 0 1 80.01 28.34 L 80.01 41.51 A 0.4 0.4 0 0 1 79.61 41.91 L 66.44 41.91 A 0.4 0.4 0 0 1 66.04 41.51 L 66.04 28.34  M 156.528 66.44 A 0.4 0.4 0 0 1 156.928 66.04 L 170.098 66.04 A 0.4 0.4 0 0 1 170.498 66.44 L 170.498 79.61 A 0.4 0.4 0 0 1 170.098 80.01 L 156.928 80.01 A 0.4 0.4 0 0 1 156.528 79.61 L 156.528 66.44  M 232.7277 79.61 A 0.4 0.4 0 0 0 233.1277 80.01 L 267.729 80.01 A 0.4 0.4 0 0 0 268.129 79.61 L 268.129 66.44 A 0.4 0.4 0 0 0 267.729 66.04 L 267.419 66.04 A 0.4 0.4 0 0 1 267.019 65.64 L 267.019 64.425 A 0.4 0.4 0 0 0 266.619 64.025 L 260.419 64.025 A 0.4 0.4 0 0 0 260.019 64.425 L 260.019 65.64 A 0.4 0.4 0 0 1 259.619 66.04 L 243.619 66.04 A 0.4 0.4 0 0 1 243.219 65.64 L 243.219 64.425 A 0.4 0.4 0 0 0 242.819 64.025 L 236.619 64.025 A 0.4 0.4 0 0 0 236.219 64.425 L 236.219 65.64 A 0.4 0.4 0 0 1 235.819 66.04 L 233.1277 66.04 A 0.3999 0.3999 0 0 0 232.7277 66.44 L 232.7277 79.61  M 218.44 28.34 A 0.4 0.4 0 0 1 218.84 27.94 L 232.01 27.94 A 0.4 0.4 0 0 1 232.41 28.34 L 232.41 41.51 A 0.4 0.4 0 0 1 232.01 41.91 L 218.84 41.91 A 0.4 0.4 0 0 1 218.44 41.51 L 218.44 28.34  M 227.965 47.39 A 0.4 0.4 0 0 1 228.365 46.99 L 241.535 46.99 A 0.4 0.4 0 0 1 241.935 47.39 L 241.935 60.56 A 0.4 0.4 0 0 1 241.535 60.96 L 228.365 60.96 A 0.4 0.4 0 0 1 227.965 60.56 L 227.965 47.39  M 137.478 66.44 A 0.4 0.4 0 0 1 137.878 66.04 L 151.048 66.04 A 0.4 0.4 0 0 1 151.448 66.44 L 151.448 79.61 A 0.4 0.4 0 0 1 151.048 80.01 L 137.878 80.01 A 0.4 0.4 0 0 1 137.478 79.61 L 137.478 66.44 " style="fill-rule: evenodd;"/></clipPath><mask id="pads-mask"/><mask id="pads-mask-silkscreen"><rect x="25.375" y="25.375" width="247.7" height="95.3" fill="white"/></mask><mask id="hole-mask"><g><rect x="25.375" y="25.375" fill="white" width="247.7" height="95.3"/><polyline stroke-linecap="round" stroke="black" stroke-width="4.0" points="-0.0 0 0.0 0" transform="translate(82.55 44.45) rotate(-0.0)"/><polyline stroke-linecap="round" stroke="black" stroke-width="4.0" points="-0.7000000000000002 0 0.7000000000000002 0" transform="translate(234.95 44.45) rotate(-0.0)"/><polyline stroke-linecap="round" stroke="black" stroke-width="4.0" points="-0.7000000000000002 0 0.7000000000000002 0" transform="translate(220.6498 101.6) rotate(-0.0)"/><polyline stroke-linecap="round" stroke="black" stroke-width="4.0" points="-0.7000000000000002 0 0.7000000000000002 0" transform="translate(134.9502 82.55) rotate(-0.0)"/></g></mask></defs><g transform="scale(-1,1)" id="boardContainer"><g id="substrate" clip-path="url(#cut-off)" mask="url(#hole-mask)"><g id="substrate-board" style="fill:#1d1918; stroke:#1d1918;"><path d=" M 273.05 61.0 L 273.05 28.4 A 3 3 0 0 0 270.05 25.4 L 28.4 25.4 A 3 3 0 0 0 25.4 28.4 L 25.4 99.1 A 0.5 0.5 0 0 0 25.9 99.6 L 26.9 99.6 A 2 2 0 0 1 26.9 103.6 L 25.9 103.6 A 0.5 0.5 0 0 0 25.4 104.1 L 25.4 117.65 A 3 3 0 0 0 28.4 120.65 L 270.05 120.65 A 3 3 0 0 0 273.05 117.65 L 273.05 66.0 A 0.5 0.5 0 0 0 272.55 65.5 L 270.05 65.5 A 2 2 0 0 1 270.05 61.5 L 272.55 61.5 A 0.5 0.5 0 0 0 273.05 61.0  M 104.14 28.34 A 0.4 0.4 0 0 1 104.54 27.94 L 117.71 27.94 A 0.4 0.4 0 0 1 118.11 28.34 L 118.11 41.51 A 0.4 0.4 0 0 1 117.71 41.91 L 104.54 41.91 A 0.4 0.4 0 0 1 104.14 41.51 L 104.14 28.34  M 56.515 47.39 A 0.4 0.4 0 0 1 56.915 46.99 L 70.085 46.99 A 0.4 0.4 0 0 1 70.485 47.39 L 70.485 60.56 A 0.4 0.4 0 0 1 70.085 60.96 L 56.915 60.96 A 0.4 0.4 0 0 1 56.515 60.56 L 56.515 47.39  M 75.565 47.39 A 0.4 0.4 0 0 1 75.965 46.99 L 89.135 46.99 A 0.4 0.4 0 0 1 89.535 47.39 L 89.535 60.56 A 0.4 0.4 0 0 1 89.135 60.96 L 75.965 60.96 A 0.4 0.4 0 0 1 75.565 60.56 L 75.565 47.39  M 189.865 47.39 A 0.4 0.4 0 0 1 190.265 46.99 L 203.435 46.99 A 0.4 0.4 0 0 1 203.835 47.39 L 203.835 60.56 A 0.4 0.4 0 0 1 203.435 60.96 L 190.265 60.96 A 0.4 0.4 0 0 1 189.865 60.56 L 189.865 47.39  M 180.34 28.34 A 0.4 0.4 0 0 1 180.74 27.94 L 193.91 27.94 A 0.4 0.4 0 0 1 194.31 28.34 L 194.31 41.51 A 0.4 0.4 0 0 1 193.91 41.91 L 180.74 41.91 A 0.4 0.4 0 0 1 180.34 41.51 L 180.34 28.34  M 61.278 66.44 A 0.4 0.4 0 0 1 61.678 66.04 L 74.848 66.04 A 0.4 0.4 0 0 1 75.248 66.44 L 75.248 79.61 A 0.4 0.4 0 0 1 74.848 80.01 L 61.678 80.01 A 0.4 0.4 0 0 1 61.278 79.61 L 61.278 66.44  M 237.515 28.34 A 0.4 0.4 0 0 1 237.915 27.94 L 270.085 27.94 A 0.4 0.4 0 0 1 270.485 28.34 L 270.485 41.51 A 0.4 0.4 0 0 1 270.085 41.91 L 269.6 41.91 A 0.2 0.2 0 0 0 269.4 42.11 L 269.4 43.525 A 0.4 0.4 0 0 1 269.0 43.925 L 262.8 43.925 A 0.4 0.4 0 0 1 262.4 43.525 L 262.4 42.11 A 0.2 0.2 0 0 0 262.2 41.91 L 245.8 41.91 A 0.2 0.2 0 0 0 245.6 42.11 L 245.6 43.525 A 0.4 0.4 0 0 1 245.2 43.925 L 239.0 43.925 A 0.4 0.4 0 0 1 238.6 43.525 L 238.6 42.11 A 0.2 0.2 0 0 0 238.4 41.91 L 237.915 41.91 A 0.4 0.4 0 0 1 237.515 41.51 L 237.515 28.34  M 161.29 28.34 A 0.4 0.4 0 0 1 161.69 27.94 L 174.86 27.94 A 0.4 0.4 0 0 1 175.26 28.34 L 175.26 41.51 A 0.4 0.4 0 0 1 174.86 41.91 L 161.69 41.91 A 0.4 0.4 0 0 1 161.29 41.51 L 161.29 28.34  M 151.765 47.39 A 0.4 0.4 0 0 1 152.165 46.99 L 165.335 46.99 A 0.4 0.4 0 0 1 165.735 47.39 L 165.735 60.56 A 0.4 0.4 0 0 1 165.335 60.96 L 152.165 60.96 A 0.4 0.4 0 0 1 151.765 60.56 L 151.765 47.39  M 199.39 28.34 A 0.4 0.4 0 0 1 199.79 27.94 L 212.96 27.94 A 0.4 0.4 0 0 1 213.36 28.34 L 213.36 41.51 A 0.4 0.4 0 0 1 212.96 41.91 L 199.79 41.91 A 0.4 0.4 0 0 1 199.39 41.51 L 199.39 28.34  M 132.715 47.39 A 0.4 0.4 0 0 1 133.115 46.99 L 146.285 46.99 A 0.4 0.4 0 0 1 146.685 47.39 L 146.685 60.56 A 0.4 0.4 0 0 1 146.285 60.96 L 133.115 60.96 A 0.4 0.4 0 0 1 132.715 60.56 L 132.715 47.39  M 27.94 104.54 A 0.4 0.4 0 0 1 28.34 104.14 L 98.66 104.14 A 0.4 0.4 0 0 1 99.06 104.54 L 99.06 117.71 A 0.4 0.4 0 0 1 98.66 118.11 L 28.34 118.11 A 0.4 0.4 0 0 1 27.94 117.71 L 27.94 104.54  M 32.6898 60.4739 A 0.5 0.5 0 0 0 33.1898 60.9739 L 46.187 60.975 A 0.5 0.5 0 0 0 46.687 60.475 L 46.687 47.475 A 0.5 0.5 0 0 0 46.187 46.975 L 33.187 46.975 A 0.5 0.5 0 0 0 32.687 47.475 L 32.687 60.475  M 237.515 85.49 A 0.4 0.4 0 0 1 237.915 85.09 L 238.4 85.09 A 0.2 0.2 0 0 0 238.6 84.89 L 238.6 83.475 A 0.4 0.4 0 0 1 239.0 83.075 L 245.2 83.075 A 0.4 0.4 0 0 1 245.6 83.475 L 245.6 84.89 A 0.2 0.2 0 0 0 245.8 85.09 L 262.2 85.09 A 0.2 0.2 0 0 0 262.4 84.89 L 262.4 83.475 A 0.4 0.4 0 0 1 262.8 83.075 L 269.0 83.075 A 0.4 0.4 0 0 1 269.4 83.475 L 269.4 84.89 A 0.2 0.2 0 0 0 269.6 85.09 L 270.085 85.09 A 0.4 0.4 0 0 1 270.485 85.49 L 270.485 98.66 A 0.4 0.4 0 0 1 270.085 99.06 L 237.915 99.06 A 0.4 0.4 0 0 1 237.515 98.66 L 237.515 85.49  M 142.24 85.49 A 0.4 0.4 0 0 1 142.64 85.09 L 155.81 85.09 A 0.4 0.4 0 0 1 156.21 85.49 L 156.21 98.66 A 0.4 0.4 0 0 1 155.81 99.06 L 142.64 99.06 A 0.4 0.4 0 0 1 142.24 98.66 L 142.24 85.49  M 80.328 66.44 A 0.4 0.4 0 0 1 80.728 66.04 L 93.898 66.04 A 0.4 0.4 0 0 1 94.298 66.44 L 94.298 79.61 A 0.4 0.4 0 0 1 93.898 80.01 L 80.728 80.01 A 0.4 0.4 0 0 1 80.328 79.61 L 80.328 66.44  M 123.19 85.49 A 0.4 0.4 0 0 1 123.59 85.09 L 136.76 85.09 A 0.4 0.4 0 0 1 137.16 85.49 L 137.16 98.66 A 0.4 0.4 0 0 1 136.76 99.06 L 123.59 99.06 A 0.4 0.4 0 0 1 123.19 98.66 L 123.19 85.49  M 251.7648 60.4739 A 0.5 0.5 0 0 0 252.2648 60.9739 L 265.262 60.975 A 0.5 0.5 0 0 0 265.762 60.475 L 265.762 47.475 A 0.5 0.5 0 0 0 265.262 46.975 L 252.262 46.975 A 0.5 0.5 0 0 0 251.762 47.475 L 251.762 60.475  M 66.04 85.49 A 0.4 0.4 0 0 1 66.44 85.09 L 79.61 85.09 A 0.4 0.4 0 0 1 80.01 85.49 L 80.01 98.66 A 0.4 0.4 0 0 1 79.61 99.06 L 66.44 99.06 A 0.4 0.4 0 0 1 66.04 98.66 L 66.04 85.49  M 99.378 66.44 A 0.4 0.4 0 0 1 99.778 66.04 L 112.948 66.04 A 0.4 0.4 0 0 1 113.348 66.44 L 113.348 79.61 A 0.4 0.4 0 0 1 112.948 80.01 L 99.778 80.01 A 0.4 0.4 0 0 1 99.378 79.61 L 99.378 66.44  M 199.39 85.49 A 0.4 0.4 0 0 1 199.79 85.09 L 212.96 85.09 A 0.4 0.4 0 0 1 213.36 85.49 L 213.36 98.66 A 0.4 0.4 0 0 1 212.96 99.06 L 199.79 99.06 A 0.4 0.4 0 0 1 199.39 98.66 L 199.39 85.49  M 161.29 85.49 A 0.4 0.4 0 0 1 161.69 85.09 L 174.86 85.09 A 0.4 0.4 0 0 1 175.26 85.49 L 175.26 98.66 A 0.4 0.4 0 0 1 174.86 99.06 L 161.69 99.06 A 0.4 0.4 0 0 1 161.29 98.66 L 161.29 85.49  M 213.678 66.44 A 0.4 0.4 0 0 1 214.078 66.04 L 227.248 66.04 A 0.4 0.4 0 0 1 227.648 66.44 L 227.648 79.61 A 0.4 0.4 0 0 1 227.248 80.01 L 214.078 80.01 A 0.4 0.4 0 0 1 213.678 79.61 L 213.678 66.44  M 142.24 28.34 A 0.4 0.4 0 0 1 142.64 27.94 L 155.81 27.94 A 0.4 0.4 0 0 1 156.21 28.34 L 156.21 41.51 A 0.4 0.4 0 0 1 155.81 41.91 L 142.64 41.91 A 0.4 0.4 0 0 1 142.24 41.51 L 142.24 28.34  M 107.6495 116.725 A 0.4 0.4 0 0 0 108.0495 117.125 L 118.9552 117.125 A 0.3999 0.3999 0 0 0 119.3552 116.725 L 119.3552 102.525 A 0.4 0.4 0 0 0 118.9552 102.125 L 108.0495 102.125 A 0.4 0.4 0 0 0 107.6495 102.525 L 107.6495 116.725  M 120.8082 117.71 A 0.4 0.4 0 0 0 121.2082 118.11 L 134.3782 118.11 A 0.3999 0.3999 0 0 0 134.7782 117.71 L 134.7782 104.54 A 0.4 0.4 0 0 0 134.3783 104.14 L 121.2082 104.14 A 0.3999 0.3999 0 0 0 120.8082 104.54 L 120.8083 117.71  M 136.2312 116.725 A 0.4 0.4 0 0 0 136.6312 117.125 L 142.8312 117.125 A 0.3999 0.3999 0 0 0 143.2312 116.725 L 143.2312 102.525 A 0.4 0.4 0 0 0 142.8313 102.125 L 136.6312 102.125 A 0.3999 0.3999 0 0 0 136.2313 102.525 L 136.2312 116.725  M 151.7645 117.71 A 0.4 0.4 0 0 0 152.1645 118.11 L 166.5803 118.11 A 0.4 0.4 0 0 0 166.9802 117.71 L 166.9802 102.525 A 0.3999 0.3999 0 0 0 166.5802 102.125 L 160.3802 102.125 A 0.4 0.4 0 0 0 159.9802 102.525 L 159.9802 103.74 A 0.4 0.4 0 0 1 159.5803 104.14 L 152.1645 104.14 A 0.4 0.4 0 0 0 151.7645 104.54 L 151.7645 117.71  M 168.4332 117.71 A 0.3999 0.3999 0 0 0 168.8332 118.11 L 182.0032 118.11 A 0.4 0.4 0 0 0 182.4032 117.71 L 182.4032 104.54 A 0.3999 0.3999 0 0 0 182.0032 104.14 L 168.8332 104.14 A 0.4 0.4 0 0 0 168.4332 104.54 L 168.4332 117.71  M 183.8562 116.725 A 0.3999 0.3999 0 0 0 184.2562 117.125 L 190.4562 117.125 A 0.4 0.4 0 0 0 190.8562 116.725 L 190.8562 102.525 A 0.3999 0.3999 0 0 0 190.4562 102.125 L 184.2562 102.125 A 0.4 0.4 0 0 0 183.8562 102.525 L 183.8562 116.725  M 199.3895 117.71 A 0.4 0.4 0 0 0 199.7895 118.11 L 215.8972 118.11 L 270.11 118.11 A 0.4 0.4 0 0 0 270.51 117.71 L 270.51 104.54 A 0.4 0.4 0 0 0 270.11 104.14 L 215.9 104.14 L 210.2495 104.14 A 0.4 0.4 0 0 1 209.8495 103.74 L 209.8495 102.525 A 0.4 0.4 0 0 0 209.4495 102.125 L 203.2495 102.125 A 0.4 0.4 0 0 0 202.8495 102.525 L 202.8495 103.74 A 0.4 0.4 0 0 1 202.4495 104.14 L 199.7895 104.14 A 0.4 0.4 0 0 0 199.3895 104.54 L 199.3895 117.71  M 170.815 47.39 A 0.4 0.4 0 0 1 171.215 46.99 L 184.385 46.99 A 0.4 0.4 0 0 1 184.785 47.39 L 184.785 60.56 A 0.4 0.4 0 0 1 184.385 60.96 L 171.215 60.96 A 0.4 0.4 0 0 1 170.815 60.56 L 170.815 47.39  M 85.09 85.49 A 0.4 0.4 0 0 1 85.49 85.09 L 98.66 85.09 A 0.4 0.4 0 0 1 99.06 85.49 L 99.06 98.66 A 0.4 0.4 0 0 1 98.66 99.06 L 85.49 99.06 A 0.4 0.4 0 0 1 85.09 98.66 L 85.09 85.49  M 85.09 28.34 A 0.4 0.4 0 0 1 85.49 27.94 L 98.66 27.94 A 0.4 0.4 0 0 1 99.06 28.34 L 99.06 41.51 A 0.4 0.4 0 0 1 98.66 41.91 L 85.49 41.91 A 0.4 0.4 0 0 1 85.09 41.51 L 85.09 28.34  M 27.965 85.49 A 0.4 0.4 0 0 1 28.365 85.09 L 28.85 85.09 A 0.2 0.2 0 0 0 29.05 84.89 L 29.05 83.475 A 0.4 0.4 0 0 1 29.45 83.075 L 35.65 83.075 A 0.4 0.4 0 0 1 36.05 83.475 L 36.05 84.89 A 0.2 0.2 0 0 0 36.25 85.09 L 52.65 85.09 A 0.2 0.2 0 0 0 52.85 84.89 L 52.85 83.475 A 0.4 0.4 0 0 1 53.25 83.075 L 59.45 83.075 A 0.4 0.4 0 0 1 59.85 83.475 L 59.85 84.89 A 0.2 0.2 0 0 0 60.05 85.09 L 60.535 85.09 A 0.4 0.4 0 0 1 60.935 85.49 L 60.935 98.66 A 0.4 0.4 0 0 1 60.535 99.06 L 28.365 99.06 A 0.4 0.4 0 0 1 27.965 98.66 L 27.965 85.49  M 104.14 85.49 A 0.4 0.4 0 0 1 104.54 85.09 L 117.71 85.09 A 0.4 0.4 0 0 1 118.11 85.49 L 118.11 98.66 A 0.4 0.4 0 0 1 117.71 99.06 L 104.54 99.06 A 0.4 0.4 0 0 1 104.14 98.66 L 104.14 85.49  M 208.915 47.39 A 0.4 0.4 0 0 1 209.315 46.99 L 222.485 46.99 A 0.4 0.4 0 0 1 222.885 47.39 L 222.885 60.56 A 0.4 0.4 0 0 1 222.485 60.96 L 209.315 60.96 A 0.4 0.4 0 0 1 208.915 60.56 L 208.915 47.39  M 94.615 47.39 A 0.4 0.4 0 0 1 95.015 46.99 L 108.185 46.99 A 0.4 0.4 0 0 1 108.585 47.39 L 108.585 60.56 A 0.4 0.4 0 0 1 108.185 60.96 L 95.015 60.96 A 0.4 0.4 0 0 1 94.615 60.56 L 94.615 47.39  M 118.428 66.44 A 0.4 0.4 0 0 1 118.828 66.04 L 131.998 66.04 A 0.4 0.4 0 0 1 132.398 66.44 L 132.398 79.61 A 0.4 0.4 0 0 1 131.998 80.01 L 118.828 80.01 A 0.4 0.4 0 0 1 118.428 79.61 L 118.428 66.44  M 180.34 85.49 A 0.4 0.4 0 0 1 180.74 85.09 L 193.91 85.09 A 0.4 0.4 0 0 1 194.31 85.49 L 194.31 98.66 A 0.4 0.4 0 0 1 193.91 99.06 L 180.74 99.06 A 0.4 0.4 0 0 1 180.34 98.66 L 180.34 85.49  M 113.665 47.39 A 0.4 0.4 0 0 1 114.065 46.99 L 127.235 46.99 A 0.4 0.4 0 0 1 127.635 47.39 L 127.635 60.56 A 0.4 0.4 0 0 1 127.235 60.96 L 114.065 60.96 A 0.4 0.4 0 0 1 113.665 60.56 L 113.665 47.39  M 35.0718 79.5239 A 0.5 0.5 0 0 0 35.5718 80.0239 L 48.569 80.025 A 0.5 0.5 0 0 0 49.069 79.525 L 49.069 66.525 A 0.5 0.5 0 0 0 48.569 66.025 L 35.569 66.025 A 0.5 0.5 0 0 0 35.069 66.525 L 35.069 79.525  M 46.99 28.34 A 0.4 0.4 0 0 1 47.39 27.94 L 60.56 27.94 A 0.4 0.4 0 0 1 60.96 28.34 L 60.96 41.51 A 0.4 0.4 0 0 1 60.56 41.91 L 47.39 41.91 A 0.4 0.4 0 0 1 46.99 41.51 L 46.99 28.34  M 194.628 66.44 A 0.4 0.4 0 0 1 195.028 66.04 L 208.198 66.04 A 0.4 0.4 0 0 1 208.598 66.44 L 208.598 79.61 A 0.4 0.4 0 0 1 208.198 80.01 L 195.028 80.01 A 0.4 0.4 0 0 1 194.628 79.61 L 194.628 66.44  M 27.94 28.34 A 0.4 0.4 0 0 1 28.34 27.94 L 41.51 27.94 A 0.4 0.4 0 0 1 41.91 28.34 L 41.91 41.51 A 0.4 0.4 0 0 1 41.51 41.91 L 28.34 41.91 A 0.4 0.4 0 0 1 27.94 41.51 L 27.94 28.34  M 175.578 66.44 A 0.4 0.4 0 0 1 175.978 66.04 L 189.148 66.04 A 0.4 0.4 0 0 1 189.548 66.44 L 189.548 79.61 A 0.4 0.4 0 0 1 189.148 80.01 L 175.978 80.01 A 0.4 0.4 0 0 1 175.578 79.61 L 175.578 66.44  M 123.19 28.34 A 0.4 0.4 0 0 1 123.59 27.94 L 136.76 27.94 A 0.4 0.4 0 0 1 137.16 28.34 L 137.16 41.51 A 0.4 0.4 0 0 1 136.76 41.91 L 123.59 41.91 A 0.4 0.4 0 0 1 123.19 41.51 L 123.19 28.34  M 218.44 85.49 A 0.4 0.4 0 0 1 218.84 85.09 L 232.01 85.09 A 0.4 0.4 0 0 1 232.41 85.49 L 232.41 98.66 A 0.4 0.4 0 0 1 232.01 99.06 L 218.84 99.06 A 0.4 0.4 0 0 1 218.44 98.66 L 218.44 85.49  M 66.04 28.34 A 0.4 0.4 0 0 1 66.44 27.94 L 79.61 27.94 A 0.4 0.4 0 0 1 80.01 28.34 L 80.01 41.51 A 0.4 0.4 0 0 1 79.61 41.91 L 66.44 41.91 A 0.4 0.4 0 0 1 66.04 41.51 L 66.04 28.34  M 156.528 66.44 A 0.4 0.4 0 0 1 156.928 66.04 L 170.098 66.04 A 0.4 0.4 0 0 1 170.498 66.44 L 170.498 79.61 A 0.4 0.4 0 0 1 170.098 80.01 L 156.928 80.01 A 0.4 0.4 0 0 1 156.528 79.61 L 156.528 66.44  M 232.7277 79.61 A 0.4 0.4 0 0 0 233.1277 80.01 L 267.729 80.01 A 0.4 0.4 0 0 0 268.129 79.61 L 268.129 66.44 A 0.4 0.4 0 0 0 267.729 66.04 L 267.419 66.04 A 0.4 0.4 0 0 1 267.019 65.64 L 267.019 64.425 A 0.4 0.4 0 0 0 266.619 64.025 L 260.419 64.025 A 0.4 0.4 0 0 0 260.019 64.425 L 260.019 65.64 A 0.4 0.4 0 0 1 259.619 66.04 L 243.619 66.04 A 0.4 0.4 0 0 1 243.219 65.64 L 243.219 64.425 A 0.4 0.4 0 0 0 242.819 64.025 L 236.619 64.025 A 0.4 0.4 0 0 0 236.219 64.425 L 236.219 65.64 A 0.4 0.4 0 0 1 235.819 66.04 L 233.1277 66.04 A 0.3999 0.3999 0 0 0 232.7277 66.44 L 232.7277 79.61  M 218.44 28.34 A 0.4 0.4 0 0 1 218.84 27.94 L 232.01 27.94 A 0.4 0.4 0 0 1 232.41 28.34 L 232.41 41.51 A 0.4 0.4 0 0 1 232.01 41.91 L 218.84 41.91 A 0.4 0.4 0 0 1 218.44 41.51 L 218.44 28.34  M 227.965 47.39 A 0.4 0.4 0 0 1 228.365 46.99 L 241.535 46.99 A 0.4 0.4 0 0 1 241.935 47.39 L 241.935 60.56 A 0.4 0.4 0 0 1 241.535 60.96 L 228.365 60.96 A 0.4 0.4 0 0 1 227.965 60.56 L 227.965 47.39  M 137.478 66.44 A 0.4 0.4 0 0 1 137.878 66.04 L 151.048 66.04 A 0.4 0.4 0 0 1 151.448 66.44 L 151.448 79.61 A 0.4 0.4 0 0 1 151.048 80.01 L 137.878 80.01 A 0.4 0.4 0 0 1 137.478 79.61 L 137.478 66.44 " style="fill-rule: evenodd;"/><g style="fill: none;stroke: #1d1918;stroke-width: 0.0500;stroke-opacity: 1;stroke-linecap: round;stroke-linejoin: round">
<path d="M272.5500 61.5000 A0.5000 0.5000 0.0 0 0 273.0500 61.0000"/>
<path d="M25.9000 103.6000 A0.5000 0.5000 0.0 0 0 25.4000 104.1000"/>
<path d="M28.4000 25.4000 A3.0000 3.0000 0.0 0 0 25.4000 28.4000"/>
<path d="M25.9000 103.6000 L26.9000 103.6000 "/>
<path d="M270.0500 120.6500 L28.4000 120.6500 "/>
<path d="M270.0500 61.5000 A2.0000 2.0000 0.0 0 0 270.0500 65.5000"/>
<path d="M270.0500 120.6500 A3.0000 3.0000 0.0 0 0 273.0500 117.6500"/>
<path d="M25.4000 104.1000 L25.4000 117.6500 "/>
<path d="M270.0500 61.5000 L272.5500 61.5000 "/>
<path d="M26.9000 103.6000 A2.0000 2.0000 0.0 0 0 26.9000 99.6000"/>
<path d="M270.0500 65.5000 L272.5500 65.5000 "/>
<path d="M25.4000 117.6500 A3.0000 3.0000 0.0 0 0 28.4000 120.6500"/>
<path d="M25.9000 99.6000 L26.9000 99.6000 "/>
<path d="M273.0500 28.4000 A3.0000 3.0000 0.0 0 0 270.0500 25.4000"/>
<path d="M25.4000 99.1000 A0.5000 0.5000 0.0 0 0 25.9000 99.6000"/>
<path d="M273.0500 66.0000 A0.5000 0.5000 0.0 0 0 272.5500 65.5000"/>
<path d="M273.0500 28.4000 L273.0500 61.0000 "/>
<path d="M28.4000 25.4000 L270.0500 25.4000 "/>
<path d="M273.0500 66.0000 L273.0500 117.6500 "/>
<path d="M25.4000 99.1000 L25.4000 28.4000 "/>
<path d="M104.1400 41.5100 L104.1400 28.3400 "/>
<path d="M104.5400 27.9400 L117.7100 27.9400 "/>
<path d="M117.7100 41.9100 L104.5400 41.9100 "/>
<path d="M118.1100 28.3400 L118.1100 41.5100 "/>
<path d="M104.5400 27.9400 A0.4000 0.4000 0.0 0 0 104.1400 28.3400"/>
<path d="M104.1400 41.5100 A0.4000 0.4000 0.0 0 0 104.5400 41.9100"/>
<path d="M118.1100 28.3400 A0.4000 0.4000 0.0 0 0 117.7100 27.9400"/>
<path d="M117.7100 41.9100 A0.4000 0.4000 0.0 0 0 118.1100 41.5100"/>
<path d="M56.5150 60.5600 L56.5150 47.3900 "/>
<path d="M56.9150 46.9900 L70.0850 46.9900 "/>
<path d="M70.0850 60.9600 L56.9150 60.9600 "/>
<path d="M70.4850 47.3900 L70.4850 60.5600 "/>
<path d="M56.9150 46.9900 A0.4000 0.4000 0.0 0 0 56.5150 47.3900"/>
<path d="M56.5150 60.5600 A0.4000 0.4000 0.0 0 0 56.9150 60.9600"/>
<path d="M70.4850 47.3900 A0.4000 0.4000 0.0 0 0 70.0850 46.9900"/>
<path d="M70.0850 60.9600 A0.4000 0.4000 0.0 0 0 70.4850 60.5600"/>
<path d="M75.5650 60.5600 L75.5650 47.3900 "/>
<path d="M75.9650 46.9900 L89.1350 46.9900 "/>
<path d="M89.1350 60.9600 L75.9650 60.9600 "/>
<path d="M89.5350 47.3900 L89.5350 60.5600 "/>
<path d="M75.9650 46.9900 A0.4000 0.4000 0.0 0 0 75.5650 47.3900"/>
<path d="M75.5650 60.5600 A0.4000 0.4000 0.0 0 0 75.9650 60.9600"/>
<path d="M89.5350 47.3900 A0.4000 0.4000 0.0 0 0 89.1350 46.9900"/>
<path d="M89.1350 60.9600 A0.4000 0.4000 0.0 0 0 89.5350 60.5600"/>
<path d="M189.8650 60.5600 L189.8650 47.3900 "/>
<path d="M190.2650 46.9900 L203.4350 46.9900 "/>
<path d="M203.4350 60.9600 L190.2650 60.9600 "/>
<path d="M203.8350 47.3900 L203.8350 60.5600 "/>
<path d="M190.2650 46.9900 A0.4000 0.4000 0.0 0 0 189.8650 47.3900"/>
<path d="M189.8650 60.5600 A0.4000 0.4000 0.0 0 0 190.2650 60.9600"/>
<path d="M203.8350 47.3900 A0.4000 0.4000 0.0 0 0 203.4350 46.9900"/>
<path d="M203.4350 60.9600 A0.4000 0.4000 0.0 0 0 203.8350 60.5600"/>
<path d="M180.3400 41.5100 L180.3400 28.3400 "/>
<path d="M180.7400 27.9400 L193.9100 27.9400 "/>
<path d="M193.9100 41.9100 L180.7400 41.9100 "/>
<path d="M194.3100 28.3400 L194.3100 41.5100 "/>
<path d="M180.7400 27.9400 A0.4000 0.4000 0.0 0 0 180.3400 28.3400"/>
<path d="M180.3400 41.5100 A0.4000 0.4000 0.0 0 0 180.7400 41.9100"/>
<path d="M194.3100 28.3400 A0.4000 0.4000 0.0 0 0 193.9100 27.9400"/>
<path d="M193.9100 41.9100 A0.4000 0.4000 0.0 0 0 194.3100 41.5100"/>
<path d="M61.2780 79.6100 L61.2780 66.4400 "/>
<path d="M61.6780 66.0400 L74.8480 66.0400 "/>
<path d="M74.8480 80.0100 L61.6780 80.0100 "/>
<path d="M75.2480 66.4400 L75.2480 79.6100 "/>
<path d="M61.6780 66.0400 A0.4000 0.4000 0.0 0 0 61.2780 66.4400"/>
<path d="M61.2780 79.6100 A0.4000 0.4000 0.0 0 0 61.6780 80.0100"/>
<path d="M75.2480 66.4400 A0.4000 0.4000 0.0 0 0 74.8480 66.0400"/>
<path d="M74.8480 80.0100 A0.4000 0.4000 0.0 0 0 75.2480 79.6100"/>
<path d="M237.5150 41.5100 L237.5150 28.3400 "/>
<path d="M237.9150 27.9400 L270.0850 27.9400 "/>
<path d="M238.4000 41.9100 L237.9150 41.9100 "/>
<path d="M238.6000 42.1100 L238.6000 43.5250 "/>
<path d="M239.0000 43.9250 L245.2000 43.9250 "/>
<path d="M245.6000 42.1100 L245.6000 43.5250 "/>
<path d="M262.2000 41.9100 L245.8000 41.9100 "/>
<path d="M262.4000 42.1100 L262.4000 43.5250 "/>
<path d="M269.0000 43.9250 L262.8000 43.9250 "/>
<path d="M269.4000 42.1100 L269.4000 43.5250 "/>
<path d="M269.6000 41.9100 L270.0850 41.9100 "/>
<path d="M270.4850 28.3400 L270.4850 41.5100 "/>
<path d="M237.9150 27.9400 A0.4000 0.4000 0.0 0 0 237.5150 28.3400"/>
<path d="M237.5150 41.5100 A0.4000 0.4000 0.0 0 0 237.9150 41.9100"/>
<path d="M238.6000 42.1100 A0.2000 0.2000 0.0 0 0 238.4000 41.9100"/>
<path d="M238.6000 43.5250 A0.4000 0.4000 0.0 0 0 239.0000 43.9250"/>
<path d="M245.8000 41.9100 A0.2000 0.2000 0.0 0 0 245.6000 42.1100"/>
<path d="M245.2000 43.9250 A0.4000 0.4000 0.0 0 0 245.6000 43.5250"/>
<path d="M262.4000 42.1100 A0.2000 0.2000 0.0 0 0 262.2000 41.9100"/>
<path d="M262.4000 43.5250 A0.4000 0.4000 0.0 0 0 262.8000 43.9250"/>
<path d="M269.6000 41.9100 A0.2000 0.2000 0.0 0 0 269.4000 42.1100"/>
<path d="M269.0000 43.9250 A0.4000 0.4000 0.0 0 0 269.4000 43.5250"/>
<path d="M270.4850 28.3400 A0.4000 0.4000 0.0 0 0 270.0850 27.9400"/>
<path d="M270.0850 41.9100 A0.4000 0.4000 0.0 0 0 270.4850 41.5100"/>
<path d="M161.2900 41.5100 L161.2900 28.3400 "/>
<path d="M161.6900 27.9400 L174.8600 27.9400 "/>
<path d="M174.8600 41.9100 L161.6900 41.9100 "/>
<path d="M175.2600 28.3400 L175.2600 41.5100 "/>
<path d="M161.6900 27.9400 A0.4000 0.4000 0.0 0 0 161.2900 28.3400"/>
<path d="M161.2900 41.5100 A0.4000 0.4000 0.0 0 0 161.6900 41.9100"/>
<path d="M175.2600 28.3400 A0.4000 0.4000 0.0 0 0 174.8600 27.9400"/>
<path d="M174.8600 41.9100 A0.4000 0.4000 0.0 0 0 175.2600 41.5100"/>
<path d="M151.7650 60.5600 L151.7650 47.3900 "/>
<path d="M152.1650 46.9900 L165.3350 46.9900 "/>
<path d="M165.3350 60.9600 L152.1650 60.9600 "/>
<path d="M165.7350 47.3900 L165.7350 60.5600 "/>
<path d="M152.1650 46.9900 A0.4000 0.4000 0.0 0 0 151.7650 47.3900"/>
<path d="M151.7650 60.5600 A0.4000 0.4000 0.0 0 0 152.1650 60.9600"/>
<path d="M165.7350 47.3900 A0.4000 0.4000 0.0 0 0 165.3350 46.9900"/>
<path d="M165.3350 60.9600 A0.4000 0.4000 0.0 0 0 165.7350 60.5600"/>
<path d="M199.3900 41.5100 L199.3900 28.3400 "/>
<path d="M199.7900 27.9400 L212.9600 27.9400 "/>
<path d="M212.9600 41.9100 L199.7900 41.9100 "/>
<path d="M213.3600 28.3400 L213.3600 41.5100 "/>
<path d="M199.7900 27.9400 A0.4000 0.4000 0.0 0 0 199.3900 28.3400"/>
<path d="M199.3900 41.5100 A0.4000 0.4000 0.0 0 0 199.7900 41.9100"/>
<path d="M213.3600 28.3400 A0.4000 0.4000 0.0 0 0 212.9600 27.9400"/>
<path d="M212.9600 41.9100 A0.4000 0.4000 0.0 0 0 213.3600 41.5100"/>
<path d="M132.7150 60.5600 L132.7150 47.3900 "/>
<path d="M133.1150 46.9900 L146.2850 46.9900 "/>
<path d="M146.2850 60.9600 L133.1150 60.9600 "/>
<path d="M146.6850 47.3900 L146.6850 60.5600 "/>
<path d="M133.1150 46.9900 A0.4000 0.4000 0.0 0 0 132.7150 47.3900"/>
<path d="M132.7150 60.5600 A0.4000 0.4000 0.0 0 0 133.1150 60.9600"/>
<path d="M146.6850 47.3900 A0.4000 0.4000 0.0 0 0 146.2850 46.9900"/>
<path d="M146.2850 60.9600 A0.4000 0.4000 0.0 0 0 146.6850 60.5600"/>
<path d="M27.9400 117.7100 L27.9400 104.5400 "/>
<path d="M28.3400 104.1400 L98.6600 104.1400 "/>
<path d="M98.6600 118.1100 L28.3400 118.1100 "/>
<path d="M99.0600 104.5400 L99.0600 117.7100 "/>
<path d="M28.3400 104.1400 A0.4000 0.4000 0.0 0 0 27.9400 104.5400"/>
<path d="M27.9400 117.7100 A0.4000 0.4000 0.0 0 0 28.3400 118.1100"/>
<path d="M99.0600 104.5400 A0.4000 0.4000 0.0 0 0 98.6600 104.1400"/>
<path d="M98.6600 118.1100 A0.4000 0.4000 0.0 0 0 99.0600 117.7100"/>
<path d="M32.6870 47.4750 L32.6870 60.4750 "/>
<path d="M33.1870 60.9750 L46.1870 60.9750 "/>
<path d="M46.1870 46.9750 L33.1870 46.9750 "/>
<path d="M46.6870 60.4750 L46.6870 47.4750 "/>
<path d="M33.1870 46.9750 A0.5000 0.5000 0.0 0 0 32.6870 47.4750"/>
<path d="M32.6898 60.4739 A0.5000 0.5000 0.0 0 0 33.1898 60.9739"/>
<path d="M46.6870 47.4750 A0.5000 0.5000 0.0 0 0 46.1870 46.9750"/>
<path d="M46.1870 60.9750 A0.5000 0.5000 0.0 0 0 46.6870 60.4750"/>
<path d="M237.5150 98.6600 L237.5150 85.4900 "/>
<path d="M238.4000 85.0900 L237.9150 85.0900 "/>
<path d="M238.6000 84.8900 L238.6000 83.4750 "/>
<path d="M239.0000 83.0750 L245.2000 83.0750 "/>
<path d="M245.6000 84.8900 L245.6000 83.4750 "/>
<path d="M245.8000 85.0900 L262.2000 85.0900 "/>
<path d="M262.4000 84.8900 L262.4000 83.4750 "/>
<path d="M269.0000 83.0750 L262.8000 83.0750 "/>
<path d="M269.4000 84.8900 L269.4000 83.4750 "/>
<path d="M269.6000 85.0900 L270.0850 85.0900 "/>
<path d="M270.0850 99.0600 L237.9150 99.0600 "/>
<path d="M270.4850 85.4900 L270.4850 98.6600 "/>
<path d="M237.9150 85.0900 A0.4000 0.4000 0.0 0 0 237.5150 85.4900"/>
<path d="M237.5150 98.6600 A0.4000 0.4000 0.0 0 0 237.9150 99.0600"/>
<path d="M239.0000 83.0750 A0.4000 0.4000 0.0 0 0 238.6000 83.4750"/>
<path d="M238.4000 85.0900 A0.2000 0.2000 0.0 0 0 238.6000 84.8900"/>
<path d="M245.6000 83.4750 A0.4000 0.4000 0.0 0 0 245.2000 83.0750"/>
<path d="M245.6000 84.8900 A0.2000 0.2000 0.0 0 0 245.8000 85.0900"/>
<path d="M262.8000 83.0750 A0.4000 0.4000 0.0 0 0 262.4000 83.4750"/>
<path d="M262.2000 85.0900 A0.2000 0.2000 0.0 0 0 262.4000 84.8900"/>
<path d="M269.4000 83.4750 A0.4000 0.4000 0.0 0 0 269.0000 83.0750"/>
<path d="M269.4000 84.8900 A0.2000 0.2000 0.0 0 0 269.6000 85.0900"/>
<path d="M270.4850 85.4900 A0.4000 0.4000 0.0 0 0 270.0850 85.0900"/>
<path d="M270.0850 99.0600 A0.4000 0.4000 0.0 0 0 270.4850 98.6600"/>
<path d="M142.2400 98.6600 L142.2400 85.4900 "/>
<path d="M142.6400 85.0900 L155.8100 85.0900 "/>
<path d="M155.8100 99.0600 L142.6400 99.0600 "/>
<path d="M156.2100 85.4900 L156.2100 98.6600 "/>
<path d="M142.6400 85.0900 A0.4000 0.4000 0.0 0 0 142.2400 85.4900"/>
<path d="M142.2400 98.6600 A0.4000 0.4000 0.0 0 0 142.6400 99.0600"/>
<path d="M156.2100 85.4900 A0.4000 0.4000 0.0 0 0 155.8100 85.0900"/>
<path d="M155.8100 99.0600 A0.4000 0.4000 0.0 0 0 156.2100 98.6600"/>
<path d="M80.3280 79.6100 L80.3280 66.4400 "/>
<path d="M80.7280 66.0400 L93.8980 66.0400 "/>
<path d="M93.8980 80.0100 L80.7280 80.0100 "/>
<path d="M94.2980 66.4400 L94.2980 79.6100 "/>
<path d="M80.7280 66.0400 A0.4000 0.4000 0.0 0 0 80.3280 66.4400"/>
<path d="M80.3280 79.6100 A0.4000 0.4000 0.0 0 0 80.7280 80.0100"/>
<path d="M94.2980 66.4400 A0.4000 0.4000 0.0 0 0 93.8980 66.0400"/>
<path d="M93.8980 80.0100 A0.4000 0.4000 0.0 0 0 94.2980 79.6100"/>
<path d="M123.1900 98.6600 L123.1900 85.4900 "/>
<path d="M123.5900 85.0900 L136.7600 85.0900 "/>
<path d="M136.7600 99.0600 L123.5900 99.0600 "/>
<path d="M137.1600 85.4900 L137.1600 98.6600 "/>
<path d="M123.5900 85.0900 A0.4000 0.4000 0.0 0 0 123.1900 85.4900"/>
<path d="M123.1900 98.6600 A0.4000 0.4000 0.0 0 0 123.5900 99.0600"/>
<path d="M137.1600 85.4900 A0.4000 0.4000 0.0 0 0 136.7600 85.0900"/>
<path d="M136.7600 99.0600 A0.4000 0.4000 0.0 0 0 137.1600 98.6600"/>
<path d="M251.7620 47.4750 L251.7620 60.4750 "/>
<path d="M252.2620 60.9750 L265.2620 60.9750 "/>
<path d="M265.2620 46.9750 L252.2620 46.9750 "/>
<path d="M265.7620 60.4750 L265.7620 47.4750 "/>
<path d="M252.2620 46.9750 A0.5000 0.5000 0.0 0 0 251.7620 47.4750"/>
<path d="M251.7648 60.4739 A0.5000 0.5000 0.0 0 0 252.2648 60.9739"/>
<path d="M265.7620 47.4750 A0.5000 0.5000 0.0 0 0 265.2620 46.9750"/>
<path d="M265.2620 60.9750 A0.5000 0.5000 0.0 0 0 265.7620 60.4750"/>
<path d="M66.0400 98.6600 L66.0400 85.4900 "/>
<path d="M66.4400 85.0900 L79.6100 85.0900 "/>
<path d="M79.6100 99.0600 L66.4400 99.0600 "/>
<path d="M80.0100 85.4900 L80.0100 98.6600 "/>
<path d="M66.4400 85.0900 A0.4000 0.4000 0.0 0 0 66.0400 85.4900"/>
<path d="M66.0400 98.6600 A0.4000 0.4000 0.0 0 0 66.4400 99.0600"/>
<path d="M80.0100 85.4900 A0.4000 0.4000 0.0 0 0 79.6100 85.0900"/>
<path d="M79.6100 99.0600 A0.4000 0.4000 0.0 0 0 80.0100 98.6600"/>
<path d="M99.3780 79.6100 L99.3780 66.4400 "/>
<path d="M99.7780 66.0400 L112.9480 66.0400 "/>
<path d="M112.9480 80.0100 L99.7780 80.0100 "/>
<path d="M113.3480 66.4400 L113.3480 79.6100 "/>
<path d="M99.7780 66.0400 A0.4000 0.4000 0.0 0 0 99.3780 66.4400"/>
<path d="M99.3780 79.6100 A0.4000 0.4000 0.0 0 0 99.7780 80.0100"/>
<path d="M113.3480 66.4400 A0.4000 0.4000 0.0 0 0 112.9480 66.0400"/>
<path d="M112.9480 80.0100 A0.4000 0.4000 0.0 0 0 113.3480 79.6100"/>
<path d="M199.3900 98.6600 L199.3900 85.4900 "/>
<path d="M199.7900 85.0900 L212.9600 85.0900 "/>
<path d="M212.9600 99.0600 L199.7900 99.0600 "/>
<path d="M213.3600 85.4900 L213.3600 98.6600 "/>
<path d="M199.7900 85.0900 A0.4000 0.4000 0.0 0 0 199.3900 85.4900"/>
<path d="M199.3900 98.6600 A0.4000 0.4000 0.0 0 0 199.7900 99.0600"/>
<path d="M213.3600 85.4900 A0.4000 0.4000 0.0 0 0 212.9600 85.0900"/>
<path d="M212.9600 99.0600 A0.4000 0.4000 0.0 0 0 213.3600 98.6600"/>
<path d="M161.2900 98.6600 L161.2900 85.4900 "/>
<path d="M161.6900 85.0900 L174.8600 85.0900 "/>
<path d="M174.8600 99.0600 L161.6900 99.0600 "/>
<path d="M175.2600 85.4900 L175.2600 98.6600 "/>
<path d="M161.6900 85.0900 A0.4000 0.4000 0.0 0 0 161.2900 85.4900"/>
<path d="M161.2900 98.6600 A0.4000 0.4000 0.0 0 0 161.6900 99.0600"/>
<path d="M175.2600 85.4900 A0.4000 0.4000 0.0 0 0 174.8600 85.0900"/>
<path d="M174.8600 99.0600 A0.4000 0.4000 0.0 0 0 175.2600 98.6600"/>
<path d="M213.6780 79.6100 L213.6780 66.4400 "/>
<path d="M214.0780 66.0400 L227.2480 66.0400 "/>
<path d="M227.2480 80.0100 L214.0780 80.0100 "/>
<path d="M227.6480 66.4400 L227.6480 79.6100 "/>
<path d="M214.0780 66.0400 A0.4000 0.4000 0.0 0 0 213.6780 66.4400"/>
<path d="M213.6780 79.6100 A0.4000 0.4000 0.0 0 0 214.0780 80.0100"/>
<path d="M227.6480 66.4400 A0.4000 0.4000 0.0 0 0 227.2480 66.0400"/>
<path d="M227.2480 80.0100 A0.4000 0.4000 0.0 0 0 227.6480 79.6100"/>
<path d="M142.2400 41.5100 L142.2400 28.3400 "/>
<path d="M142.6400 27.9400 L155.8100 27.9400 "/>
<path d="M155.8100 41.9100 L142.6400 41.9100 "/>
<path d="M156.2100 28.3400 L156.2100 41.5100 "/>
<path d="M142.6400 27.9400 A0.4000 0.4000 0.0 0 0 142.2400 28.3400"/>
<path d="M142.2400 41.5100 A0.4000 0.4000 0.0 0 0 142.6400 41.9100"/>
<path d="M156.2100 28.3400 A0.4000 0.4000 0.0 0 0 155.8100 27.9400"/>
<path d="M155.8100 41.9100 A0.4000 0.4000 0.0 0 0 156.2100 41.5100"/>
<path d="M107.6495 102.5250 L107.6495 116.7250 "/>
<path d="M108.0495 117.1250 L118.9552 117.1250 "/>
<path d="M118.9552 102.1250 L108.0495 102.1250 "/>
<path d="M119.3552 116.7250 L119.3552 102.5250 "/>
<path d="M120.8083 104.5400 L120.8083 117.7100 "/>
<path d="M121.2082 118.1100 L134.3782 118.1100 "/>
<path d="M134.3782 104.1400 L121.2082 104.1400 "/>
<path d="M134.7782 117.7100 L134.7782 104.5400 "/>
<path d="M136.2312 102.5250 L136.2312 116.7250 "/>
<path d="M136.6312 117.1250 L142.8312 117.1250 "/>
<path d="M142.8312 102.1250 L136.6312 102.1250 "/>
<path d="M143.2312 116.7250 L143.2312 102.5250 "/>
<path d="M151.7645 104.5400 L151.7645 117.7100 "/>
<path d="M152.1645 118.1100 L166.5803 118.1100 "/>
<path d="M159.5803 104.1400 L152.1645 104.1400 "/>
<path d="M159.9802 102.5250 L159.9802 103.7400 "/>
<path d="M166.5803 102.1250 L160.3802 102.1250 "/>
<path d="M166.9802 117.7100 L166.9802 102.5250 "/>
<path d="M168.4332 104.5400 L168.4332 117.7100 "/>
<path d="M168.8332 118.1100 L182.0032 118.1100 "/>
<path d="M182.0032 104.1400 L168.8332 104.1400 "/>
<path d="M182.4032 117.7100 L182.4032 104.5400 "/>
<path d="M183.8562 102.5250 L183.8562 116.7250 "/>
<path d="M184.2562 117.1250 L190.4562 117.1250 "/>
<path d="M190.4562 102.1250 L184.2562 102.1250 "/>
<path d="M190.8562 116.7250 L190.8562 102.5250 "/>
<path d="M199.3895 104.5400 L199.3895 117.7100 "/>
<path d="M199.7895 118.1100 L215.8972 118.1100 "/>
<path d="M202.4495 104.1400 L199.7895 104.1400 "/>
<path d="M202.8495 102.5250 L202.8495 103.7400 "/>
<path d="M209.4495 102.1250 L203.2495 102.1250 "/>
<path d="M209.8495 103.7400 L209.8495 102.5250 "/>
<path d="M210.2495 104.1400 L215.8972 104.1400 "/>
<path d="M108.0495 102.1250 A0.4000 0.4000 0.0 0 0 107.6495 102.5250"/>
<path d="M107.6495 116.7250 A0.4000 0.4000 0.0 0 0 108.0495 117.1250"/>
<path d="M119.3553 102.5250 A0.4000 0.4000 0.0 0 0 118.9552 102.1250"/>
<path d="M118.9553 117.1249 A0.3999 0.3999 0.0 0 0 119.3552 116.7250"/>
<path d="M121.2082 104.1401 A0.3999 0.3999 0.0 0 0 120.8082 104.5400"/>
<path d="M120.8082 117.7100 A0.4000 0.4000 0.0 0 0 121.2082 118.1100"/>
<path d="M134.7783 104.5400 A0.4000 0.4000 0.0 0 0 134.3783 104.1400"/>
<path d="M134.3783 118.1099 A0.3999 0.3999 0.0 0 0 134.7782 117.7100"/>
<path d="M136.6312 102.1251 A0.3999 0.3999 0.0 0 0 136.2313 102.5250"/>
<path d="M136.2312 116.7250 A0.4000 0.4000 0.0 0 0 136.6312 117.1250"/>
<path d="M143.2313 102.5250 A0.4000 0.4000 0.0 0 0 142.8313 102.1250"/>
<path d="M142.8313 117.1249 A0.3999 0.3999 0.0 0 0 143.2312 116.7250"/>
<path d="M152.1645 104.1400 A0.4000 0.4000 0.0 0 0 151.7645 104.5400"/>
<path d="M151.7645 117.7100 A0.4000 0.4000 0.0 0 0 152.1645 118.1100"/>
<path d="M160.3802 102.1250 A0.4000 0.4000 0.0 0 0 159.9802 102.5250"/>
<path d="M159.5803 104.1400 A0.4000 0.4000 0.0 0 0 159.9803 103.7400"/>
<path d="M166.9802 102.5250 A0.3999 0.3999 0.0 0 0 166.5802 102.1250"/>
<path d="M166.5802 118.1100 A0.4000 0.4000 0.0 0 0 166.9802 117.7100"/>
<path d="M168.8332 104.1400 A0.4000 0.4000 0.0 0 0 168.4332 104.5400"/>
<path d="M168.4332 117.7100 A0.3999 0.3999 0.0 0 0 168.8332 118.1100"/>
<path d="M182.4032 104.5400 A0.3999 0.3999 0.0 0 0 182.0032 104.1400"/>
<path d="M182.0032 118.1100 A0.4000 0.4000 0.0 0 0 182.4032 117.7100"/>
<path d="M184.2562 102.1250 A0.4000 0.4000 0.0 0 0 183.8562 102.5250"/>
<path d="M183.8562 116.7250 A0.3999 0.3999 0.0 0 0 184.2562 117.1250"/>
<path d="M190.8562 102.5250 A0.3999 0.3999 0.0 0 0 190.4562 102.1250"/>
<path d="M190.4562 117.1250 A0.4000 0.4000 0.0 0 0 190.8562 116.7250"/>
<path d="M199.7895 104.1400 A0.4000 0.4000 0.0 0 0 199.3895 104.5400"/>
<path d="M199.3895 117.7100 A0.4000 0.4000 0.0 0 0 199.7895 118.1100"/>
<path d="M203.2495 102.1250 A0.4000 0.4000 0.0 0 0 202.8495 102.5250"/>
<path d="M202.4495 104.1400 A0.4000 0.4000 0.0 0 0 202.8495 103.7400"/>
<path d="M209.8495 102.5250 A0.4000 0.4000 0.0 0 0 209.4495 102.1250"/>
<path d="M209.8495 103.7400 A0.4000 0.4000 0.0 0 0 210.2495 104.1400"/>
<path d="M170.8150 60.5600 L170.8150 47.3900 "/>
<path d="M171.2150 46.9900 L184.3850 46.9900 "/>
<path d="M184.3850 60.9600 L171.2150 60.9600 "/>
<path d="M184.7850 47.3900 L184.7850 60.5600 "/>
<path d="M171.2150 46.9900 A0.4000 0.4000 0.0 0 0 170.8150 47.3900"/>
<path d="M170.8150 60.5600 A0.4000 0.4000 0.0 0 0 171.2150 60.9600"/>
<path d="M184.7850 47.3900 A0.4000 0.4000 0.0 0 0 184.3850 46.9900"/>
<path d="M184.3850 60.9600 A0.4000 0.4000 0.0 0 0 184.7850 60.5600"/>
<path d="M85.0900 98.6600 L85.0900 85.4900 "/>
<path d="M85.4900 85.0900 L98.6600 85.0900 "/>
<path d="M98.6600 99.0600 L85.4900 99.0600 "/>
<path d="M99.0600 85.4900 L99.0600 98.6600 "/>
<path d="M85.4900 85.0900 A0.4000 0.4000 0.0 0 0 85.0900 85.4900"/>
<path d="M85.0900 98.6600 A0.4000 0.4000 0.0 0 0 85.4900 99.0600"/>
<path d="M99.0600 85.4900 A0.4000 0.4000 0.0 0 0 98.6600 85.0900"/>
<path d="M98.6600 99.0600 A0.4000 0.4000 0.0 0 0 99.0600 98.6600"/>
<path d="M85.0900 41.5100 L85.0900 28.3400 "/>
<path d="M85.4900 27.9400 L98.6600 27.9400 "/>
<path d="M98.6600 41.9100 L85.4900 41.9100 "/>
<path d="M99.0600 28.3400 L99.0600 41.5100 "/>
<path d="M85.4900 27.9400 A0.4000 0.4000 0.0 0 0 85.0900 28.3400"/>
<path d="M85.0900 41.5100 A0.4000 0.4000 0.0 0 0 85.4900 41.9100"/>
<path d="M99.0600 28.3400 A0.4000 0.4000 0.0 0 0 98.6600 27.9400"/>
<path d="M98.6600 41.9100 A0.4000 0.4000 0.0 0 0 99.0600 41.5100"/>
<path d="M27.9650 98.6600 L27.9650 85.4900 "/>
<path d="M28.8500 85.0900 L28.3650 85.0900 "/>
<path d="M29.0500 84.8900 L29.0500 83.4750 "/>
<path d="M29.4500 83.0750 L35.6500 83.0750 "/>
<path d="M36.0500 84.8900 L36.0500 83.4750 "/>
<path d="M36.2500 85.0900 L52.6500 85.0900 "/>
<path d="M52.8500 84.8900 L52.8500 83.4750 "/>
<path d="M59.4500 83.0750 L53.2500 83.0750 "/>
<path d="M59.8500 84.8900 L59.8500 83.4750 "/>
<path d="M60.0500 85.0900 L60.5350 85.0900 "/>
<path d="M60.5350 99.0600 L28.3650 99.0600 "/>
<path d="M60.9350 85.4900 L60.9350 98.6600 "/>
<path d="M28.3650 85.0900 A0.4000 0.4000 0.0 0 0 27.9650 85.4900"/>
<path d="M27.9650 98.6600 A0.4000 0.4000 0.0 0 0 28.3650 99.0600"/>
<path d="M29.4500 83.0750 A0.4000 0.4000 0.0 0 0 29.0500 83.4750"/>
<path d="M28.8500 85.0900 A0.2000 0.2000 0.0 0 0 29.0500 84.8900"/>
<path d="M36.0500 83.4750 A0.4000 0.4000 0.0 0 0 35.6500 83.0750"/>
<path d="M36.0500 84.8900 A0.2000 0.2000 0.0 0 0 36.2500 85.0900"/>
<path d="M53.2500 83.0750 A0.4000 0.4000 0.0 0 0 52.8500 83.4750"/>
<path d="M52.6500 85.0900 A0.2000 0.2000 0.0 0 0 52.8500 84.8900"/>
<path d="M59.8500 83.4750 A0.4000 0.4000 0.0 0 0 59.4500 83.0750"/>
<path d="M59.8500 84.8900 A0.2000 0.2000 0.0 0 0 60.0500 85.0900"/>
<path d="M60.9350 85.4900 A0.4000 0.4000 0.0 0 0 60.5350 85.0900"/>
<path d="M60.5350 99.0600 A0.4000 0.4000 0.0 0 0 60.9350 98.6600"/>
<path d="M104.1400 98.6600 L104.1400 85.4900 "/>
<path d="M104.5400 85.0900 L117.7100 85.0900 "/>
<path d="M117.7100 99.0600 L104.5400 99.0600 "/>
<path d="M118.1100 85.4900 L118.1100 98.6600 "/>
<path d="M104.5400 85.0900 A0.4000 0.4000 0.0 0 0 104.1400 85.4900"/>
<path d="M104.1400 98.6600 A0.4000 0.4000 0.0 0 0 104.5400 99.0600"/>
<path d="M118.1100 85.4900 A0.4000 0.4000 0.0 0 0 117.7100 85.0900"/>
<path d="M117.7100 99.0600 A0.4000 0.4000 0.0 0 0 118.1100 98.6600"/>
<path d="M208.9150 60.5600 L208.9150 47.3900 "/>
<path d="M209.3150 46.9900 L222.4850 46.9900 "/>
<path d="M222.4850 60.9600 L209.3150 60.9600 "/>
<path d="M222.8850 47.3900 L222.8850 60.5600 "/>
<path d="M209.3150 46.9900 A0.4000 0.4000 0.0 0 0 208.9150 47.3900"/>
<path d="M208.9150 60.5600 A0.4000 0.4000 0.0 0 0 209.3150 60.9600"/>
<path d="M222.8850 47.3900 A0.4000 0.4000 0.0 0 0 222.4850 46.9900"/>
<path d="M222.4850 60.9600 A0.4000 0.4000 0.0 0 0 222.8850 60.5600"/>
<path d="M215.9000 104.1400 L270.1100 104.1400 "/>
<path d="M270.1100 118.1100 L215.9000 118.1100 "/>
<path d="M270.5100 104.5400 L270.5100 117.7100 "/>
<path d="M270.5100 104.5400 A0.4000 0.4000 0.0 0 0 270.1100 104.1400"/>
<path d="M270.1100 118.1100 A0.4000 0.4000 0.0 0 0 270.5100 117.7100"/>
<path d="M94.6150 60.5600 L94.6150 47.3900 "/>
<path d="M95.0150 46.9900 L108.1850 46.9900 "/>
<path d="M108.1850 60.9600 L95.0150 60.9600 "/>
<path d="M108.5850 47.3900 L108.5850 60.5600 "/>
<path d="M95.0150 46.9900 A0.4000 0.4000 0.0 0 0 94.6150 47.3900"/>
<path d="M94.6150 60.5600 A0.4000 0.4000 0.0 0 0 95.0150 60.9600"/>
<path d="M108.5850 47.3900 A0.4000 0.4000 0.0 0 0 108.1850 46.9900"/>
<path d="M108.1850 60.9600 A0.4000 0.4000 0.0 0 0 108.5850 60.5600"/>
<path d="M118.4280 79.6100 L118.4280 66.4400 "/>
<path d="M118.8280 66.0400 L131.9980 66.0400 "/>
<path d="M131.9980 80.0100 L118.8280 80.0100 "/>
<path d="M132.3980 66.4400 L132.3980 79.6100 "/>
<path d="M118.8280 66.0400 A0.4000 0.4000 0.0 0 0 118.4280 66.4400"/>
<path d="M118.4280 79.6100 A0.4000 0.4000 0.0 0 0 118.8280 80.0100"/>
<path d="M132.3980 66.4400 A0.4000 0.4000 0.0 0 0 131.9980 66.0400"/>
<path d="M131.9980 80.0100 A0.4000 0.4000 0.0 0 0 132.3980 79.6100"/>
<path d="M180.3400 98.6600 L180.3400 85.4900 "/>
<path d="M180.7400 85.0900 L193.9100 85.0900 "/>
<path d="M193.9100 99.0600 L180.7400 99.0600 "/>
<path d="M194.3100 85.4900 L194.3100 98.6600 "/>
<path d="M180.7400 85.0900 A0.4000 0.4000 0.0 0 0 180.3400 85.4900"/>
<path d="M180.3400 98.6600 A0.4000 0.4000 0.0 0 0 180.7400 99.0600"/>
<path d="M194.3100 85.4900 A0.4000 0.4000 0.0 0 0 193.9100 85.0900"/>
<path d="M193.9100 99.0600 A0.4000 0.4000 0.0 0 0 194.3100 98.6600"/>
<path d="M113.6650 60.5600 L113.6650 47.3900 "/>
<path d="M114.0650 46.9900 L127.2350 46.9900 "/>
<path d="M127.2350 60.9600 L114.0650 60.9600 "/>
<path d="M127.6350 47.3900 L127.6350 60.5600 "/>
<path d="M114.0650 46.9900 A0.4000 0.4000 0.0 0 0 113.6650 47.3900"/>
<path d="M113.6650 60.5600 A0.4000 0.4000 0.0 0 0 114.0650 60.9600"/>
<path d="M127.6350 47.3900 A0.4000 0.4000 0.0 0 0 127.2350 46.9900"/>
<path d="M127.2350 60.9600 A0.4000 0.4000 0.0 0 0 127.6350 60.5600"/>
<path d="M35.0690 66.5250 L35.0690 79.5250 "/>
<path d="M35.5690 80.0250 L48.5690 80.0250 "/>
<path d="M48.5690 66.0250 L35.5690 66.0250 "/>
<path d="M49.0690 79.5250 L49.0690 66.5250 "/>
<path d="M35.5690 66.0250 A0.5000 0.5000 0.0 0 0 35.0690 66.5250"/>
<path d="M35.0718 79.5239 A0.5000 0.5000 0.0 0 0 35.5718 80.0239"/>
<path d="M49.0690 66.5250 A0.5000 0.5000 0.0 0 0 48.5690 66.0250"/>
<path d="M48.5690 80.0250 A0.5000 0.5000 0.0 0 0 49.0690 79.5250"/>
<path d="M46.9900 41.5100 L46.9900 28.3400 "/>
<path d="M47.3900 27.9400 L60.5600 27.9400 "/>
<path d="M60.5600 41.9100 L47.3900 41.9100 "/>
<path d="M60.9600 28.3400 L60.9600 41.5100 "/>
<path d="M47.3900 27.9400 A0.4000 0.4000 0.0 0 0 46.9900 28.3400"/>
<path d="M46.9900 41.5100 A0.4000 0.4000 0.0 0 0 47.3900 41.9100"/>
<path d="M60.9600 28.3400 A0.4000 0.4000 0.0 0 0 60.5600 27.9400"/>
<path d="M60.5600 41.9100 A0.4000 0.4000 0.0 0 0 60.9600 41.5100"/>
<path d="M194.6280 79.6100 L194.6280 66.4400 "/>
<path d="M195.0280 66.0400 L208.1980 66.0400 "/>
<path d="M208.1980 80.0100 L195.0280 80.0100 "/>
<path d="M208.5980 66.4400 L208.5980 79.6100 "/>
<path d="M195.0280 66.0400 A0.4000 0.4000 0.0 0 0 194.6280 66.4400"/>
<path d="M194.6280 79.6100 A0.4000 0.4000 0.0 0 0 195.0280 80.0100"/>
<path d="M208.5980 66.4400 A0.4000 0.4000 0.0 0 0 208.1980 66.0400"/>
<path d="M208.1980 80.0100 A0.4000 0.4000 0.0 0 0 208.5980 79.6100"/>
<path d="M27.9400 41.5100 L27.9400 28.3400 "/>
<path d="M28.3400 27.9400 L41.5100 27.9400 "/>
<path d="M41.5100 41.9100 L28.3400 41.9100 "/>
<path d="M41.9100 28.3400 L41.9100 41.5100 "/>
<path d="M28.3400 27.9400 A0.4000 0.4000 0.0 0 0 27.9400 28.3400"/>
<path d="M27.9400 41.5100 A0.4000 0.4000 0.0 0 0 28.3400 41.9100"/>
<path d="M41.9100 28.3400 A0.4000 0.4000 0.0 0 0 41.5100 27.9400"/>
<path d="M41.5100 41.9100 A0.4000 0.4000 0.0 0 0 41.9100 41.5100"/>
<path d="M175.5780 79.6100 L175.5780 66.4400 "/>
<path d="M175.9780 66.0400 L189.1480 66.0400 "/>
<path d="M189.1480 80.0100 L175.9780 80.0100 "/>
<path d="M189.5480 66.4400 L189.5480 79.6100 "/>
<path d="M175.9780 66.0400 A0.4000 0.4000 0.0 0 0 175.5780 66.4400"/>
<path d="M175.5780 79.6100 A0.4000 0.4000 0.0 0 0 175.9780 80.0100"/>
<path d="M189.5480 66.4400 A0.4000 0.4000 0.0 0 0 189.1480 66.0400"/>
<path d="M189.1480 80.0100 A0.4000 0.4000 0.0 0 0 189.5480 79.6100"/>
<path d="M123.1900 41.5100 L123.1900 28.3400 "/>
<path d="M123.5900 27.9400 L136.7600 27.9400 "/>
<path d="M136.7600 41.9100 L123.5900 41.9100 "/>
<path d="M137.1600 28.3400 L137.1600 41.5100 "/>
<path d="M123.5900 27.9400 A0.4000 0.4000 0.0 0 0 123.1900 28.3400"/>
<path d="M123.1900 41.5100 A0.4000 0.4000 0.0 0 0 123.5900 41.9100"/>
<path d="M137.1600 28.3400 A0.4000 0.4000 0.0 0 0 136.7600 27.9400"/>
<path d="M136.7600 41.9100 A0.4000 0.4000 0.0 0 0 137.1600 41.5100"/>
<path d="M218.4400 98.6600 L218.4400 85.4900 "/>
<path d="M218.8400 85.0900 L232.0100 85.0900 "/>
<path d="M232.0100 99.0600 L218.8400 99.0600 "/>
<path d="M232.4100 85.4900 L232.4100 98.6600 "/>
<path d="M218.8400 85.0900 A0.4000 0.4000 0.0 0 0 218.4400 85.4900"/>
<path d="M218.4400 98.6600 A0.4000 0.4000 0.0 0 0 218.8400 99.0600"/>
<path d="M232.4100 85.4900 A0.4000 0.4000 0.0 0 0 232.0100 85.0900"/>
<path d="M232.0100 99.0600 A0.4000 0.4000 0.0 0 0 232.4100 98.6600"/>
<path d="M66.0400 41.5100 L66.0400 28.3400 "/>
<path d="M66.4400 27.9400 L79.6100 27.9400 "/>
<path d="M79.6100 41.9100 L66.4400 41.9100 "/>
<path d="M80.0100 28.3400 L80.0100 41.5100 "/>
<path d="M66.4400 27.9400 A0.4000 0.4000 0.0 0 0 66.0400 28.3400"/>
<path d="M66.0400 41.5100 A0.4000 0.4000 0.0 0 0 66.4400 41.9100"/>
<path d="M80.0100 28.3400 A0.4000 0.4000 0.0 0 0 79.6100 27.9400"/>
<path d="M79.6100 41.9100 A0.4000 0.4000 0.0 0 0 80.0100 41.5100"/>
<path d="M156.5280 79.6100 L156.5280 66.4400 "/>
<path d="M156.9280 66.0400 L170.0980 66.0400 "/>
<path d="M170.0980 80.0100 L156.9280 80.0100 "/>
<path d="M170.4980 66.4400 L170.4980 79.6100 "/>
<path d="M156.9280 66.0400 A0.4000 0.4000 0.0 0 0 156.5280 66.4400"/>
<path d="M156.5280 79.6100 A0.4000 0.4000 0.0 0 0 156.9280 80.0100"/>
<path d="M170.4980 66.4400 A0.4000 0.4000 0.0 0 0 170.0980 66.0400"/>
<path d="M170.0980 80.0100 A0.4000 0.4000 0.0 0 0 170.4980 79.6100"/>
<path d="M232.7277 66.4400 L232.7277 79.6100 "/>
<path d="M233.1277 80.0100 L267.7290 80.0100 "/>
<path d="M235.8190 66.0400 L233.1277 66.0400 "/>
<path d="M236.2190 64.4250 L236.2190 65.6400 "/>
<path d="M242.8190 64.0250 L236.6190 64.0250 "/>
<path d="M243.2190 65.6400 L243.2190 64.4250 "/>
<path d="M259.6190 66.0400 L243.6190 66.0400 "/>
<path d="M260.0190 64.4250 L260.0190 65.6400 "/>
<path d="M266.6190 64.0250 L260.4190 64.0250 "/>
<path d="M267.0190 65.6400 L267.0190 64.4250 "/>
<path d="M267.7290 66.0400 L267.4190 66.0400 "/>
<path d="M268.1290 79.6100 L268.1290 66.4400 "/>
<path d="M233.1277 66.0401 A0.3999 0.3999 0.0 0 0 232.7277 66.4400"/>
<path d="M232.7277 79.6100 A0.4000 0.4000 0.0 0 0 233.1277 80.0100"/>
<path d="M236.6190 64.0250 A0.4000 0.4000 0.0 0 0 236.2190 64.4250"/>
<path d="M235.8190 66.0400 A0.4000 0.4000 0.0 0 0 236.2190 65.6400"/>
<path d="M243.2190 64.4250 A0.4000 0.4000 0.0 0 0 242.8190 64.0250"/>
<path d="M243.2190 65.6400 A0.4000 0.4000 0.0 0 0 243.6190 66.0400"/>
<path d="M260.4190 64.0250 A0.4000 0.4000 0.0 0 0 260.0190 64.4250"/>
<path d="M259.6190 66.0400 A0.4000 0.4000 0.0 0 0 260.0190 65.6400"/>
<path d="M267.0190 64.4250 A0.4000 0.4000 0.0 0 0 266.6190 64.0250"/>
<path d="M267.0190 65.6400 A0.4000 0.4000 0.0 0 0 267.4190 66.0400"/>
<path d="M268.1290 66.4400 A0.4000 0.4000 0.0 0 0 267.7290 66.0400"/>
<path d="M267.7290 80.0100 A0.4000 0.4000 0.0 0 0 268.1290 79.6100"/>
<path d="M218.4400 41.5100 L218.4400 28.3400 "/>
<path d="M218.8400 27.9400 L232.0100 27.9400 "/>
<path d="M232.0100 41.9100 L218.8400 41.9100 "/>
<path d="M232.4100 28.3400 L232.4100 41.5100 "/>
<path d="M218.8400 27.9400 A0.4000 0.4000 0.0 0 0 218.4400 28.3400"/>
<path d="M218.4400 41.5100 A0.4000 0.4000 0.0 0 0 218.8400 41.9100"/>
<path d="M232.4100 28.3400 A0.4000 0.4000 0.0 0 0 232.0100 27.9400"/>
<path d="M232.0100 41.9100 A0.4000 0.4000 0.0 0 0 232.4100 41.5100"/>
<path d="M227.9650 60.5600 L227.9650 47.3900 "/>
<path d="M228.3650 46.9900 L241.5350 46.9900 "/>
<path d="M241.5350 60.9600 L228.3650 60.9600 "/>
<path d="M241.9350 47.3900 L241.9350 60.5600 "/>
<path d="M228.3650 46.9900 A0.4000 0.4000 0.0 0 0 227.9650 47.3900"/>
<path d="M227.9650 60.5600 A0.4000 0.4000 0.0 0 0 228.3650 60.9600"/>
<path d="M241.9350 47.3900 A0.4000 0.4000 0.0 0 0 241.5350 46.9900"/>
<path d="M241.5350 60.9600 A0.4000 0.4000 0.0 0 0 241.9350 60.5600"/>
<path d="M137.4780 79.6100 L137.4780 66.4400 "/>
<path d="M137.8780 66.0400 L151.0480 66.0400 "/>
<path d="M151.0480 80.0100 L137.8780 80.0100 "/>
<path d="M151.4480 66.4400 L151.4480 79.6100 "/>
<path d="M137.8780 66.0400 A0.4000 0.4000 0.0 0 0 137.4780 66.4400"/>
<path d="M137.4780 79.6100 A0.4000 0.4000 0.0 0 0 137.8780 80.0100"/>
<path d="M151.4480 66.4400 A0.4000 0.4000 0.0 0 0 151.0480 66.0400"/>
<path d="M151.0480 80.0100 A0.4000 0.4000 0.0 0 0 151.4480 79.6100"/>
</g> 
</g><g id="substrate-outline" style="fill:#000000; stroke:#000000; stroke-width: 0.15"><g style="fill: none;stroke: #000000;stroke-width: #000000;stroke-opacity: 1;stroke-linecap: round;stroke-linejoin: round">
<path d="M272.5500 61.5000 A0.5000 0.5000 0.0 0 0 273.0500 61.0000"/>
<path d="M25.9000 103.6000 A0.5000 0.5000 0.0 0 0 25.4000 104.1000"/>
<path d="M28.4000 25.4000 A3.0000 3.0000 0.0 0 0 25.4000 28.4000"/>
<path d="M25.9000 103.6000 L26.9000 103.6000 "/>
<path d="M270.0500 120.6500 L28.4000 120.6500 "/>
<path d="M270.0500 61.5000 A2.0000 2.0000 0.0 0 0 270.0500 65.5000"/>
<path d="M270.0500 120.6500 A3.0000 3.0000 0.0 0 0 273.0500 117.6500"/>
<path d="M25.4000 104.1000 L25.4000 117.6500 "/>
<path d="M270.0500 61.5000 L272.5500 61.5000 "/>
<path d="M26.9000 103.6000 A2.0000 2.0000 0.0 0 0 26.9000 99.6000"/>
<path d="M270.0500 65.5000 L272.5500 65.5000 "/>
<path d="M25.4000 117.6500 A3.0000 3.0000 0.0 0 0 28.4000 120.6500"/>
<path d="M25.9000 99.6000 L26.9000 99.6000 "/>
<path d="M273.0500 28.4000 A3.0000 3.0000 0.0 0 0 270.0500 25.4000"/>
<path d="M25.4000 99.1000 A0.5000 0.5000 0.0 0 0 25.9000 99.6000"/>
<path d="M273.0500 66.0000 A0.5000 0.5000 0.0 0 0 272.5500 65.5000"/>
<path d="M273.0500 28.4000 L273.0500 61.0000 "/>
<path d="M28.4000 25.4000 L270.0500 25.4000 "/>
<path d="M273.0500 66.0000 L273.0500 117.6500 "/>
<path d="M25.4000 99.1000 L25.4000 28.4000 "/>
<path d="M104.1400 41.5100 L104.1400 28.3400 "/>
<path d="M104.5400 27.9400 L117.7100 27.9400 "/>
<path d="M117.7100 41.9100 L104.5400 41.9100 "/>
<path d="M118.1100 28.3400 L118.1100 41.5100 "/>
<path d="M104.5400 27.9400 A0.4000 0.4000 0.0 0 0 104.1400 28.3400"/>
<path d="M104.1400 41.5100 A0.4000 0.4000 0.0 0 0 104.5400 41.9100"/>
<path d="M118.1100 28.3400 A0.4000 0.4000 0.0 0 0 117.7100 27.9400"/>
<path d="M117.7100 41.9100 A0.4000 0.4000 0.0 0 0 118.1100 41.5100"/>
<path d="M56.5150 60.5600 L56.5150 47.3900 "/>
<path d="M56.9150 46.9900 L70.0850 46.9900 "/>
<path d="M70.0850 60.9600 L56.9150 60.9600 "/>
<path d="M70.4850 47.3900 L70.4850 60.5600 "/>
<path d="M56.9150 46.9900 A0.4000 0.4000 0.0 0 0 56.5150 47.3900"/>
<path d="M56.5150 60.5600 A0.4000 0.4000 0.0 0 0 56.9150 60.9600"/>
<path d="M70.4850 47.3900 A0.4000 0.4000 0.0 0 0 70.0850 46.9900"/>
<path d="M70.0850 60.9600 A0.4000 0.4000 0.0 0 0 70.4850 60.5600"/>
<path d="M75.5650 60.5600 L75.5650 47.3900 "/>
<path d="M75.9650 46.9900 L89.1350 46.9900 "/>
<path d="M89.1350 60.9600 L75.9650 60.9600 "/>
<path d="M89.5350 47.3900 L89.5350 60.5600 "/>
<path d="M75.9650 46.9900 A0.4000 0.4000 0.0 0 0 75.5650 47.3900"/>
<path d="M75.5650 60.5600 A0.4000 0.4000 0.0 0 0 75.9650 60.9600"/>
<path d="M89.5350 47.3900 A0.4000 0.4000 0.0 0 0 89.1350 46.9900"/>
<path d="M89.1350 60.9600 A0.4000 0.4000 0.0 0 0 89.5350 60.5600"/>
<path d="M189.8650 60.5600 L189.8650 47.3900 "/>
<path d="M190.2650 46.9900 L203.4350 46.9900 "/>
<path d="M203.4350 60.9600 L190.2650 60.9600 "/>
<path d="M203.8350 47.3900 L203.8350 60.5600 "/>
<path d="M190.2650 46.9900 A0.4000 0.4000 0.0 0 0 189.8650 47.3900"/>
<path d="M189.8650 60.5600 A0.4000 0.4000 0.0 0 0 190.2650 60.9600"/>
<path d="M203.8350 47.3900 A0.4000 0.4000 0.0 0 0 203.4350 46.9900"/>
<path d="M203.4350 60.9600 A0.4000 0.4000 0.0 0 0 203.8350 60.5600"/>
<path d="M180.3400 41.5100 L180.3400 28.3400 "/>
<path d="M180.7400 27.9400 L193.9100 27.9400 "/>
<path d="M193.9100 41.9100 L180.7400 41.9100 "/>
<path d="M194.3100 28.3400 L194.3100 41.5100 "/>
<path d="M180.7400 27.9400 A0.4000 0.4000 0.0 0 0 180.3400 28.3400"/>
<path d="M180.3400 41.5100 A0.4000 0.4000 0.0 0 0 180.7400 41.9100"/>
<path d="M194.3100 28.3400 A0.4000 0.4000 0.0 0 0 193.9100 27.9400"/>
<path d="M193.9100 41.9100 A0.4000 0.4000 0.0 0 0 194.3100 41.5100"/>
<path d="M61.2780 79.6100 L61.2780 66.4400 "/>
<path d="M61.6780 66.0400 L74.8480 66.0400 "/>
<path d="M74.8480 80.0100 L61.6780 80.0100 "/>
<path d="M75.2480 66.4400 L75.2480 79.6100 "/>
<path d="M61.6780 66.0400 A0.4000 0.4000 0.0 0 0 61.2780 66.4400"/>
<path d="M61.2780 79.6100 A0.4000 0.4000 0.0 0 0 61.6780 80.0100"/>
<path d="M75.2480 66.4400 A0.4000 0.4000 0.0 0 0 74.8480 66.0400"/>
<path d="M74.8480 80.0100 A0.4000 0.4000 0.0 0 0 75.2480 79.6100"/>
<path d="M237.5150 41.5100 L237.5150 28.3400 "/>
<path d="M237.9150 27.9400 L270.0850 27.9400 "/>
<path d="M238.4000 41.9100 L237.9150 41.9100 "/>
<path d="M238.6000 42.1100 L238.6000 43.5250 "/>
<path d="M239.0000 43.9250 L245.2000 43.9250 "/>
<path d="M245.6000 42.1100 L245.6000 43.5250 "/>
<path d="M262.2000 41.9100 L245.8000 41.9100 "/>
<path d="M262.4000 42.1100 L262.4000 43.5250 "/>
<path d="M269.0000 43.9250 L262.8000 43.9250 "/>
<path d="M269.4000 42.1100 L269.4000 43.5250 "/>
<path d="M269.6000 41.9100 L270.0850 41.9100 "/>
<path d="M270.4850 28.3400 L270.4850 41.5100 "/>
<path d="M237.9150 27.9400 A0.4000 0.4000 0.0 0 0 237.5150 28.3400"/>
<path d="M237.5150 41.5100 A0.4000 0.4000 0.0 0 0 237.9150 41.9100"/>
<path d="M238.6000 42.1100 A0.2000 0.2000 0.0 0 0 238.4000 41.9100"/>
<path d="M238.6000 43.5250 A0.4000 0.4000 0.0 0 0 239.0000 43.9250"/>
<path d="M245.8000 41.9100 A0.2000 0.2000 0.0 0 0 245.6000 42.1100"/>
<path d="M245.2000 43.9250 A0.4000 0.4000 0.0 0 0 245.6000 43.5250"/>
<path d="M262.4000 42.1100 A0.2000 0.2000 0.0 0 0 262.2000 41.9100"/>
<path d="M262.4000 43.5250 A0.4000 0.4000 0.0 0 0 262.8000 43.9250"/>
<path d="M269.6000 41.9100 A0.2000 0.2000 0.0 0 0 269.4000 42.1100"/>
<path d="M269.0000 43.9250 A0.4000 0.4000 0.0 0 0 269.4000 43.5250"/>
<path d="M270.4850 28.3400 A0.4000 0.4000 0.0 0 0 270.0850 27.9400"/>
<path d="M270.0850 41.9100 A0.4000 0.4000 0.0 0 0 270.4850 41.5100"/>
<path d="M161.2900 41.5100 L161.2900 28.3400 "/>
<path d="M161.6900 27.9400 L174.8600 27.9400 "/>
<path d="M174.8600 41.9100 L161.6900 41.9100 "/>
<path d="M175.2600 28.3400 L175.2600 41.5100 "/>
<path d="M161.6900 27.9400 A0.4000 0.4000 0.0 0 0 161.2900 28.3400"/>
<path d="M161.2900 41.5100 A0.4000 0.4000 0.0 0 0 161.6900 41.9100"/>
<path d="M175.2600 28.3400 A0.4000 0.4000 0.0 0 0 174.8600 27.9400"/>
<path d="M174.8600 41.9100 A0.4000 0.4000 0.0 0 0 175.2600 41.5100"/>
<path d="M151.7650 60.5600 L151.7650 47.3900 "/>
<path d="M152.1650 46.9900 L165.3350 46.9900 "/>
<path d="M165.3350 60.9600 L152.1650 60.9600 "/>
<path d="M165.7350 47.3900 L165.7350 60.5600 "/>
<path d="M152.1650 46.9900 A0.4000 0.4000 0.0 0 0 151.7650 47.3900"/>
<path d="M151.7650 60.5600 A0.4000 0.4000 0.0 0 0 152.1650 60.9600"/>
<path d="M165.7350 47.3900 A0.4000 0.4000 0.0 0 0 165.3350 46.9900"/>
<path d="M165.3350 60.9600 A0.4000 0.4000 0.0 0 0 165.7350 60.5600"/>
<path d="M199.3900 41.5100 L199.3900 28.3400 "/>
<path d="M199.7900 27.9400 L212.9600 27.9400 "/>
<path d="M212.9600 41.9100 L199.7900 41.9100 "/>
<path d="M213.3600 28.3400 L213.3600 41.5100 "/>
<path d="M199.7900 27.9400 A0.4000 0.4000 0.0 0 0 199.3900 28.3400"/>
<path d="M199.3900 41.5100 A0.4000 0.4000 0.0 0 0 199.7900 41.9100"/>
<path d="M213.3600 28.3400 A0.4000 0.4000 0.0 0 0 212.9600 27.9400"/>
<path d="M212.9600 41.9100 A0.4000 0.4000 0.0 0 0 213.3600 41.5100"/>
<path d="M132.7150 60.5600 L132.7150 47.3900 "/>
<path d="M133.1150 46.9900 L146.2850 46.9900 "/>
<path d="M146.2850 60.9600 L133.1150 60.9600 "/>
<path d="M146.6850 47.3900 L146.6850 60.5600 "/>
<path d="M133.1150 46.9900 A0.4000 0.4000 0.0 0 0 132.7150 47.3900"/>
<path d="M132.7150 60.5600 A0.4000 0.4000 0.0 0 0 133.1150 60.9600"/>
<path d="M146.6850 47.3900 A0.4000 0.4000 0.0 0 0 146.2850 46.9900"/>
<path d="M146.2850 60.9600 A0.4000 0.4000 0.0 0 0 146.6850 60.5600"/>
<path d="M27.9400 117.7100 L27.9400 104.5400 "/>
<path d="M28.3400 104.1400 L98.6600 104.1400 "/>
<path d="M98.6600 118.1100 L28.3400 118.1100 "/>
<path d="M99.0600 104.5400 L99.0600 117.7100 "/>
<path d="M28.3400 104.1400 A0.4000 0.4000 0.0 0 0 27.9400 104.5400"/>
<path d="M27.9400 117.7100 A0.4000 0.4000 0.0 0 0 28.3400 118.1100"/>
<path d="M99.0600 104.5400 A0.4000 0.4000 0.0 0 0 98.6600 104.1400"/>
<path d="M98.6600 118.1100 A0.4000 0.4000 0.0 0 0 99.0600 117.7100"/>
<path d="M32.6870 47.4750 L32.6870 60.4750 "/>
<path d="M33.1870 60.9750 L46.1870 60.9750 "/>
<path d="M46.1870 46.9750 L33.1870 46.9750 "/>
<path d="M46.6870 60.4750 L46.6870 47.4750 "/>
<path d="M33.1870 46.9750 A0.5000 0.5000 0.0 0 0 32.6870 47.4750"/>
<path d="M32.6898 60.4739 A0.5000 0.5000 0.0 0 0 33.1898 60.9739"/>
<path d="M46.6870 47.4750 A0.5000 0.5000 0.0 0 0 46.1870 46.9750"/>
<path d="M46.1870 60.9750 A0.5000 0.5000 0.0 0 0 46.6870 60.4750"/>
<path d="M237.5150 98.6600 L237.5150 85.4900 "/>
<path d="M238.4000 85.0900 L237.9150 85.0900 "/>
<path d="M238.6000 84.8900 L238.6000 83.4750 "/>
<path d="M239.0000 83.0750 L245.2000 83.0750 "/>
<path d="M245.6000 84.8900 L245.6000 83.4750 "/>
<path d="M245.8000 85.0900 L262.2000 85.0900 "/>
<path d="M262.4000 84.8900 L262.4000 83.4750 "/>
<path d="M269.0000 83.0750 L262.8000 83.0750 "/>
<path d="M269.4000 84.8900 L269.4000 83.4750 "/>
<path d="M269.6000 85.0900 L270.0850 85.0900 "/>
<path d="M270.0850 99.0600 L237.9150 99.0600 "/>
<path d="M270.4850 85.4900 L270.4850 98.6600 "/>
<path d="M237.9150 85.0900 A0.4000 0.4000 0.0 0 0 237.5150 85.4900"/>
<path d="M237.5150 98.6600 A0.4000 0.4000 0.0 0 0 237.9150 99.0600"/>
<path d="M239.0000 83.0750 A0.4000 0.4000 0.0 0 0 238.6000 83.4750"/>
<path d="M238.4000 85.0900 A0.2000 0.2000 0.0 0 0 238.6000 84.8900"/>
<path d="M245.6000 83.4750 A0.4000 0.4000 0.0 0 0 245.2000 83.0750"/>
<path d="M245.6000 84.8900 A0.2000 0.2000 0.0 0 0 245.8000 85.0900"/>
<path d="M262.8000 83.0750 A0.4000 0.4000 0.0 0 0 262.4000 83.4750"/>
<path d="M262.2000 85.0900 A0.2000 0.2000 0.0 0 0 262.4000 84.8900"/>
<path d="M269.4000 83.4750 A0.4000 0.4000 0.0 0 0 269.0000 83.0750"/>
<path d="M269.4000 84.8900 A0.2000 0.2000 0.0 0 0 269.6000 85.0900"/>
<path d="M270.4850 85.4900 A0.4000 0.4000 0.0 0 0 270.0850 85.0900"/>
<path d="M270.0850 99.0600 A0.4000 0.4000 0.0 0 0 270.4850 98.6600"/>
<path d="M142.2400 98.6600 L142.2400 85.4900 "/>
<path d="M142.6400 85.0900 L155.8100 85.0900 "/>
<path d="M155.8100 99.0600 L142.6400 99.0600 "/>
<path d="M156.2100 85.4900 L156.2100 98.6600 "/>
<path d="M142.6400 85.0900 A0.4000 0.4000 0.0 0 0 142.2400 85.4900"/>
<path d="M142.2400 98.6600 A0.4000 0.4000 0.0 0 0 142.6400 99.0600"/>
<path d="M156.2100 85.4900 A0.4000 0.4000 0.0 0 0 155.8100 85.0900"/>
<path d="M155.8100 99.0600 A0.4000 0.4000 0.0 0 0 156.2100 98.6600"/>
<path d="M80.3280 79.6100 L80.3280 66.4400 "/>
<path d="M80.7280 66.0400 L93.8980 66.0400 "/>
<path d="M93.8980 80.0100 L80.7280 80.0100 "/>
<path d="M94.2980 66.4400 L94.2980 79.6100 "/>
<path d="M80.7280 66.0400 A0.4000 0.4000 0.0 0 0 80.3280 66.4400"/>
<path d="M80.3280 79.6100 A0.4000 0.4000 0.0 0 0 80.7280 80.0100"/>
<path d="M94.2980 66.4400 A0.4000 0.4000 0.0 0 0 93.8980 66.0400"/>
<path d="M93.8980 80.0100 A0.4000 0.4000 0.0 0 0 94.2980 79.6100"/>
<path d="M123.1900 98.6600 L123.1900 85.4900 "/>
<path d="M123.5900 85.0900 L136.7600 85.0900 "/>
<path d="M136.7600 99.0600 L123.5900 99.0600 "/>
<path d="M137.1600 85.4900 L137.1600 98.6600 "/>
<path d="M123.5900 85.0900 A0.4000 0.4000 0.0 0 0 123.1900 85.4900"/>
<path d="M123.1900 98.6600 A0.4000 0.4000 0.0 0 0 123.5900 99.0600"/>
<path d="M137.1600 85.4900 A0.4000 0.4000 0.0 0 0 136.7600 85.0900"/>
<path d="M136.7600 99.0600 A0.4000 0.4000 0.0 0 0 137.1600 98.6600"/>
<path d="M251.7620 47.4750 L251.7620 60.4750 "/>
<path d="M252.2620 60.9750 L265.2620 60.9750 "/>
<path d="M265.2620 46.9750 L252.2620 46.9750 "/>
<path d="M265.7620 60.4750 L265.7620 47.4750 "/>
<path d="M252.2620 46.9750 A0.5000 0.5000 0.0 0 0 251.7620 47.4750"/>
<path d="M251.7648 60.4739 A0.5000 0.5000 0.0 0 0 252.2648 60.9739"/>
<path d="M265.7620 47.4750 A0.5000 0.5000 0.0 0 0 265.2620 46.9750"/>
<path d="M265.2620 60.9750 A0.5000 0.5000 0.0 0 0 265.7620 60.4750"/>
<path d="M66.0400 98.6600 L66.0400 85.4900 "/>
<path d="M66.4400 85.0900 L79.6100 85.0900 "/>
<path d="M79.6100 99.0600 L66.4400 99.0600 "/>
<path d="M80.0100 85.4900 L80.0100 98.6600 "/>
<path d="M66.4400 85.0900 A0.4000 0.4000 0.0 0 0 66.0400 85.4900"/>
<path d="M66.0400 98.6600 A0.4000 0.4000 0.0 0 0 66.4400 99.0600"/>
<path d="M80.0100 85.4900 A0.4000 0.4000 0.0 0 0 79.6100 85.0900"/>
<path d="M79.6100 99.0600 A0.4000 0.4000 0.0 0 0 80.0100 98.6600"/>
<path d="M99.3780 79.6100 L99.3780 66.4400 "/>
<path d="M99.7780 66.0400 L112.9480 66.0400 "/>
<path d="M112.9480 80.0100 L99.7780 80.0100 "/>
<path d="M113.3480 66.4400 L113.3480 79.6100 "/>
<path d="M99.7780 66.0400 A0.4000 0.4000 0.0 0 0 99.3780 66.4400"/>
<path d="M99.3780 79.6100 A0.4000 0.4000 0.0 0 0 99.7780 80.0100"/>
<path d="M113.3480 66.4400 A0.4000 0.4000 0.0 0 0 112.9480 66.0400"/>
<path d="M112.9480 80.0100 A0.4000 0.4000 0.0 0 0 113.3480 79.6100"/>
<path d="M199.3900 98.6600 L199.3900 85.4900 "/>
<path d="M199.7900 85.0900 L212.9600 85.0900 "/>
<path d="M212.9600 99.0600 L199.7900 99.0600 "/>
<path d="M213.3600 85.4900 L213.3600 98.6600 "/>
<path d="M199.7900 85.0900 A0.4000 0.4000 0.0 0 0 199.3900 85.4900"/>
<path d="M199.3900 98.6600 A0.4000 0.4000 0.0 0 0 199.7900 99.0600"/>
<path d="M213.3600 85.4900 A0.4000 0.4000 0.0 0 0 212.9600 85.0900"/>
<path d="M212.9600 99.0600 A0.4000 0.4000 0.0 0 0 213.3600 98.6600"/>
<path d="M161.2900 98.6600 L161.2900 85.4900 "/>
<path d="M161.6900 85.0900 L174.8600 85.0900 "/>
<path d="M174.8600 99.0600 L161.6900 99.0600 "/>
<path d="M175.2600 85.4900 L175.2600 98.6600 "/>
<path d="M161.6900 85.0900 A0.4000 0.4000 0.0 0 0 161.2900 85.4900"/>
<path d="M161.2900 98.6600 A0.4000 0.4000 0.0 0 0 161.6900 99.0600"/>
<path d="M175.2600 85.4900 A0.4000 0.4000 0.0 0 0 174.8600 85.0900"/>
<path d="M174.8600 99.0600 A0.4000 0.4000 0.0 0 0 175.2600 98.6600"/>
<path d="M213.6780 79.6100 L213.6780 66.4400 "/>
<path d="M214.0780 66.0400 L227.2480 66.0400 "/>
<path d="M227.2480 80.0100 L214.0780 80.0100 "/>
<path d="M227.6480 66.4400 L227.6480 79.6100 "/>
<path d="M214.0780 66.0400 A0.4000 0.4000 0.0 0 0 213.6780 66.4400"/>
<path d="M213.6780 79.6100 A0.4000 0.4000 0.0 0 0 214.0780 80.0100"/>
<path d="M227.6480 66.4400 A0.4000 0.4000 0.0 0 0 227.2480 66.0400"/>
<path d="M227.2480 80.0100 A0.4000 0.4000 0.0 0 0 227.6480 79.6100"/>
<path d="M142.2400 41.5100 L142.2400 28.3400 "/>
<path d="M142.6400 27.9400 L155.8100 27.9400 "/>
<path d="M155.8100 41.9100 L142.6400 41.9100 "/>
<path d="M156.2100 28.3400 L156.2100 41.5100 "/>
<path d="M142.6400 27.9400 A0.4000 0.4000 0.0 0 0 142.2400 28.3400"/>
<path d="M142.2400 41.5100 A0.4000 0.4000 0.0 0 0 142.6400 41.9100"/>
<path d="M156.2100 28.3400 A0.4000 0.4000 0.0 0 0 155.8100 27.9400"/>
<path d="M155.8100 41.9100 A0.4000 0.4000 0.0 0 0 156.2100 41.5100"/>
<path d="M107.6495 102.5250 L107.6495 116.7250 "/>
<path d="M108.0495 117.1250 L118.9552 117.1250 "/>
<path d="M118.9552 102.1250 L108.0495 102.1250 "/>
<path d="M119.3552 116.7250 L119.3552 102.5250 "/>
<path d="M120.8083 104.5400 L120.8083 117.7100 "/>
<path d="M121.2082 118.1100 L134.3782 118.1100 "/>
<path d="M134.3782 104.1400 L121.2082 104.1400 "/>
<path d="M134.7782 117.7100 L134.7782 104.5400 "/>
<path d="M136.2312 102.5250 L136.2312 116.7250 "/>
<path d="M136.6312 117.1250 L142.8312 117.1250 "/>
<path d="M142.8312 102.1250 L136.6312 102.1250 "/>
<path d="M143.2312 116.7250 L143.2312 102.5250 "/>
<path d="M151.7645 104.5400 L151.7645 117.7100 "/>
<path d="M152.1645 118.1100 L166.5803 118.1100 "/>
<path d="M159.5803 104.1400 L152.1645 104.1400 "/>
<path d="M159.9802 102.5250 L159.9802 103.7400 "/>
<path d="M166.5803 102.1250 L160.3802 102.1250 "/>
<path d="M166.9802 117.7100 L166.9802 102.5250 "/>
<path d="M168.4332 104.5400 L168.4332 117.7100 "/>
<path d="M168.8332 118.1100 L182.0032 118.1100 "/>
<path d="M182.0032 104.1400 L168.8332 104.1400 "/>
<path d="M182.4032 117.7100 L182.4032 104.5400 "/>
<path d="M183.8562 102.5250 L183.8562 116.7250 "/>
<path d="M184.2562 117.1250 L190.4562 117.1250 "/>
<path d="M190.4562 102.1250 L184.2562 102.1250 "/>
<path d="M190.8562 116.7250 L190.8562 102.5250 "/>
<path d="M199.3895 104.5400 L199.3895 117.7100 "/>
<path d="M199.7895 118.1100 L215.8972 118.1100 "/>
<path d="M202.4495 104.1400 L199.7895 104.1400 "/>
<path d="M202.8495 102.5250 L202.8495 103.7400 "/>
<path d="M209.4495 102.1250 L203.2495 102.1250 "/>
<path d="M209.8495 103.7400 L209.8495 102.5250 "/>
<path d="M210.2495 104.1400 L215.8972 104.1400 "/>
<path d="M108.0495 102.1250 A0.4000 0.4000 0.0 0 0 107.6495 102.5250"/>
<path d="M107.6495 116.7250 A0.4000 0.4000 0.0 0 0 108.0495 117.1250"/>
<path d="M119.3553 102.5250 A0.4000 0.4000 0.0 0 0 118.9552 102.1250"/>
<path d="M118.9553 117.1249 A0.3999 0.3999 0.0 0 0 119.3552 116.7250"/>
<path d="M121.2082 104.1401 A0.3999 0.3999 0.0 0 0 120.8082 104.5400"/>
<path d="M120.8082 117.7100 A0.4000 0.4000 0.0 0 0 121.2082 118.1100"/>
<path d="M134.7783 104.5400 A0.4000 0.4000 0.0 0 0 134.3783 104.1400"/>
<path d="M134.3783 118.1099 A0.3999 0.3999 0.0 0 0 134.7782 117.7100"/>
<path d="M136.6312 102.1251 A0.3999 0.3999 0.0 0 0 136.2313 102.5250"/>
<path d="M136.2312 116.7250 A0.4000 0.4000 0.0 0 0 136.6312 117.1250"/>
<path d="M143.2313 102.5250 A0.4000 0.4000 0.0 0 0 142.8313 102.1250"/>
<path d="M142.8313 117.1249 A0.3999 0.3999 0.0 0 0 143.2312 116.7250"/>
<path d="M152.1645 104.1400 A0.4000 0.4000 0.0 0 0 151.7645 104.5400"/>
<path d="M151.7645 117.7100 A0.4000 0.4000 0.0 0 0 152.1645 118.1100"/>
<path d="M160.3802 102.1250 A0.4000 0.4000 0.0 0 0 159.9802 102.5250"/>
<path d="M159.5803 104.1400 A0.4000 0.4000 0.0 0 0 159.9803 103.7400"/>
<path d="M166.9802 102.5250 A0.3999 0.3999 0.0 0 0 166.5802 102.1250"/>
<path d="M166.5802 118.1100 A0.4000 0.4000 0.0 0 0 166.9802 117.7100"/>
<path d="M168.8332 104.1400 A0.4000 0.4000 0.0 0 0 168.4332 104.5400"/>
<path d="M168.4332 117.7100 A0.3999 0.3999 0.0 0 0 168.8332 118.1100"/>
<path d="M182.4032 104.5400 A0.3999 0.3999 0.0 0 0 182.0032 104.1400"/>
<path d="M182.0032 118.1100 A0.4000 0.4000 0.0 0 0 182.4032 117.7100"/>
<path d="M184.2562 102.1250 A0.4000 0.4000 0.0 0 0 183.8562 102.5250"/>
<path d="M183.8562 116.7250 A0.3999 0.3999 0.0 0 0 184.2562 117.1250"/>
<path d="M190.8562 102.5250 A0.3999 0.3999 0.0 0 0 190.4562 102.1250"/>
<path d="M190.4562 117.1250 A0.4000 0.4000 0.0 0 0 190.8562 116.7250"/>
<path d="M199.7895 104.1400 A0.4000 0.4000 0.0 0 0 199.3895 104.5400"/>
<path d="M199.3895 117.7100 A0.4000 0.4000 0.0 0 0 199.7895 118.1100"/>
<path d="M203.2495 102.1250 A0.4000 0.4000 0.0 0 0 202.8495 102.5250"/>
<path d="M202.4495 104.1400 A0.4000 0.4000 0.0 0 0 202.8495 103.7400"/>
<path d="M209.8495 102.5250 A0.4000 0.4000 0.0 0 0 209.4495 102.1250"/>
<path d="M209.8495 103.7400 A0.4000 0.4000 0.0 0 0 210.2495 104.1400"/>
<path d="M170.8150 60.5600 L170.8150 47.3900 "/>
<path d="M171.2150 46.9900 L184.3850 46.9900 "/>
<path d="M184.3850 60.9600 L171.2150 60.9600 "/>
<path d="M184.7850 47.3900 L184.7850 60.5600 "/>
<path d="M171.2150 46.9900 A0.4000 0.4000 0.0 0 0 170.8150 47.3900"/>
<path d="M170.8150 60.5600 A0.4000 0.4000 0.0 0 0 171.2150 60.9600"/>
<path d="M184.7850 47.3900 A0.4000 0.4000 0.0 0 0 184.3850 46.9900"/>
<path d="M184.3850 60.9600 A0.4000 0.4000 0.0 0 0 184.7850 60.5600"/>
<path d="M85.0900 98.6600 L85.0900 85.4900 "/>
<path d="M85.4900 85.0900 L98.6600 85.0900 "/>
<path d="M98.6600 99.0600 L85.4900 99.0600 "/>
<path d="M99.0600 85.4900 L99.0600 98.6600 "/>
<path d="M85.4900 85.0900 A0.4000 0.4000 0.0 0 0 85.0900 85.4900"/>
<path d="M85.0900 98.6600 A0.4000 0.4000 0.0 0 0 85.4900 99.0600"/>
<path d="M99.0600 85.4900 A0.4000 0.4000 0.0 0 0 98.6600 85.0900"/>
<path d="M98.6600 99.0600 A0.4000 0.4000 0.0 0 0 99.0600 98.6600"/>
<path d="M85.0900 41.5100 L85.0900 28.3400 "/>
<path d="M85.4900 27.9400 L98.6600 27.9400 "/>
<path d="M98.6600 41.9100 L85.4900 41.9100 "/>
<path d="M99.0600 28.3400 L99.0600 41.5100 "/>
<path d="M85.4900 27.9400 A0.4000 0.4000 0.0 0 0 85.0900 28.3400"/>
<path d="M85.0900 41.5100 A0.4000 0.4000 0.0 0 0 85.4900 41.9100"/>
<path d="M99.0600 28.3400 A0.4000 0.4000 0.0 0 0 98.6600 27.9400"/>
<path d="M98.6600 41.9100 A0.4000 0.4000 0.0 0 0 99.0600 41.5100"/>
<path d="M27.9650 98.6600 L27.9650 85.4900 "/>
<path d="M28.8500 85.0900 L28.3650 85.0900 "/>
<path d="M29.0500 84.8900 L29.0500 83.4750 "/>
<path d="M29.4500 83.0750 L35.6500 83.0750 "/>
<path d="M36.0500 84.8900 L36.0500 83.4750 "/>
<path d="M36.2500 85.0900 L52.6500 85.0900 "/>
<path d="M52.8500 84.8900 L52.8500 83.4750 "/>
<path d="M59.4500 83.0750 L53.2500 83.0750 "/>
<path d="M59.8500 84.8900 L59.8500 83.4750 "/>
<path d="M60.0500 85.0900 L60.5350 85.0900 "/>
<path d="M60.5350 99.0600 L28.3650 99.0600 "/>
<path d="M60.9350 85.4900 L60.9350 98.6600 "/>
<path d="M28.3650 85.0900 A0.4000 0.4000 0.0 0 0 27.9650 85.4900"/>
<path d="M27.9650 98.6600 A0.4000 0.4000 0.0 0 0 28.3650 99.0600"/>
<path d="M29.4500 83.0750 A0.4000 0.4000 0.0 0 0 29.0500 83.4750"/>
<path d="M28.8500 85.0900 A0.2000 0.2000 0.0 0 0 29.0500 84.8900"/>
<path d="M36.0500 83.4750 A0.4000 0.4000 0.0 0 0 35.6500 83.0750"/>
<path d="M36.0500 84.8900 A0.2000 0.2000 0.0 0 0 36.2500 85.0900"/>
<path d="M53.2500 83.0750 A0.4000 0.4000 0.0 0 0 52.8500 83.4750"/>
<path d="M52.6500 85.0900 A0.2000 0.2000 0.0 0 0 52.8500 84.8900"/>
<path d="M59.8500 83.4750 A0.4000 0.4000 0.0 0 0 59.4500 83.0750"/>
<path d="M59.8500 84.8900 A0.2000 0.2000 0.0 0 0 60.0500 85.0900"/>
<path d="M60.9350 85.4900 A0.4000 0.4000 0.0 0 0 60.5350 85.0900"/>
<path d="M60.5350 99.0600 A0.4000 0.4000 0.0 0 0 60.9350 98.6600"/>
<path d="M104.1400 98.6600 L104.1400 85.4900 "/>
<path d="M104.5400 85.0900 L117.7100 85.0900 "/>
<path d="M117.7100 99.0600 L104.5400 99.0600 "/>
<path d="M118.1100 85.4900 L118.1100 98.6600 "/>
<path d="M104.5400 85.0900 A0.4000 0.4000 0.0 0 0 104.1400 85.4900"/>
<path d="M104.1400 98.6600 A0.4000 0.4000 0.0 0 0 104.5400 99.0600"/>
<path d="M118.1100 85.4900 A0.4000 0.4000 0.0 0 0 117.7100 85.0900"/>
<path d="M117.7100 99.0600 A0.4000 0.4000 0.0 0 0 118.1100 98.6600"/>
<path d="M208.9150 60.5600 L208.9150 47.3900 "/>
<path d="M209.3150 46.9900 L222.4850 46.9900 "/>
<path d="M222.4850 60.9600 L209.3150 60.9600 "/>
<path d="M222.8850 47.3900 L222.8850 60.5600 "/>
<path d="M209.3150 46.9900 A0.4000 0.4000 0.0 0 0 208.9150 47.3900"/>
<path d="M208.9150 60.5600 A0.4000 0.4000 0.0 0 0 209.3150 60.9600"/>
<path d="M222.8850 47.3900 A0.4000 0.4000 0.0 0 0 222.4850 46.9900"/>
<path d="M222.4850 60.9600 A0.4000 0.4000 0.0 0 0 222.8850 60.5600"/>
<path d="M215.9000 104.1400 L270.1100 104.1400 "/>
<path d="M270.1100 118.1100 L215.9000 118.1100 "/>
<path d="M270.5100 104.5400 L270.5100 117.7100 "/>
<path d="M270.5100 104.5400 A0.4000 0.4000 0.0 0 0 270.1100 104.1400"/>
<path d="M270.1100 118.1100 A0.4000 0.4000 0.0 0 0 270.5100 117.7100"/>
<path d="M94.6150 60.5600 L94.6150 47.3900 "/>
<path d="M95.0150 46.9900 L108.1850 46.9900 "/>
<path d="M108.1850 60.9600 L95.0150 60.9600 "/>
<path d="M108.5850 47.3900 L108.5850 60.5600 "/>
<path d="M95.0150 46.9900 A0.4000 0.4000 0.0 0 0 94.6150 47.3900"/>
<path d="M94.6150 60.5600 A0.4000 0.4000 0.0 0 0 95.0150 60.9600"/>
<path d="M108.5850 47.3900 A0.4000 0.4000 0.0 0 0 108.1850 46.9900"/>
<path d="M108.1850 60.9600 A0.4000 0.4000 0.0 0 0 108.5850 60.5600"/>
<path d="M118.4280 79.6100 L118.4280 66.4400 "/>
<path d="M118.8280 66.0400 L131.9980 66.0400 "/>
<path d="M131.9980 80.0100 L118.8280 80.0100 "/>
<path d="M132.3980 66.4400 L132.3980 79.6100 "/>
<path d="M118.8280 66.0400 A0.4000 0.4000 0.0 0 0 118.4280 66.4400"/>
<path d="M118.4280 79.6100 A0.4000 0.4000 0.0 0 0 118.8280 80.0100"/>
<path d="M132.3980 66.4400 A0.4000 0.4000 0.0 0 0 131.9980 66.0400"/>
<path d="M131.9980 80.0100 A0.4000 0.4000 0.0 0 0 132.3980 79.6100"/>
<path d="M180.3400 98.6600 L180.3400 85.4900 "/>
<path d="M180.7400 85.0900 L193.9100 85.0900 "/>
<path d="M193.9100 99.0600 L180.7400 99.0600 "/>
<path d="M194.3100 85.4900 L194.3100 98.6600 "/>
<path d="M180.7400 85.0900 A0.4000 0.4000 0.0 0 0 180.3400 85.4900"/>
<path d="M180.3400 98.6600 A0.4000 0.4000 0.0 0 0 180.7400 99.0600"/>
<path d="M194.3100 85.4900 A0.4000 0.4000 0.0 0 0 193.9100 85.0900"/>
<path d="M193.9100 99.0600 A0.4000 0.4000 0.0 0 0 194.3100 98.6600"/>
<path d="M113.6650 60.5600 L113.6650 47.3900 "/>
<path d="M114.0650 46.9900 L127.2350 46.9900 "/>
<path d="M127.2350 60.9600 L114.0650 60.9600 "/>
<path d="M127.6350 47.3900 L127.6350 60.5600 "/>
<path d="M114.0650 46.9900 A0.4000 0.4000 0.0 0 0 113.6650 47.3900"/>
<path d="M113.6650 60.5600 A0.4000 0.4000 0.0 0 0 114.0650 60.9600"/>
<path d="M127.6350 47.3900 A0.4000 0.4000 0.0 0 0 127.2350 46.9900"/>
<path d="M127.2350 60.9600 A0.4000 0.4000 0.0 0 0 127.6350 60.5600"/>
<path d="M35.0690 66.5250 L35.0690 79.5250 "/>
<path d="M35.5690 80.0250 L48.5690 80.0250 "/>
<path d="M48.5690 66.0250 L35.5690 66.0250 "/>
<path d="M49.0690 79.5250 L49.0690 66.5250 "/>
<path d="M35.5690 66.0250 A0.5000 0.5000 0.0 0 0 35.0690 66.5250"/>
<path d="M35.0718 79.5239 A0.5000 0.5000 0.0 0 0 35.5718 80.0239"/>
<path d="M49.0690 66.5250 A0.5000 0.5000 0.0 0 0 48.5690 66.0250"/>
<path d="M48.5690 80.0250 A0.5000 0.5000 0.0 0 0 49.0690 79.5250"/>
<path d="M46.9900 41.5100 L46.9900 28.3400 "/>
<path d="M47.3900 27.9400 L60.5600 27.9400 "/>
<path d="M60.5600 41.9100 L47.3900 41.9100 "/>
<path d="M60.9600 28.3400 L60.9600 41.5100 "/>
<path d="M47.3900 27.9400 A0.4000 0.4000 0.0 0 0 46.9900 28.3400"/>
<path d="M46.9900 41.5100 A0.4000 0.4000 0.0 0 0 47.3900 41.9100"/>
<path d="M60.9600 28.3400 A0.4000 0.4000 0.0 0 0 60.5600 27.9400"/>
<path d="M60.5600 41.9100 A0.4000 0.4000 0.0 0 0 60.9600 41.5100"/>
<path d="M194.6280 79.6100 L194.6280 66.4400 "/>
<path d="M195.0280 66.0400 L208.1980 66.0400 "/>
<path d="M208.1980 80.0100 L195.0280 80.0100 "/>
<path d="M208.5980 66.4400 L208.5980 79.6100 "/>
<path d="M195.0280 66.0400 A0.4000 0.4000 0.0 0 0 194.6280 66.4400"/>
<path d="M194.6280 79.6100 A0.4000 0.4000 0.0 0 0 195.0280 80.0100"/>
<path d="M208.5980 66.4400 A0.4000 0.4000 0.0 0 0 208.1980 66.0400"/>
<path d="M208.1980 80.0100 A0.4000 0.4000 0.0 0 0 208.5980 79.6100"/>
<path d="M27.9400 41.5100 L27.9400 28.3400 "/>
<path d="M28.3400 27.9400 L41.5100 27.9400 "/>
<path d="M41.5100 41.9100 L28.3400 41.9100 "/>
<path d="M41.9100 28.3400 L41.9100 41.5100 "/>
<path d="M28.3400 27.9400 A0.4000 0.4000 0.0 0 0 27.9400 28.3400"/>
<path d="M27.9400 41.5100 A0.4000 0.4000 0.0 0 0 28.3400 41.9100"/>
<path d="M41.9100 28.3400 A0.4000 0.4000 0.0 0 0 41.5100 27.9400"/>
<path d="M41.5100 41.9100 A0.4000 0.4000 0.0 0 0 41.9100 41.5100"/>
<path d="M175.5780 79.6100 L175.5780 66.4400 "/>
<path d="M175.9780 66.0400 L189.1480 66.0400 "/>
<path d="M189.1480 80.0100 L175.9780 80.0100 "/>
<path d="M189.5480 66.4400 L189.5480 79.6100 "/>
<path d="M175.9780 66.0400 A0.4000 0.4000 0.0 0 0 175.5780 66.4400"/>
<path d="M175.5780 79.6100 A0.4000 0.4000 0.0 0 0 175.9780 80.0100"/>
<path d="M189.5480 66.4400 A0.4000 0.4000 0.0 0 0 189.1480 66.0400"/>
<path d="M189.1480 80.0100 A0.4000 0.4000 0.0 0 0 189.5480 79.6100"/>
<path d="M123.1900 41.5100 L123.1900 28.3400 "/>
<path d="M123.5900 27.9400 L136.7600 27.9400 "/>
<path d="M136.7600 41.9100 L123.5900 41.9100 "/>
<path d="M137.1600 28.3400 L137.1600 41.5100 "/>
<path d="M123.5900 27.9400 A0.4000 0.4000 0.0 0 0 123.1900 28.3400"/>
<path d="M123.1900 41.5100 A0.4000 0.4000 0.0 0 0 123.5900 41.9100"/>
<path d="M137.1600 28.3400 A0.4000 0.4000 0.0 0 0 136.7600 27.9400"/>
<path d="M136.7600 41.9100 A0.4000 0.4000 0.0 0 0 137.1600 41.5100"/>
<path d="M218.4400 98.6600 L218.4400 85.4900 "/>
<path d="M218.8400 85.0900 L232.0100 85.0900 "/>
<path d="M232.0100 99.0600 L218.8400 99.0600 "/>
<path d="M232.4100 85.4900 L232.4100 98.6600 "/>
<path d="M218.8400 85.0900 A0.4000 0.4000 0.0 0 0 218.4400 85.4900"/>
<path d="M218.4400 98.6600 A0.4000 0.4000 0.0 0 0 218.8400 99.0600"/>
<path d="M232.4100 85.4900 A0.4000 0.4000 0.0 0 0 232.0100 85.0900"/>
<path d="M232.0100 99.0600 A0.4000 0.4000 0.0 0 0 232.4100 98.6600"/>
<path d="M66.0400 41.5100 L66.0400 28.3400 "/>
<path d="M66.4400 27.9400 L79.6100 27.9400 "/>
<path d="M79.6100 41.9100 L66.4400 41.9100 "/>
<path d="M80.0100 28.3400 L80.0100 41.5100 "/>
<path d="M66.4400 27.9400 A0.4000 0.4000 0.0 0 0 66.0400 28.3400"/>
<path d="M66.0400 41.5100 A0.4000 0.4000 0.0 0 0 66.4400 41.9100"/>
<path d="M80.0100 28.3400 A0.4000 0.4000 0.0 0 0 79.6100 27.9400"/>
<path d="M79.6100 41.9100 A0.4000 0.4000 0.0 0 0 80.0100 41.5100"/>
<path d="M156.5280 79.6100 L156.5280 66.4400 "/>
<path d="M156.9280 66.0400 L170.0980 66.0400 "/>
<path d="M170.0980 80.0100 L156.9280 80.0100 "/>
<path d="M170.4980 66.4400 L170.4980 79.6100 "/>
<path d="M156.9280 66.0400 A0.4000 0.4000 0.0 0 0 156.5280 66.4400"/>
<path d="M156.5280 79.6100 A0.4000 0.4000 0.0 0 0 156.9280 80.0100"/>
<path d="M170.4980 66.4400 A0.4000 0.4000 0.0 0 0 170.0980 66.0400"/>
<path d="M170.0980 80.0100 A0.4000 0.4000 0.0 0 0 170.4980 79.6100"/>
<path d="M232.7277 66.4400 L232.7277 79.6100 "/>
<path d="M233.1277 80.0100 L267.7290 80.0100 "/>
<path d="M235.8190 66.0400 L233.1277 66.0400 "/>
<path d="M236.2190 64.4250 L236.2190 65.6400 "/>
<path d="M242.8190 64.0250 L236.6190 64.0250 "/>
<path d="M243.2190 65.6400 L243.2190 64.4250 "/>
<path d="M259.6190 66.0400 L243.6190 66.0400 "/>
<path d="M260.0190 64.4250 L260.0190 65.6400 "/>
<path d="M266.6190 64.0250 L260.4190 64.0250 "/>
<path d="M267.0190 65.6400 L267.0190 64.4250 "/>
<path d="M267.7290 66.0400 L267.4190 66.0400 "/>
<path d="M268.1290 79.6100 L268.1290 66.4400 "/>
<path d="M233.1277 66.0401 A0.3999 0.3999 0.0 0 0 232.7277 66.4400"/>
<path d="M232.7277 79.6100 A0.4000 0.4000 0.0 0 0 233.1277 80.0100"/>
<path d="M236.6190 64.0250 A0.4000 0.4000 0.0 0 0 236.2190 64.4250"/>
<path d="M235.8190 66.0400 A0.4000 0.4000 0.0 0 0 236.2190 65.6400"/>
<path d="M243.2190 64.4250 A0.4000 0.4000 0.0 0 0 242.8190 64.0250"/>
<path d="M243.2190 65.6400 A0.4000 0.4000 0.0 0 0 243.6190 66.0400"/>
<path d="M260.4190 64.0250 A0.4000 0.4000 0.0 0 0 260.0190 64.4250"/>
<path d="M259.6190 66.0400 A0.4000 0.4000 0.0 0 0 260.0190 65.6400"/>
<path d="M267.0190 64.4250 A0.4000 0.4000 0.0 0 0 266.6190 64.0250"/>
<path d="M267.0190 65.6400 A0.4000 0.4000 0.0 0 0 267.4190 66.0400"/>
<path d="M268.1290 66.4400 A0.4000 0.4000 0.0 0 0 267.7290 66.0400"/>
<path d="M267.7290 80.0100 A0.4000 0.4000 0.0 0 0 268.1290 79.6100"/>
<path d="M218.4400 41.5100 L218.4400 28.3400 "/>
<path d="M218.8400 27.9400 L232.0100 27.9400 "/>
<path d="M232.0100 41.9100 L218.8400 41.9100 "/>
<path d="M232.4100 28.3400 L232.4100 41.5100 "/>
<path d="M218.8400 27.9400 A0.4000 0.4000 0.0 0 0 218.4400 28.3400"/>
<path d="M218.4400 41.5100 A0.4000 0.4000 0.0 0 0 218.8400 41.9100"/>
<path d="M232.4100 28.3400 A0.4000 0.4000 0.0 0 0 232.0100 27.9400"/>
<path d="M232.0100 41.9100 A0.4000 0.4000 0.0 0 0 232.4100 41.5100"/>
<path d="M227.9650 60.5600 L227.9650 47.3900 "/>
<path d="M228.3650 46.9900 L241.5350 46.9900 "/>
<path d="M241.5350 60.9600 L228.3650 60.9600 "/>
<path d="M241.9350 47.3900 L241.9350 60.5600 "/>
<path d="M228.3650 46.9900 A0.4000 0.4000 0.0 0 0 227.9650 47.3900"/>
<path d="M227.9650 60.5600 A0.4000 0.4000 0.0 0 0 228.3650 60.9600"/>
<path d="M241.9350 47.3900 A0.4000 0.4000 0.0 0 0 241.5350 46.9900"/>
<path d="M241.5350 60.9600 A0.4000 0.4000 0.0 0 0 241.9350 60.5600"/>
<path d="M137.4780 79.6100 L137.4780 66.4400 "/>
<path d="M137.8780 66.0400 L151.0480 66.0400 "/>
<path d="M151.0480 80.0100 L137.8780 80.0100 "/>
<path d="M151.4480 66.4400 L151.4480 79.6100 "/>
<path d="M137.8780 66.0400 A0.4000 0.4000 0.0 0 0 137.4780 66.4400"/>
<path d="M137.4780 79.6100 A0.4000 0.4000 0.0 0 0 137.8780 80.0100"/>
<path d="M151.4480 66.4400 A0.4000 0.4000 0.0 0 0 151.0480 66.0400"/>
<path d="M151.0480 80.0100 A0.4000 0.4000 0.0 0 0 151.4480 79.6100"/>
</g> 
<path d="M -2.0 0.0 A 2.0 2.0 0 1 1 2.0 0.0 L 2.0 -0.0 A 2.0 2.0 0 1 1 -2.0 -0.0 Z" transform="translate(82.55 44.45) rotate(-0.0)"/><path d="M -0.7000000000000002 -2.0 A 2.0 2.0 0 1 1 -0.7000000000000002 2.0 L 0.7000000000000002 2.0 A 2.0 2.0 0 1 1 0.7000000000000002 -2.0 Z" transform="translate(234.95 44.45) rotate(-0.0)"/><path d="M -0.7000000000000002 -2.0 A 2.0 2.0 0 1 1 -0.7000000000000002 2.0 L 0.7000000000000002 2.0 A 2.0 2.0 0 1 1 0.7000000000000002 -2.0 Z" transform="translate(220.6498 101.6) rotate(-0.0)"/><path d="M -0.7000000000000002 -2.0 A 2.0 2.0 0 1 1 -0.7000000000000002 2.0 L 0.7000000000000002 2.0 A 2.0 2.0 0 1 1 0.7000000000000002 -2.0 Z" transform="translate(134.9502 82.55) rotate(-0.0)"/></g></g></g></svg>