<?xml version="1.0" encoding="UTF-8" standalone="no"?>
<svg
   role="img"
   viewBox="0 0 29.94012 29.94012"
   version="1.1"
   id="svg1"
   sodipodi:docname="logo-oshw-5mm.svg"
   width="5mm"
   height="5mm"
   inkscape:version="1.4.2 (ebf0e940d0, 2025-05-08)"
   xmlns:inkscape="http://www.inkscape.org/namespaces/inkscape"
   xmlns:sodipodi="http://sodipodi.sourceforge.net/DTD/sodipodi-0.dtd"
   xmlns="http://www.w3.org/2000/svg"
   xmlns:svg="http://www.w3.org/2000/svg"
   xmlns:rdf="http://www.w3.org/1999/02/22-rdf-syntax-ns#"
   xmlns:cc="http://creativecommons.org/ns#"
   xmlns:dc="http://purl.org/dc/elements/1.1/">
  <defs
     id="defs1" />
  <sodipodi:namedview
     id="namedview1"
     pagecolor="#ffffff"
     bordercolor="#000000"
     borderopacity="0.25"
     inkscape:showpageshadow="2"
     inkscape:pageopacity="0.0"
     inkscape:pagecheckerboard="0"
     inkscape:deskcolor="#d1d1d1"
     inkscape:zoom="30.666667"
     inkscape:cx="7.4510869"
     inkscape:cy="15.326087"
     inkscape:window-width="2544"
     inkscape:window-height="1356"
     inkscape:window-x="8"
     inkscape:window-y="276"
     inkscape:window-maximized="1"
     inkscape:current-layer="svg1"
     inkscape:document-units="mm"
     showguides="true">
    <sodipodi:guide
       position="0.00047523182,11.976286"
       orientation="0,-1"
       id="guide1"
       inkscape:locked="false" />
  </sodipodi:namedview>
  <title
     id="title1">Open Source Hardware</title>
  <metadata
     id="metadata1">
    <rdf:RDF>
      <cc:Work
         rdf:about="">
        <dc:title>Open Source Hardware</dc:title>
      </cc:Work>
    </rdf:RDF>
  </metadata>
  <path
     id="rect1"
     style="clip-rule:evenodd;fill:#000000;fill-rule:evenodd;stroke:none;stroke-width:0.898216;stroke-linecap:round;stroke-linejoin:round;stroke-miterlimit:2;stroke-dasharray:none;fill-opacity:1"
     d="M 0 0 L 0 29.941386 L 29.941386 29.941386 L 29.941386 0 L 0 0 z M 13.550365 4.8643922 L 16.387927 4.8643922 C 16.456227 4.8643922 16.523361 4.9217384 16.536458 4.9881681 L 17.0656 7.8381078 A 0.23390811 0.23391183 0 0 0 17.207942 8.0021109 L 19.117185 8.7818989 A 0.23577938 0.23578313 0 0 0 19.333793 8.7664269 L 21.716479 7.1325853 A 0.15531499 0.15531747 0 0 1 21.905237 7.1511517 L 23.910406 9.156321 C 23.959066 9.204038 23.969497 9.2920348 23.932067 9.3481736 L 22.322981 11.687538 A 0.22922996 0.22923362 0 0 0 22.310603 11.901051 L 23.155373 13.875277 A 0.2395219 0.23952572 0 0 0 23.319376 14.014524 L 26.076484 14.528194 C 26.142924 14.540324 26.197166 14.605334 26.197166 14.673631 L 26.197166 17.511193 A 0.15531499 0.15531747 0 0 1 26.076484 17.659724 L 23.387453 18.157922 A 0.22735869 0.22736232 0 0 0 23.226544 18.300264 L 22.387963 20.398266 A 0.23577938 0.23578313 0 0 0 22.403435 20.611779 L 23.932067 22.839745 A 0.15625062 0.15625311 0 0 1 23.910406 23.028503 L 21.905237 25.033672 A 0.15625062 0.15625311 0 0 1 21.716479 25.052239 L 19.52874 23.551456 A 0.21519547 0.2151989 0 0 0 19.318321 23.545267 L 18.355963 24.058937 A 0.11321153 0.11321333 0 0 1 18.195055 24.000144 L 16.208452 19.197639 A 0.15063682 0.15063923 0 0 1 16.267245 19.018164 L 16.508608 18.869633 C 16.553508 18.841563 16.613464 18.794158 16.660234 18.752046 A 3.1381112 3.1381613 0 1 0 13.281152 18.752046 C 13.327932 18.795096 13.387858 18.842511 13.432778 18.869633 L 13.674141 19.018164 A 0.1497012 0.14970358 0 0 1 13.732934 19.197639 L 11.743237 24.000144 A 0.11321153 0.11321333 0 0 1 11.585423 24.058937 L 10.619971 23.545267 A 0.21519547 0.2151989 0 0 0 10.412646 23.551456 L 8.2249074 25.052239 A 0.15718626 0.15718877 0 0 1 8.0330548 25.033672 L 6.0247911 23.028503 A 0.15625062 0.15625311 0 0 1 6.0093191 22.839745 L 7.5348569 20.611779 A 0.23484375 0.23484749 0 0 0 7.5534233 20.398266 L 6.7117473 18.300264 A 0.22829433 0.22829797 0 0 0 6.553933 18.161016 L 3.864902 17.65663 A 0.15531499 0.15531747 0 0 1 3.7411261 17.511193 L 3.7411261 14.673631 C 3.7411261 14.605341 3.7984733 14.540355 3.864902 14.528194 L 6.6220098 14.014524 A 0.23671502 0.23671879 0 0 0 6.7860128 13.875277 L 7.6307832 11.901051 A 0.23016559 0.23016926 0 0 0 7.6184056 11.687538 L 6.0093191 9.3481736 A 0.15625062 0.15625311 0 0 1 6.0278855 9.156321 L 8.0330548 7.1480573 A 0.15531499 0.15531747 0 0 1 8.2249074 7.1325853 L 10.607593 8.7664269 C 10.663733 8.8047889 10.759355 8.8118399 10.821107 8.7818989 L 12.733444 8.0021109 C 12.798944 7.9805899 12.86053 7.9064107 12.872692 7.8381078 L 13.404928 4.9881681 A 0.15625062 0.15625311 0 0 1 13.550365 4.8643922 z " />
</svg>
