  0
SECTION
  2
HEADER
  9
$ANGBASE
  50
0.0
  9
$ANGDIR
  70
1
  9
$MEASUREMENT
  70
1
  0
ENDSEC
  0
SECTION
  2
TABLES
  0
TABLE
  2
LTYPE
  70
4
  0
LTYPE
  5
40F
  2
CONTINUOUS
  70
0
  3
Solid line
  72
65
  73
0
  40
0.0
  0
LTYPE
  5
410
  2
DASHDOT
 70
0
  3
Dash Dot ____ _ ____ _
 72
65
 73
4
 40
2.0
 49
1.25
 49
-0.25
 49
0.25
 49
-0.25
  0
LTYPE
  5
411
  2
DASHED
 70
0
  3
Dashed __ __ __ __ __
 72
65
 73
2
 40
0.75
 49
0.5
 49
-0.25
  0
LTYPE
  5
43B
  2
DOTTED
 70
0
  3
Dotted .  .  .  .
 72
65
 73
2
 40
0.2
 49
0.0
 49
-0.2
  0
ENDTAB
  0
TABLE
  2
STYLE
  70
4
  0
STYLE
  2
KICAD
  70
0
  40
0
  41
1
  42
1
  50
0
  71
0
  3
isocp.shx
  0
STYLE
  2
KICADB
  70
0
  40
0
  41
1
  42
1
  50
0
  71
0
  3
isocp.shx
  0
STYLE
  2
KICADI
  70
0
  40
0
  41
1
  42
1
  50
15
  71
0
  3
isocp.shx
  0
STYLE
  2
KICADBI
  70
0
  40
0
  41
1
  42
1
  50
15
  71
0
  3
isocp.shx
  0
ENDTAB
  0
TABLE
  2
LAYER
  70
1
  0
LAYER
  2
BLACK
  70
0
  62
7
  6
CONTINUOUS
  0
ENDTAB
  0
ENDSEC
  0
SECTION
  2
ENTITIES
0
ARC
8
BLACK
10
272.5500000000000114
20
-61.
40
0.5
50
-90.00000000
51
-0.00000000
0
ARC
8
BLACK
10
25.8999999999999986
20
-104.0999999999999943
40
0.5
50
90.00000000
51
180.00000000
0
ARC
8
BLACK
10
28.3999999999999986
20
-28.3999999999999986
40
3.
50
90.00000000
51
180.00000000
0
LINE
8
BLACK
6
CONTINUOUS
10
25.8999999999999986
20
-103.5999999999999943
11
26.8999999999999986
21
-103.5999999999999943
0
LINE
8
BLACK
6
CONTINUOUS
10
270.0500000000000114
20
-120.6499999999999915
11
28.3999999999999986
21
-120.6499999999999915
0
ARC
8
BLACK
10
270.0500000000000114
20
-63.5
40
2.
50
-270.00000000
51
-90.00000000
0
ARC
8
BLACK
10
270.0500000000000114
20
-117.6499999999999915
40
3.
50
-90.00000000
51
-0.00000000
0
LINE
8
BLACK
6
CONTINUOUS
10
25.3999999999999986
20
-104.0999999999999943
11
25.3999999999999986
21
-117.6499999999999915
0
LINE
8
BLACK
6
CONTINUOUS
10
270.0500000000000114
20
-61.5
11
272.5500000000000114
21
-61.5
0
ARC
8
BLACK
10
26.8999999999999986
20
-101.5999999999999943
40
2.
50
-90.00000000
51
90.00000000
0
LINE
8
BLACK
6
CONTINUOUS
10
270.0500000000000114
20
-65.5
11
272.5500000000000114
21
-65.5
0
ARC
8
BLACK
10
28.3999999999999986
20
-117.6499999999999915
40
3.
50
-180.00000000
51
-90.00000000
0
LINE
8
BLACK
6
CONTINUOUS
10
25.8999999999999986
20
-99.5999999999999943
11
26.8999999999999986
21
-99.5999999999999943
0
ARC
8
BLACK
10
270.0500000000000114
20
-28.3999999999999986
40
3.
50
0.00000000
51
90.00000000
0
ARC
8
BLACK
10
25.8999999999999986
20
-99.0999999999999943
40
0.5
50
-180.00000000
51
-90.00000000
0
ARC
8
BLACK
10
272.5500000000000114
20
-66.
40
0.5
50
0.00000000
51
90.00000000
0
LINE
8
BLACK
6
CONTINUOUS
10
273.0500000000000114
20
-28.3999999999999986
11
273.0500000000000114
21
-61.
0
LINE
8
BLACK
6
CONTINUOUS
10
28.3999999999999986
20
-25.3999999999999986
11
270.0500000000000114
21
-25.3999999999999986
0
LINE
8
BLACK
6
CONTINUOUS
10
273.0500000000000114
20
-66.
11
273.0500000000000114
21
-117.6499999999999915
0
LINE
8
BLACK
6
CONTINUOUS
10
25.3999999999999986
20
-99.0999999999999943
11
25.3999999999999986
21
-28.3999999999999986
0
LINE
8
BLACK
6
CONTINUOUS
10
104.1400000000000006
20
-41.509999999999998
11
104.1400000000000006
21
-28.3399999999999999
0
LINE
8
BLACK
6
CONTINUOUS
10
104.539999999999992
20
-27.9399999999999977
11
117.7099999999999937
21
-27.9399999999999977
0
LINE
8
BLACK
6
CONTINUOUS
10
117.7099999999999937
20
-41.9099999999999966
11
104.539999999999992
21
-41.9099999999999966
0
LINE
8
BLACK
6
CONTINUOUS
10
118.1099999999999994
20
-28.3399999999999999
11
118.1099999999999994
21
-41.509999999999998
0
ARC
8
BLACK
10
104.5399989999999946
20
-28.3399989999999988
40
0.39999900000125
50
-270.00014324
51
-179.99985676
0
ARC
8
BLACK
10
104.5399989999999946
20
-41.5100009999999955
40
0.39999900000125
50
-180.00014324
51
-89.99985676
0
ARC
8
BLACK
10
117.7099999999999937
20
-28.3399999999999999
40
0.4
50
0.00000000
51
90.00000000
0
ARC
8
BLACK
10
117.7099999999999937
20
-41.509999999999998
40
0.4
50
-90.00000000
51
-0.00000000
0
LINE
8
BLACK
6
CONTINUOUS
10
56.5150000000000006
20
-60.5599999999999952
11
56.5150000000000006
21
-47.3900000000000006
0
LINE
8
BLACK
6
CONTINUOUS
10
56.9149999999999991
20
-46.9899999999999949
11
70.0849999999999937
21
-46.9899999999999949
0
LINE
8
BLACK
6
CONTINUOUS
10
70.0849999999999937
20
-60.9599999999999937
11
56.9149999999999991
21
-60.9599999999999937
0
LINE
8
BLACK
6
CONTINUOUS
10
70.4849999999999994
20
-47.3900000000000006
11
70.4849999999999994
21
-60.5599999999999952
0
ARC
8
BLACK
10
56.9149989999999946
20
-47.389998999999996
40
0.39999900000125
50
-270.00014324
51
-179.99985676
0
ARC
8
BLACK
10
56.9149989999999946
20
-60.5600009999999997
40
0.39999900000125
50
-180.00014324
51
-89.99985676
0
ARC
8
BLACK
10
70.0849999999999937
20
-47.3900000000000006
40
0.4
50
0.00000000
51
90.00000000
0
ARC
8
BLACK
10
70.0849999999999937
20
-60.5599999999999952
40
0.4
50
-90.00000000
51
-0.00000000
0
LINE
8
BLACK
6
CONTINUOUS
10
75.5649999999999977
20
-60.5599999999999952
11
75.5649999999999977
21
-47.3900000000000006
0
LINE
8
BLACK
6
CONTINUOUS
10
75.9650000000000034
20
-46.9899999999999949
11
89.1349999999999909
21
-46.9899999999999949
0
LINE
8
BLACK
6
CONTINUOUS
10
89.1349999999999909
20
-60.9599999999999937
11
75.9650000000000034
21
-60.9599999999999937
0
LINE
8
BLACK
6
CONTINUOUS
10
89.5349999999999966
20
-47.3900000000000006
11
89.5349999999999966
21
-60.5599999999999952
0
ARC
8
BLACK
10
75.9649989999999917
20
-47.389998999999996
40
0.39999900000125
50
-270.00014324
51
-179.99985676
0
ARC
8
BLACK
10
75.9649989999999917
20
-60.5600009999999997
40
0.39999900000125
50
-180.00014324
51
-89.99985676
0
ARC
8
BLACK
10
89.1349999999999909
20
-47.3900000000000006
40
0.4
50
0.00000000
51
90.00000000
0
ARC
8
BLACK
10
89.1349999999999909
20
-60.5599999999999952
40
0.4
50
-90.00000000
51
-0.00000000
0
LINE
8
BLACK
6
CONTINUOUS
10
189.8649999999999807
20
-60.5599999999999952
11
189.8649999999999807
21
-47.3900000000000006
0
LINE
8
BLACK
6
CONTINUOUS
10
190.2649999999999864
20
-46.9899999999999949
11
203.4350000000000023
21
-46.9899999999999949
0
LINE
8
BLACK
6
CONTINUOUS
10
203.4350000000000023
20
-60.9599999999999937
11
190.2649999999999864
21
-60.9599999999999937
0
LINE
8
BLACK
6
CONTINUOUS
10
203.8349999999999795
20
-47.3900000000000006
11
203.8349999999999795
21
-60.5599999999999952
0
ARC
8
BLACK
10
190.2649989999999889
20
-47.389998999999996
40
0.39999900000125
50
-270.00014324
51
-179.99985676
0
ARC
8
BLACK
10
190.2649989999999889
20
-60.5600009999999997
40
0.39999900000125
50
-180.00014324
51
-89.99985676
0
ARC
8
BLACK
10
203.4350000000000023
20
-47.3900000000000006
40
0.4
50
0.00000000
51
90.00000000
0
ARC
8
BLACK
10
203.4350000000000023
20
-60.5599999999999952
40
0.4
50
-90.00000000
51
-0.00000000
0
LINE
8
BLACK
6
CONTINUOUS
10
180.3400000000000034
20
-41.509999999999998
11
180.3400000000000034
21
-28.3399999999999999
0
LINE
8
BLACK
6
CONTINUOUS
10
180.7399999999999807
20
-27.9399999999999977
11
193.9099999999999966
21
-27.9399999999999977
0
LINE
8
BLACK
6
CONTINUOUS
10
193.9099999999999966
20
-41.9099999999999966
11
180.7399999999999807
21
-41.9099999999999966
0
LINE
8
BLACK
6
CONTINUOUS
10
194.3100000000000023
20
-28.3399999999999999
11
194.3100000000000023
21
-41.509999999999998
0
ARC
8
BLACK
10
180.7399989999999832
20
-28.3399989999999988
40
0.39999900000125
50
-270.00014324
51
-179.99985676
0
ARC
8
BLACK
10
180.7399989999999832
20
-41.5100009999999955
40
0.39999900000125
50
-180.00014324
51
-89.99985676
0
ARC
8
BLACK
10
193.9099999999999966
20
-28.3399999999999999
40
0.4
50
0.00000000
51
90.00000000
0
ARC
8
BLACK
10
193.9099999999999966
20
-41.509999999999998
40
0.4
50
-90.00000000
51
-0.00000000
0
LINE
8
BLACK
6
CONTINUOUS
10
61.2779999999999987
20
-79.6099999999999994
11
61.2779999999999987
21
-66.4399999999999977
0
LINE
8
BLACK
6
CONTINUOUS
10
61.6779999999999973
20
-66.039999999999992
11
74.847999999999999
21
-66.039999999999992
0
LINE
8
BLACK
6
CONTINUOUS
10
74.847999999999999
20
-80.0099999999999909
11
61.6779999999999973
21
-80.0099999999999909
0
LINE
8
BLACK
6
CONTINUOUS
10
75.2479999999999905
20
-66.4399999999999977
11
75.2479999999999905
21
-79.6099999999999994
0
ARC
8
BLACK
10
61.6779989999999998
20
-66.4399990000000003
40
0.39999900000125
50
-270.00014324
51
-179.99985676
0
ARC
8
BLACK
10
61.6779989999999998
20
-79.6100009999999969
40
0.39999900000125
50
-180.00014324
51
-89.99985676
0
ARC
8
BLACK
10
74.847999999999999
20
-66.4399999999999977
40
0.4
50
0.00000000
51
90.00000000
0
ARC
8
BLACK
10
74.847999999999999
20
-79.6099999999999994
40
0.4
50
-90.00000000
51
-0.00000000
0
LINE
8
BLACK
6
CONTINUOUS
10
237.5149999999999864
20
-41.509999999999998
11
237.5149999999999864
21
-28.3399999999999999
0
LINE
8
BLACK
6
CONTINUOUS
10
237.914999999999992
20
-27.9399999999999977
11
270.0849999999999795
21
-27.9399999999999977
0
LINE
8
BLACK
6
CONTINUOUS
10
238.3999999999999773
20
-41.9099999999999966
11
237.914999999999992
21
-41.9099999999999966
0
LINE
8
BLACK
6
CONTINUOUS
10
238.5999999999999943
20
-42.1099999999999994
11
238.5999999999999943
21
-43.5249999999999986
0
LINE
8
BLACK
6
CONTINUOUS
10
239.
20
-43.9249999999999972
11
245.1999999999999886
21
-43.9249999999999972
0
LINE
8
BLACK
6
CONTINUOUS
10
245.5999999999999943
20
-42.1099999999999994
11
245.5999999999999943
21
-43.5249999999999986
0
LINE
8
BLACK
6
CONTINUOUS
10
262.1999999999999886
20
-41.9099999999999966
11
245.8000009999999804
21
-41.9099999999999966
0
LINE
8
BLACK
6
CONTINUOUS
10
262.3999999999999773
20
-42.1099999999999994
11
262.3999999999999773
21
-43.5249999999999986
0
LINE
8
BLACK
6
CONTINUOUS
10
269.
20
-43.9249999999999972
11
262.8000000000000114
21
-43.9249999999999972
0
LINE
8
BLACK
6
CONTINUOUS
10
269.3999999999999773
20
-42.1099999999999994
11
269.3999999999999773
21
-43.5249999999999986
0
LINE
8
BLACK
6
CONTINUOUS
10
269.5999999999999659
20
-41.9099999999999966
11
270.0849999999999795
21
-41.9099999999999966
0
LINE
8
BLACK
6
CONTINUOUS
10
270.4850000000000136
20
-28.3399999999999999
11
270.4850000000000136
21
-41.509999999999998
0
ARC
8
BLACK
10
237.9149989999999946
20
-28.3399989999999988
40
0.39999900000125
50
-270.00014324
51
-179.99985676
0
ARC
8
BLACK
10
237.9149989999999946
20
-41.5100009999999955
40
0.39999900000125
50
-180.00014324
51
-89.99985676
0
ARC
8
BLACK
10
238.3999949999999899
20
-42.110005000000001
40
0.2000050000624984
50
0.00143236
51
89.99856764
0
ARC
8
BLACK
10
238.9999990000000025
20
-43.5250009999999961
40
0.39999900000125
50
-180.00014324
51
-89.99985676
0
ARC
8
BLACK
10
245.8000009999999804
20
-42.1100009999999969
40
0.2000010000025
50
90.00028648
51
179.99971352
0
ARC
8
BLACK
10
245.2000009999999861
20
-43.5250009999999961
40
0.39999900000125
50
-90.00014324
51
0.00014324
0
ARC
8
BLACK
10
262.1999999999999886
20
-42.1099999999999994
40
0.2
50
0.00000000
51
90.00000000
0
ARC
8
BLACK
10
262.8000000000000114
20
-43.5249999999999986
40
0.4
50
-180.00000000
51
-90.00000000
0
ARC
8
BLACK
10
269.5999999999999659
20
-42.1099999999999994
40
0.2
50
90.00000000
51
180.00000000
0
ARC
8
BLACK
10
269.
20
-43.5249999999999986
40
0.4
50
-90.00000000
51
-0.00000000
0
ARC
8
BLACK
10
270.0849999999999795
20
-28.3399999999999999
40
0.4
50
0.00000000
51
90.00000000
0
ARC
8
BLACK
10
270.0849999999999795
20
-41.509999999999998
40
0.4
50
-90.00000000
51
-0.00000000
0
LINE
8
BLACK
6
CONTINUOUS
10
161.289999999999992
20
-41.509999999999998
11
161.289999999999992
21
-28.3399999999999999
0
LINE
8
BLACK
6
CONTINUOUS
10
161.6899999999999977
20
-27.9399999999999977
11
174.8599999999999852
21
-27.9399999999999977
0
LINE
8
BLACK
6
CONTINUOUS
10
174.8599999999999852
20
-41.9099999999999966
11
161.6899999999999977
21
-41.9099999999999966
0
LINE
8
BLACK
6
CONTINUOUS
10
175.2599999999999909
20
-28.3399999999999999
11
175.2599999999999909
21
-41.509999999999998
0
ARC
8
BLACK
10
161.6899990000000003
20
-28.3399989999999988
40
0.39999900000125
50
-270.00014324
51
-179.99985676
0
ARC
8
BLACK
10
161.6899990000000003
20
-41.5100009999999955
40
0.39999900000125
50
-180.00014324
51
-89.99985676
0
ARC
8
BLACK
10
174.8599999999999852
20
-28.3399999999999999
40
0.4
50
0.00000000
51
90.00000000
0
ARC
8
BLACK
10
174.8599999999999852
20
-41.509999999999998
40
0.4
50
-90.00000000
51
-0.00000000
0
LINE
8
BLACK
6
CONTINUOUS
10
151.7649999999999864
20
-60.5599999999999952
11
151.7649999999999864
21
-47.3900000000000006
0
LINE
8
BLACK
6
CONTINUOUS
10
152.164999999999992
20
-46.9899999999999949
11
165.3349999999999795
21
-46.9899999999999949
0
LINE
8
BLACK
6
CONTINUOUS
10
165.3349999999999795
20
-60.9599999999999937
11
152.164999999999992
21
-60.9599999999999937
0
LINE
8
BLACK
6
CONTINUOUS
10
165.7349999999999852
20
-47.3900000000000006
11
165.7349999999999852
21
-60.5599999999999952
0
ARC
8
BLACK
10
152.1649989999999946
20
-47.389998999999996
40
0.39999900000125
50
-270.00014324
51
-179.99985676
0
ARC
8
BLACK
10
152.1649989999999946
20
-60.5600009999999997
40
0.39999900000125
50
-180.00014324
51
-89.99985676
0
ARC
8
BLACK
10
165.3349999999999795
20
-47.3900000000000006
40
0.4
50
0.00000000
51
90.00000000
0
ARC
8
BLACK
10
165.3349999999999795
20
-60.5599999999999952
40
0.4
50
-90.00000000
51
-0.00000000
0
LINE
8
BLACK
6
CONTINUOUS
10
199.3899999999999864
20
-41.509999999999998
11
199.3899999999999864
21
-28.3399999999999999
0
LINE
8
BLACK
6
CONTINUOUS
10
199.789999999999992
20
-27.9399999999999977
11
212.9599999999999795
21
-27.9399999999999977
0
LINE
8
BLACK
6
CONTINUOUS
10
212.9599999999999795
20
-41.9099999999999966
11
199.789999999999992
21
-41.9099999999999966
0
LINE
8
BLACK
6
CONTINUOUS
10
213.3599999999999852
20
-28.3399999999999999
11
213.3599999999999852
21
-41.509999999999998
0
ARC
8
BLACK
10
199.7899989999999946
20
-28.3399989999999988
40
0.39999900000125
50
-270.00014324
51
-179.99985676
0
ARC
8
BLACK
10
199.7899989999999946
20
-41.5100009999999955
40
0.39999900000125
50
-180.00014324
51
-89.99985676
0
ARC
8
BLACK
10
212.9599999999999795
20
-28.3399999999999999
40
0.4
50
0.00000000
51
90.00000000
0
ARC
8
BLACK
10
212.9599999999999795
20
-41.509999999999998
40
0.4
50
-90.00000000
51
-0.00000000
0
LINE
8
BLACK
6
CONTINUOUS
10
132.7150000000000034
20
-60.5599999999999952
11
132.7150000000000034
21
-47.3900000000000006
0
LINE
8
BLACK
6
CONTINUOUS
10
133.1149999999999807
20
-46.9899999999999949
11
146.2849999999999966
21
-46.9899999999999949
0
LINE
8
BLACK
6
CONTINUOUS
10
146.2849999999999966
20
-60.9599999999999937
11
133.1149999999999807
21
-60.9599999999999937
0
LINE
8
BLACK
6
CONTINUOUS
10
146.6850000000000023
20
-47.3900000000000006
11
146.6850000000000023
21
-60.5599999999999952
0
ARC
8
BLACK
10
133.1149989999999832
20
-47.389998999999996
40
0.39999900000125
50
-270.00014324
51
-179.99985676
0
ARC
8
BLACK
10
133.1149989999999832
20
-60.5600009999999997
40
0.39999900000125
50
-180.00014324
51
-89.99985676
0
ARC
8
BLACK
10
146.2849999999999966
20
-47.3900000000000006
40
0.4
50
0.00000000
51
90.00000000
0
ARC
8
BLACK
10
146.2849999999999966
20
-60.5599999999999952
40
0.4
50
-90.00000000
51
-0.00000000
0
LINE
8
BLACK
6
CONTINUOUS
10
27.9399999999999977
20
-117.7099999999999937
11
27.9399999999999977
21
-104.539999999999992
0
LINE
8
BLACK
6
CONTINUOUS
10
28.3399999999999999
20
-104.1400000000000006
11
98.6599999999999966
21
-104.1400000000000006
0
LINE
8
BLACK
6
CONTINUOUS
10
98.6599999999999966
20
-118.1099999999999994
11
28.3399999999999999
21
-118.1099999999999994
0
LINE
8
BLACK
6
CONTINUOUS
10
99.0600000000000023
20
-104.539999999999992
11
99.0600000000000023
21
-117.7099999999999937
0
ARC
8
BLACK
10
28.3399989999999988
20
-104.5399989999999946
40
0.39999900000125
50
-270.00014324
51
-179.99985676
0
ARC
8
BLACK
10
28.3399989999999988
20
-117.7100009999999912
40
0.39999900000125
50
-180.00014324
51
-89.99985676
0
ARC
8
BLACK
10
98.6599999999999966
20
-104.539999999999992
40
0.4
50
0.00000000
51
90.00000000
0
ARC
8
BLACK
10
98.6599999999999966
20
-117.7099999999999937
40
0.4
50
-90.00000000
51
-0.00000000
0
LINE
8
BLACK
6
CONTINUOUS
10
32.6869999999999976
20
-47.4749999999999943
11
32.6869999999999976
21
-60.4749999999999943
0
LINE
8
BLACK
6
CONTINUOUS
10
33.1869999999999976
20
-60.9749999999999943
11
46.1869999999999976
21
-60.9749999999999943
0
LINE
8
BLACK
6
CONTINUOUS
10
46.1869999999999976
20
-46.9750000000000014
11
33.1869999999999976
21
-46.9750000000000014
0
LINE
8
BLACK
6
CONTINUOUS
10
46.6869999999999976
20
-60.4749999999999943
11
46.6869999999999976
21
-47.4749999999999943
0
ARC
8
BLACK
10
33.1870009999999951
20
-47.4750009999999989
40
0.500001000001
50
90.00011459
51
179.99988541
0
ARC
8
BLACK
10
33.1897650000000013
20
-60.4738830000000007
40
0.500001000001
50
-179.99988541
51
-90.00011459
0
ARC
8
BLACK
10
46.1869999999999976
20
-47.4749999999999943
40
0.5
50
0.00000000
51
90.00000000
0
ARC
8
BLACK
10
46.1869999999999976
20
-60.4749999999999943
40
0.5
50
-90.00000000
51
-0.00000000
0
LINE
8
BLACK
6
CONTINUOUS
10
237.5149999999999864
20
-98.6599999999999966
11
237.5149999999999864
21
-85.4899999999999949
0
LINE
8
BLACK
6
CONTINUOUS
10
238.3999999999999773
20
-85.0899999999999892
11
237.914999999999992
21
-85.0899999999999892
0
LINE
8
BLACK
6
CONTINUOUS
10
238.5999999999999943
20
-84.8900000000000006
11
238.5999999999999943
21
-83.4749999999999943
0
LINE
8
BLACK
6
CONTINUOUS
10
239.
20
-83.0750000000000028
11
245.1999999999999886
21
-83.0750000000000028
0
LINE
8
BLACK
6
CONTINUOUS
10
245.5999999999999943
20
-84.8900000000000006
11
245.5999999999999943
21
-83.4749999999999943
0
LINE
8
BLACK
6
CONTINUOUS
10
245.7999999999999829
20
-85.0899999999999892
11
262.1999989999999912
21
-85.0899999999999892
0
LINE
8
BLACK
6
CONTINUOUS
10
262.3999999999999773
20
-84.8900000000000006
11
262.3999999999999773
21
-83.4749999999999943
0
LINE
8
BLACK
6
CONTINUOUS
10
269.
20
-83.0750000000000028
11
262.8000000000000114
21
-83.0750000000000028
0
LINE
8
BLACK
6
CONTINUOUS
10
269.3999999999999773
20
-84.8900000000000006
11
269.3999999999999773
21
-83.4749999999999943
0
LINE
8
BLACK
6
CONTINUOUS
10
269.5999999999999659
20
-85.0899999999999892
11
270.0849999999999795
21
-85.0899999999999892
0
LINE
8
BLACK
6
CONTINUOUS
10
270.0849999999999795
20
-99.0600000000000023
11
237.914999999999992
21
-99.0600000000000023
0
LINE
8
BLACK
6
CONTINUOUS
10
270.4850000000000136
20
-85.4899999999999949
11
270.4850000000000136
21
-98.6599999999999966
0
ARC
8
BLACK
10
237.914999999999992
20
-85.4899999999999949
40
0.4
50
90.00000000
51
180.00000000
0
ARC
8
BLACK
10
237.914999999999992
20
-98.6599999999999966
40
0.4
50
-180.00000000
51
-90.00000000
0
ARC
8
BLACK
10
239.
20
-83.4749999999999943
40
0.4
50
90.00000000
51
180.00000000
0
ARC
8
BLACK
10
238.3999999999999773
20
-84.8900000000000006
40
0.2
50
-90.00000000
51
-0.00000000
0
ARC
8
BLACK
10
245.1999999999999886
20
-83.4749999999999943
40
0.4
50
0.00000000
51
90.00000000
0
ARC
8
BLACK
10
245.7999999999999829
20
-84.8900000000000006
40
0.2
50
-180.00000000
51
-90.00000000
0
ARC
8
BLACK
10
262.7999990000000139
20
-83.4749989999999968
40
0.39999900000125
50
-270.00014324
51
-179.99985676
0
ARC
8
BLACK
10
262.1999989999999912
20
-84.8899990000000031
40
0.2000010000025
50
-89.99971352
51
-0.00028648
0
ARC
8
BLACK
10
269.0000009999999975
20
-83.4749989999999968
40
0.39999900000125
50
-0.00014324
51
90.00014324
0
ARC
8
BLACK
10
269.6000050000000101
20
-84.889994999999999
40
0.2000050000624984
50
-179.99856764
51
-90.00143236
0
ARC
8
BLACK
10
270.085000999999977
20
-85.4899989999999974
40
0.39999900000125
50
-0.00014324
51
90.00014324
0
ARC
8
BLACK
10
270.085000999999977
20
-98.6600009999999941
40
0.39999900000125
50
-90.00014324
51
0.00014324
0
LINE
8
BLACK
6
CONTINUOUS
10
142.2399999999999807
20
-98.6599999999999966
11
142.2399999999999807
21
-85.4899999999999949
0
LINE
8
BLACK
6
CONTINUOUS
10
142.6399999999999864
20
-85.0899999999999892
11
155.8100000000000023
21
-85.0899999999999892
0
LINE
8
BLACK
6
CONTINUOUS
10
155.8100000000000023
20
-99.0600000000000023
11
142.6399999999999864
21
-99.0600000000000023
0
LINE
8
BLACK
6
CONTINUOUS
10
156.2099999999999795
20
-85.4899999999999949
11
156.2099999999999795
21
-98.6599999999999966
0
ARC
8
BLACK
10
142.6399989999999889
20
-85.4899989999999974
40
0.39999900000125
50
-270.00014324
51
-179.99985676
0
ARC
8
BLACK
10
142.6399989999999889
20
-98.6600009999999941
40
0.39999900000125
50
-180.00014324
51
-89.99985676
0
ARC
8
BLACK
10
155.8100000000000023
20
-85.4899999999999949
40
0.4
50
0.00000000
51
90.00000000
0
ARC
8
BLACK
10
155.8100000000000023
20
-98.6599999999999966
40
0.4
50
-90.00000000
51
-0.00000000
0
LINE
8
BLACK
6
CONTINUOUS
10
80.328000000000003
20
-79.6099999999999994
11
80.328000000000003
21
-66.4399999999999977
0
LINE
8
BLACK
6
CONTINUOUS
10
80.7279999999999944
20
-66.039999999999992
11
93.8979999999999961
21
-66.039999999999992
0
LINE
8
BLACK
6
CONTINUOUS
10
93.8979999999999961
20
-80.0099999999999909
11
80.7279999999999944
21
-80.0099999999999909
0
LINE
8
BLACK
6
CONTINUOUS
10
94.2980000000000018
20
-66.4399999999999977
11
94.2980000000000018
21
-79.6099999999999994
0
ARC
8
BLACK
10
80.727998999999997
20
-66.4399990000000003
40
0.39999900000125
50
-270.00014324
51
-179.99985676
0
ARC
8
BLACK
10
80.727998999999997
20
-79.6100009999999969
40
0.39999900000125
50
-180.00014324
51
-89.99985676
0
ARC
8
BLACK
10
93.8979999999999961
20
-66.4399999999999977
40
0.4
50
0.00000000
51
90.00000000
0
ARC
8
BLACK
10
93.8979999999999961
20
-79.6099999999999994
40
0.4
50
-90.00000000
51
-0.00000000
0
LINE
8
BLACK
6
CONTINUOUS
10
123.1899999999999977
20
-98.6599999999999966
11
123.1899999999999977
21
-85.4899999999999949
0
LINE
8
BLACK
6
CONTINUOUS
10
123.5899999999999892
20
-85.0899999999999892
11
136.7599999999999909
21
-85.0899999999999892
0
LINE
8
BLACK
6
CONTINUOUS
10
136.7599999999999909
20
-99.0600000000000023
11
123.5899999999999892
21
-99.0600000000000023
0
LINE
8
BLACK
6
CONTINUOUS
10
137.1599999999999966
20
-85.4899999999999949
11
137.1599999999999966
21
-98.6599999999999966
0
ARC
8
BLACK
10
123.5899989999999917
20
-85.4899989999999974
40
0.39999900000125
50
-270.00014324
51
-179.99985676
0
ARC
8
BLACK
10
123.5899989999999917
20
-98.6600009999999941
40
0.39999900000125
50
-180.00014324
51
-89.99985676
0
ARC
8
BLACK
10
136.7599999999999909
20
-85.4899999999999949
40
0.4
50
0.00000000
51
90.00000000
0
ARC
8
BLACK
10
136.7599999999999909
20
-98.6599999999999966
40
0.4
50
-90.00000000
51
-0.00000000
0
LINE
8
BLACK
6
CONTINUOUS
10
251.7620000000000005
20
-47.4749999999999943
11
251.7620000000000005
21
-60.4749999999999943
0
LINE
8
BLACK
6
CONTINUOUS
10
252.2620000000000005
20
-60.9749999999999943
11
265.2620000000000005
21
-60.9749999999999943
0
LINE
8
BLACK
6
CONTINUOUS
10
265.2620000000000005
20
-46.9750000000000014
11
252.2620000000000005
21
-46.9750000000000014
0
LINE
8
BLACK
6
CONTINUOUS
10
265.7620000000000005
20
-60.4749999999999943
11
265.7620000000000005
21
-47.4749999999999943
0
ARC
8
BLACK
10
252.2620009999999979
20
-47.4750009999999989
40
0.500001000001
50
90.00011459
51
179.99988541
0
ARC
8
BLACK
10
252.2647649999999828
20
-60.4738830000000007
40
0.500001000001
50
-179.99988541
51
-90.00011459
0
ARC
8
BLACK
10
265.2620000000000005
20
-47.4749999999999943
40
0.5
50
0.00000000
51
90.00000000
0
ARC
8
BLACK
10
265.2620000000000005
20
-60.4749999999999943
40
0.5
50
-90.00000000
51
-0.00000000
0
LINE
8
BLACK
6
CONTINUOUS
10
66.039999999999992
20
-98.6599999999999966
11
66.039999999999992
21
-85.4899999999999949
0
LINE
8
BLACK
6
CONTINUOUS
10
66.4399999999999977
20
-85.0899999999999892
11
79.6099999999999994
21
-85.0899999999999892
0
LINE
8
BLACK
6
CONTINUOUS
10
79.6099999999999994
20
-99.0600000000000023
11
66.4399999999999977
21
-99.0600000000000023
0
LINE
8
BLACK
6
CONTINUOUS
10
80.0099999999999909
20
-85.4899999999999949
11
80.0099999999999909
21
-98.6599999999999966
0
ARC
8
BLACK
10
66.4399990000000003
20
-85.4899989999999974
40
0.39999900000125
50
-270.00014324
51
-179.99985676
0
ARC
8
BLACK
10
66.4399990000000003
20
-98.6600009999999941
40
0.39999900000125
50
-180.00014324
51
-89.99985676
0
ARC
8
BLACK
10
79.6099999999999994
20
-85.4899999999999949
40
0.4
50
0.00000000
51
90.00000000
0
ARC
8
BLACK
10
79.6099999999999994
20
-98.6599999999999966
40
0.4
50
-90.00000000
51
-0.00000000
0
LINE
8
BLACK
6
CONTINUOUS
10
99.3780000000000001
20
-79.6099999999999994
11
99.3780000000000001
21
-66.4399999999999977
0
LINE
8
BLACK
6
CONTINUOUS
10
99.7779999999999916
20
-66.039999999999992
11
112.9479999999999933
21
-66.039999999999992
0
LINE
8
BLACK
6
CONTINUOUS
10
112.9479999999999933
20
-80.0099999999999909
11
99.7779999999999916
21
-80.0099999999999909
0
LINE
8
BLACK
6
CONTINUOUS
10
113.347999999999999
20
-66.4399999999999977
11
113.347999999999999
21
-79.6099999999999994
0
ARC
8
BLACK
10
99.7779989999999941
20
-66.4399990000000003
40
0.39999900000125
50
-270.00014324
51
-179.99985676
0
ARC
8
BLACK
10
99.7779989999999941
20
-79.6100009999999969
40
0.39999900000125
50
-180.00014324
51
-89.99985676
0
ARC
8
BLACK
10
112.9479999999999933
20
-66.4399999999999977
40
0.4
50
0.00000000
51
90.00000000
0
ARC
8
BLACK
10
112.9479999999999933
20
-79.6099999999999994
40
0.4
50
-90.00000000
51
-0.00000000
0
LINE
8
BLACK
6
CONTINUOUS
10
199.3899999999999864
20
-98.6599999999999966
11
199.3899999999999864
21
-85.4899999999999949
0
LINE
8
BLACK
6
CONTINUOUS
10
199.789999999999992
20
-85.0899999999999892
11
212.9599999999999795
21
-85.0899999999999892
0
LINE
8
BLACK
6
CONTINUOUS
10
212.9599999999999795
20
-99.0600000000000023
11
199.789999999999992
21
-99.0600000000000023
0
LINE
8
BLACK
6
CONTINUOUS
10
213.3599999999999852
20
-85.4899999999999949
11
213.3599999999999852
21
-98.6599999999999966
0
ARC
8
BLACK
10
199.7899989999999946
20
-85.4899989999999974
40
0.39999900000125
50
-270.00014324
51
-179.99985676
0
ARC
8
BLACK
10
199.7899989999999946
20
-98.6600009999999941
40
0.39999900000125
50
-180.00014324
51
-89.99985676
0
ARC
8
BLACK
10
212.9599999999999795
20
-85.4899999999999949
40
0.4
50
0.00000000
51
90.00000000
0
ARC
8
BLACK
10
212.9599999999999795
20
-98.6599999999999966
40
0.4
50
-90.00000000
51
-0.00000000
0
LINE
8
BLACK
6
CONTINUOUS
10
161.289999999999992
20
-98.6599999999999966
11
161.289999999999992
21
-85.4899999999999949
0
LINE
8
BLACK
6
CONTINUOUS
10
161.6899999999999977
20
-85.0899999999999892
11
174.8599999999999852
21
-85.0899999999999892
0
LINE
8
BLACK
6
CONTINUOUS
10
174.8599999999999852
20
-99.0600000000000023
11
161.6899999999999977
21
-99.0600000000000023
0
LINE
8
BLACK
6
CONTINUOUS
10
175.2599999999999909
20
-85.4899999999999949
11
175.2599999999999909
21
-98.6599999999999966
0
ARC
8
BLACK
10
161.6899990000000003
20
-85.4899989999999974
40
0.39999900000125
50
-270.00014324
51
-179.99985676
0
ARC
8
BLACK
10
161.6899990000000003
20
-98.6600009999999941
40
0.39999900000125
50
-180.00014324
51
-89.99985676
0
ARC
8
BLACK
10
174.8599999999999852
20
-85.4899999999999949
40
0.4
50
0.00000000
51
90.00000000
0
ARC
8
BLACK
10
174.8599999999999852
20
-98.6599999999999966
40
0.4
50
-90.00000000
51
-0.00000000
0
LINE
8
BLACK
6
CONTINUOUS
10
213.6779999999999973
20
-79.6099999999999994
11
213.6779999999999973
21
-66.4399999999999977
0
LINE
8
BLACK
6
CONTINUOUS
10
214.078000000000003
20
-66.039999999999992
11
227.2479999999999905
21
-66.039999999999992
0
LINE
8
BLACK
6
CONTINUOUS
10
227.2479999999999905
20
-80.0099999999999909
11
214.078000000000003
21
-80.0099999999999909
0
LINE
8
BLACK
6
CONTINUOUS
10
227.6479999999999961
20
-66.4399999999999977
11
227.6479999999999961
21
-79.6099999999999994
0
ARC
8
BLACK
10
214.0779989999999771
20
-66.4399990000000003
40
0.39999900000125
50
-270.00014324
51
-179.99985676
0
ARC
8
BLACK
10
214.0779989999999771
20
-79.6100009999999969
40
0.39999900000125
50
-180.00014324
51
-89.99985676
0
ARC
8
BLACK
10
227.2479999999999905
20
-66.4399999999999977
40
0.4
50
0.00000000
51
90.00000000
0
ARC
8
BLACK
10
227.2479999999999905
20
-79.6099999999999994
40
0.4
50
-90.00000000
51
-0.00000000
0
LINE
8
BLACK
6
CONTINUOUS
10
142.2399999999999807
20
-41.509999999999998
11
142.2399999999999807
21
-28.3399999999999999
0
LINE
8
BLACK
6
CONTINUOUS
10
142.6399999999999864
20
-27.9399999999999977
11
155.8100000000000023
21
-27.9399999999999977
0
LINE
8
BLACK
6
CONTINUOUS
10
155.8100000000000023
20
-41.9099999999999966
11
142.6399999999999864
21
-41.9099999999999966
0
LINE
8
BLACK
6
CONTINUOUS
10
156.2099999999999795
20
-28.3399999999999999
11
156.2099999999999795
21
-41.509999999999998
0
ARC
8
BLACK
10
142.6399989999999889
20
-28.3399989999999988
40
0.39999900000125
50
-270.00014324
51
-179.99985676
0
ARC
8
BLACK
10
142.6399989999999889
20
-41.5100009999999955
40
0.39999900000125
50
-180.00014324
51
-89.99985676
0
ARC
8
BLACK
10
155.8100000000000023
20
-28.3399999999999999
40
0.4
50
0.00000000
51
90.00000000
0
ARC
8
BLACK
10
155.8100000000000023
20
-41.509999999999998
40
0.4
50
-90.00000000
51
-0.00000000
0
LINE
8
BLACK
6
CONTINUOUS
10
107.6494999999999891
20
-102.5249999999999915
11
107.6494999999999891
21
-116.7249999999999943
0
LINE
8
BLACK
6
CONTINUOUS
10
108.0494999999999948
20
-117.1249989999999883
11
118.9552499999999924
21
-117.125
0
LINE
8
BLACK
6
CONTINUOUS
10
118.9552499999999924
20
-102.125
11
108.0494999999999948
21
-102.125
0
LINE
8
BLACK
6
CONTINUOUS
10
119.3552499999999981
20
-116.7249999999999943
11
119.3552499999999981
21
-102.5249999999999915
0
LINE
8
BLACK
6
CONTINUOUS
10
120.808250000000001
20
-104.539999999999992
11
120.808250000000001
21
-117.7099999999999937
0
LINE
8
BLACK
6
CONTINUOUS
10
121.2082499999999925
20
-118.1099999999999994
11
134.37824999999998
21
-118.1099999999999994
0
LINE
8
BLACK
6
CONTINUOUS
10
134.37824999999998
20
-104.1400000000000006
11
121.2082499999999925
21
-104.1400000000000006
0
LINE
8
BLACK
6
CONTINUOUS
10
134.7782499999999857
20
-117.7099999999999937
11
134.7782499999999857
21
-104.539999999999992
0
LINE
8
BLACK
6
CONTINUOUS
10
136.2312499999999886
20
-102.5249999999999915
11
136.2312499999999886
21
-116.7249999999999943
0
LINE
8
BLACK
6
CONTINUOUS
10
136.6312499999999943
20
-117.125
11
142.8312499999999829
21
-117.125
0
LINE
8
BLACK
6
CONTINUOUS
10
142.8312499999999829
20
-102.125
11
136.6312499999999943
21
-102.125
0
LINE
8
BLACK
6
CONTINUOUS
10
143.2312499999999886
20
-116.7249999999999943
11
143.2312499999999886
21
-102.5249999999999915
0
LINE
8
BLACK
6
CONTINUOUS
10
151.7644999999999982
20
-104.539999999999992
11
151.7644999999999982
21
-117.7099999999999937
0
LINE
8
BLACK
6
CONTINUOUS
10
152.1645000000000039
20
-118.1099999999999994
11
166.5802500000000066
21
-118.1099999999999994
0
LINE
8
BLACK
6
CONTINUOUS
10
159.5802500000000066
20
-104.1400000000000006
11
152.1645000000000039
21
-104.1400000000000006
0
LINE
8
BLACK
6
CONTINUOUS
10
159.9802499999999839
20
-102.5249999999999915
11
159.9802499999999839
21
-103.7399999999999949
0
LINE
8
BLACK
6
CONTINUOUS
10
166.5802500000000066
20
-102.125
11
160.3802499999999895
21
-102.125
0
LINE
8
BLACK
6
CONTINUOUS
10
166.9802499999999839
20
-117.7099999999999937
11
166.9802499999999839
21
-102.5249999999999915
0
LINE
8
BLACK
6
CONTINUOUS
10
168.4332499999999868
20
-104.539999999999992
11
168.4332499999999868
21
-117.7099999999999937
0
LINE
8
BLACK
6
CONTINUOUS
10
168.8332499999999925
20
-118.1099999999999994
11
182.00324999999998
21
-118.1099999999999994
0
LINE
8
BLACK
6
CONTINUOUS
10
182.00324999999998
20
-104.1400000000000006
11
168.8332499999999925
21
-104.1400000000000006
0
LINE
8
BLACK
6
CONTINUOUS
10
182.4032499999999857
20
-117.7099999999999937
11
182.4032499999999857
21
-104.539999999999992
0
LINE
8
BLACK
6
CONTINUOUS
10
183.8562499999999886
20
-102.5249999999999915
11
183.8562499999999886
21
-116.7249999999999943
0
LINE
8
BLACK
6
CONTINUOUS
10
184.2562499999999943
20
-117.125
11
190.4562499999999829
21
-117.125
0
LINE
8
BLACK
6
CONTINUOUS
10
190.4562499999999829
20
-102.125
11
184.2562499999999943
21
-102.125
0
LINE
8
BLACK
6
CONTINUOUS
10
190.8562499999999886
20
-116.7249999999999943
11
190.8562499999999886
21
-102.5249999999999915
0
LINE
8
BLACK
6
CONTINUOUS
10
199.3894999999999982
20
-104.539999999999992
11
199.3894999999999982
21
-117.7099999999999937
0
LINE
8
BLACK
6
CONTINUOUS
10
199.7895000000000039
20
-118.1099999999999994
11
215.897199999999998
21
-118.1099999999999994
0
LINE
8
BLACK
6
CONTINUOUS
10
202.4495000000000005
20
-104.1400000000000006
11
199.7895000000000039
21
-104.1400000000000006
0
LINE
8
BLACK
6
CONTINUOUS
10
202.8494999999999777
20
-102.5249999999999915
11
202.8494999999999777
21
-103.7399999999999949
0
LINE
8
BLACK
6
CONTINUOUS
10
209.4495000000000005
20
-102.125
11
203.2494999999999834
21
-102.125
0
LINE
8
BLACK
6
CONTINUOUS
10
209.8494999999999777
20
-103.7399999999999949
11
209.8494999999999777
21
-102.5249999999999915
0
LINE
8
BLACK
6
CONTINUOUS
10
210.2494999999999834
20
-104.1400000000000006
11
215.897199999999998
21
-104.1400000000000006
0
ARC
8
BLACK
10
108.0494999999999948
20
-102.5249999999999915
40
0.4
50
90.00000000
51
180.00000000
0
ARC
8
BLACK
10
108.0494999999999948
20
-116.7249999999999943
40
0.4
50
-180.00000000
51
-90.00000000
0
ARC
8
BLACK
10
118.955299999999994
20
-102.5249999999999915
40
0.4000000031249999
50
0.00000000
51
90.00716197
0
ARC
8
BLACK
10
118.955299999999994
20
-116.7249999999999943
40
0.39995
50
-90.00716197
51
-0.00000000
0
ARC
8
BLACK
10
121.2081999999999908
20
-104.539999999999992
40
0.39995
50
89.99283803
51
180.00000000
0
ARC
8
BLACK
10
121.2081999999999908
20
-117.7099999999999937
40
0.4000000031249999
50
-180.00000000
51
-89.99283803
0
ARC
8
BLACK
10
134.3782999999999959
20
-104.539999999999992
40
0.4000000031249999
50
0.00000000
51
90.00716197
0
ARC
8
BLACK
10
134.3782999999999959
20
-117.7099999999999937
40
0.39995
50
-90.00716197
51
-0.00000000
0
ARC
8
BLACK
10
136.6312000000000069
20
-102.5249999999999915
40
0.39995
50
89.99283803
51
180.00000000
0
ARC
8
BLACK
10
136.6312000000000069
20
-116.7249999999999943
40
0.4000000031249999
50
-180.00000000
51
-89.99283803
0
ARC
8
BLACK
10
142.8312999999999988
20
-102.5249999999999915
40
0.4000000031249999
50
0.00000000
51
90.00716197
0
ARC
8
BLACK
10
142.8312999999999988
20
-116.7249999999999943
40
0.39995
50
-90.00716197
51
-0.00000000
0
ARC
8
BLACK
10
152.1645000000000039
20
-104.539999999999992
40
0.4
50
90.00000000
51
180.00000000
0
ARC
8
BLACK
10
152.1645000000000039
20
-117.7099999999999937
40
0.4
50
-180.00000000
51
-90.00000000
0
ARC
8
BLACK
10
160.3802499999999895
20
-102.5249999999999915
40
0.4
50
90.00000000
51
180.00000000
0
ARC
8
BLACK
10
159.5802500000000066
20
-103.7399999999999949
40
0.4
50
-90.00000000
51
-0.00000000
0
ARC
8
BLACK
10
166.5803349999999909
20
-102.5249149999999929
40
0.3999150090331694
50
-0.01217794
51
90.01217794
0
ARC
8
BLACK
10
166.5802149999999813
20
-117.7099649999999968
40
0.400035001531116
50
-89.99498706
51
-0.00501294
0
ARC
8
BLACK
10
168.8332849999999894
20
-104.5400349999999889
40
0.400035001531116
50
90.00501294
51
179.99498706
0
ARC
8
BLACK
10
168.8331649999999797
20
-117.7100849999999923
40
0.3999150090331694
50
-180.01217794
51
-89.98782206
0
ARC
8
BLACK
10
182.0033349999999928
20
-104.5399149999999935
40
0.3999150090331694
50
-0.01217794
51
90.01217794
0
ARC
8
BLACK
10
182.0032149999999831
20
-117.7099649999999968
40
0.400035001531116
50
-89.99498706
51
-0.00501294
0
ARC
8
BLACK
10
184.2562849999999912
20
-102.5250349999999884
40
0.400035001531116
50
90.00501294
51
179.99498706
0
ARC
8
BLACK
10
184.2561649999999815
20
-116.7250849999999929
40
0.3999150090331694
50
-180.01217794
51
-89.98782206
0
ARC
8
BLACK
10
190.4563349999999957
20
-102.5249149999999929
40
0.3999150090331694
50
-0.01217794
51
90.01217794
0
ARC
8
BLACK
10
190.456214999999986
20
-116.7249649999999974
40
0.400035001531116
50
-89.99498706
51
-0.00501294
0
ARC
8
BLACK
10
199.789498999999978
20
-104.5399989999999946
40
0.39999900000125
50
-270.00014324
51
-179.99985676
0
ARC
8
BLACK
10
199.789498999999978
20
-117.7100009999999912
40
0.39999900000125
50
-180.00014324
51
-89.99985676
0
ARC
8
BLACK
10
203.2494989999999859
20
-102.524998999999994
40
0.39999900000125
50
-270.00014324
51
-179.99985676
0
ARC
8
BLACK
10
202.4495009999999979
20
-103.7400009999999924
40
0.39999900000125
50
-90.00014324
51
0.00014324
0
ARC
8
BLACK
10
209.4495009999999979
20
-102.524998999999994
40
0.39999900000125
50
-0.00014324
51
90.00014324
0
ARC
8
BLACK
10
210.2494989999999859
20
-103.7400009999999924
40
0.39999900000125
50
-180.00014324
51
-89.99985676
0
LINE
8
BLACK
6
CONTINUOUS
10
170.8149999999999977
20
-60.5599999999999952
11
170.8149999999999977
21
-47.3900000000000006
0
LINE
8
BLACK
6
CONTINUOUS
10
171.2150000000000034
20
-46.9899999999999949
11
184.3849999999999909
21
-46.9899999999999949
0
LINE
8
BLACK
6
CONTINUOUS
10
184.3849999999999909
20
-60.9599999999999937
11
171.2150000000000034
21
-60.9599999999999937
0
LINE
8
BLACK
6
CONTINUOUS
10
184.7849999999999966
20
-47.3900000000000006
11
184.7849999999999966
21
-60.5599999999999952
0
ARC
8
BLACK
10
171.2149990000000059
20
-47.389998999999996
40
0.39999900000125
50
-270.00014324
51
-179.99985676
0
ARC
8
BLACK
10
171.2149990000000059
20
-60.5600009999999997
40
0.39999900000125
50
-180.00014324
51
-89.99985676
0
ARC
8
BLACK
10
184.3849999999999909
20
-47.3900000000000006
40
0.4
50
0.00000000
51
90.00000000
0
ARC
8
BLACK
10
184.3849999999999909
20
-60.5599999999999952
40
0.4
50
-90.00000000
51
-0.00000000
0
LINE
8
BLACK
6
CONTINUOUS
10
85.0899999999999892
20
-98.6599999999999966
11
85.0899999999999892
21
-85.4899999999999949
0
LINE
8
BLACK
6
CONTINUOUS
10
85.4899999999999949
20
-85.0899999999999892
11
98.6599999999999966
21
-85.0899999999999892
0
LINE
8
BLACK
6
CONTINUOUS
10
98.6599999999999966
20
-99.0600000000000023
11
85.4899999999999949
21
-99.0600000000000023
0
LINE
8
BLACK
6
CONTINUOUS
10
99.0600000000000023
20
-85.4899999999999949
11
99.0600000000000023
21
-98.6599999999999966
0
ARC
8
BLACK
10
85.4899989999999974
20
-85.4899989999999974
40
0.39999900000125
50
-270.00014324
51
-179.99985676
0
ARC
8
BLACK
10
85.4899989999999974
20
-98.6600009999999941
40
0.39999900000125
50
-180.00014324
51
-89.99985676
0
ARC
8
BLACK
10
98.6599999999999966
20
-85.4899999999999949
40
0.4
50
0.00000000
51
90.00000000
0
ARC
8
BLACK
10
98.6599999999999966
20
-98.6599999999999966
40
0.4
50
-90.00000000
51
-0.00000000
0
LINE
8
BLACK
6
CONTINUOUS
10
85.0899999999999892
20
-41.509999999999998
11
85.0899999999999892
21
-28.3399999999999999
0
LINE
8
BLACK
6
CONTINUOUS
10
85.4899999999999949
20
-27.9399999999999977
11
98.6599999999999966
21
-27.9399999999999977
0
LINE
8
BLACK
6
CONTINUOUS
10
98.6599999999999966
20
-41.9099999999999966
11
85.4899999999999949
21
-41.9099999999999966
0
LINE
8
BLACK
6
CONTINUOUS
10
99.0600000000000023
20
-28.3399999999999999
11
99.0600000000000023
21
-41.509999999999998
0
ARC
8
BLACK
10
85.4899989999999974
20
-28.3399989999999988
40
0.39999900000125
50
-270.00014324
51
-179.99985676
0
ARC
8
BLACK
10
85.4899989999999974
20
-41.5100009999999955
40
0.39999900000125
50
-180.00014324
51
-89.99985676
0
ARC
8
BLACK
10
98.6599999999999966
20
-28.3399999999999999
40
0.4
50
0.00000000
51
90.00000000
0
ARC
8
BLACK
10
98.6599999999999966
20
-41.509999999999998
40
0.4
50
-90.00000000
51
-0.00000000
0
LINE
8
BLACK
6
CONTINUOUS
10
27.9649999999999999
20
-98.6599999999999966
11
27.9649999999999999
21
-85.4899999999999949
0
LINE
8
BLACK
6
CONTINUOUS
10
28.8499999999999979
20
-85.0899999999999892
11
28.3649999999999984
21
-85.0899999999999892
0
LINE
8
BLACK
6
CONTINUOUS
10
29.0499999999999972
20
-84.8900000000000006
11
29.0499999999999972
21
-83.4749999999999943
0
LINE
8
BLACK
6
CONTINUOUS
10
29.4499999999999993
20
-83.0750000000000028
11
35.6499999999999986
21
-83.0750000000000028
0
LINE
8
BLACK
6
CONTINUOUS
10
36.0499999999999972
20
-84.8900000000000006
11
36.0499999999999972
21
-83.4749999999999943
0
LINE
8
BLACK
6
CONTINUOUS
10
36.25
20
-85.0899999999999892
11
52.6499990000000011
21
-85.0899999999999892
0
LINE
8
BLACK
6
CONTINUOUS
10
52.8499999999999943
20
-84.8900000000000006
11
52.8499999999999943
21
-83.4749999999999943
0
LINE
8
BLACK
6
CONTINUOUS
10
59.4499999999999957
20
-83.0750000000000028
11
53.25
21
-83.0750000000000028
0
LINE
8
BLACK
6
CONTINUOUS
10
59.8499999999999943
20
-84.8900000000000006
11
59.8499999999999943
21
-83.4749999999999943
0
LINE
8
BLACK
6
CONTINUOUS
10
60.0499999999999972
20
-85.0899999999999892
11
60.5349999999999966
21
-85.0899999999999892
0
LINE
8
BLACK
6
CONTINUOUS
10
60.5349999999999966
20
-99.0600000000000023
11
28.3649999999999984
21
-99.0600000000000023
0
LINE
8
BLACK
6
CONTINUOUS
10
60.9349999999999952
20
-85.4899999999999949
11
60.9349999999999952
21
-98.6599999999999966
0
ARC
8
BLACK
10
28.3649999999999984
20
-85.4899999999999949
40
0.4
50
90.00000000
51
180.00000000
0
ARC
8
BLACK
10
28.3649999999999984
20
-98.6599999999999966
40
0.4
50
-180.00000000
51
-90.00000000
0
ARC
8
BLACK
10
29.4499999999999993
20
-83.4749999999999943
40
0.4
50
90.00000000
51
180.00000000
0
ARC
8
BLACK
10
28.8499999999999979
20
-84.8900000000000006
40
0.2
50
-90.00000000
51
-0.00000000
0
ARC
8
BLACK
10
35.6499999999999986
20
-83.4749999999999943
40
0.4
50
0.00000000
51
90.00000000
0
ARC
8
BLACK
10
36.25
20
-84.8900000000000006
40
0.2
50
-180.00000000
51
-90.00000000
0
ARC
8
BLACK
10
53.2499989999999954
20
-83.4749989999999968
40
0.39999900000125
50
-270.00014324
51
-179.99985676
0
ARC
8
BLACK
10
52.6499990000000011
20
-84.8899990000000031
40
0.2000010000025
50
-89.99971352
51
-0.00028648
0
ARC
8
BLACK
10
59.4500010000000003
20
-83.4749989999999968
40
0.39999900000125
50
-0.00014324
51
90.00014324
0
ARC
8
BLACK
10
60.0500049999999987
20
-84.889994999999999
40
0.2000050000624984
50
-179.99856764
51
-90.00143236
0
ARC
8
BLACK
10
60.5350009999999941
20
-85.4899989999999974
40
0.39999900000125
50
-0.00014324
51
90.00014324
0
ARC
8
BLACK
10
60.5350009999999941
20
-98.6600009999999941
40
0.39999900000125
50
-90.00014324
51
0.00014324
0
LINE
8
BLACK
6
CONTINUOUS
10
104.1400000000000006
20
-98.6599999999999966
11
104.1400000000000006
21
-85.4899999999999949
0
LINE
8
BLACK
6
CONTINUOUS
10
104.539999999999992
20
-85.0899999999999892
11
117.7099999999999937
21
-85.0899999999999892
0
LINE
8
BLACK
6
CONTINUOUS
10
117.7099999999999937
20
-99.0600000000000023
11
104.539999999999992
21
-99.0600000000000023
0
LINE
8
BLACK
6
CONTINUOUS
10
118.1099999999999994
20
-85.4899999999999949
11
118.1099999999999994
21
-98.6599999999999966
0
ARC
8
BLACK
10
104.5399989999999946
20
-85.4899989999999974
40
0.39999900000125
50
-270.00014324
51
-179.99985676
0
ARC
8
BLACK
10
104.5399989999999946
20
-98.6600009999999941
40
0.39999900000125
50
-180.00014324
51
-89.99985676
0
ARC
8
BLACK
10
117.7099999999999937
20
-85.4899999999999949
40
0.4
50
0.00000000
51
90.00000000
0
ARC
8
BLACK
10
117.7099999999999937
20
-98.6599999999999966
40
0.4
50
-90.00000000
51
-0.00000000
0
LINE
8
BLACK
6
CONTINUOUS
10
208.914999999999992
20
-60.5599999999999952
11
208.914999999999992
21
-47.3900000000000006
0
LINE
8
BLACK
6
CONTINUOUS
10
209.3149999999999977
20
-46.9899999999999949
11
222.4849999999999852
21
-46.9899999999999949
0
LINE
8
BLACK
6
CONTINUOUS
10
222.4849999999999852
20
-60.9599999999999937
11
209.3149999999999977
21
-60.9599999999999937
0
LINE
8
BLACK
6
CONTINUOUS
10
222.8849999999999909
20
-47.3900000000000006
11
222.8849999999999909
21
-60.5599999999999952
0
ARC
8
BLACK
10
209.3149990000000003
20
-47.389998999999996
40
0.39999900000125
50
-270.00014324
51
-179.99985676
0
ARC
8
BLACK
10
209.3149990000000003
20
-60.5600009999999997
40
0.39999900000125
50
-180.00014324
51
-89.99985676
0
ARC
8
BLACK
10
222.4849999999999852
20
-47.3900000000000006
40
0.4
50
0.00000000
51
90.00000000
0
ARC
8
BLACK
10
222.4849999999999852
20
-60.5599999999999952
40
0.4
50
-90.00000000
51
-0.00000000
0
LINE
8
BLACK
6
CONTINUOUS
10
215.8999999999999773
20
-104.1400000000000006
11
270.1100000000000136
21
-104.1400000000000006
0
LINE
8
BLACK
6
CONTINUOUS
10
270.1100000000000136
20
-118.1099999999999994
11
215.8999999999999773
21
-118.1099999999999994
0
LINE
8
BLACK
6
CONTINUOUS
10
270.5099999999999909
20
-104.539999999999992
11
270.5099999999999909
21
-117.7099999999999937
0
ARC
8
BLACK
10
270.1100000000000136
20
-104.539999999999992
40
0.4
50
0.00000000
51
90.00000000
0
ARC
8
BLACK
10
270.1100000000000136
20
-117.7099999999999937
40
0.4
50
-90.00000000
51
-0.00000000
0
LINE
8
BLACK
6
CONTINUOUS
10
94.6149999999999949
20
-60.5599999999999952
11
94.6149999999999949
21
-47.3900000000000006
0
LINE
8
BLACK
6
CONTINUOUS
10
95.0150000000000006
20
-46.9899999999999949
11
108.1849999999999881
21
-46.9899999999999949
0
LINE
8
BLACK
6
CONTINUOUS
10
108.1849999999999881
20
-60.9599999999999937
11
95.0150000000000006
21
-60.9599999999999937
0
LINE
8
BLACK
6
CONTINUOUS
10
108.5849999999999937
20
-47.3900000000000006
11
108.5849999999999937
21
-60.5599999999999952
0
ARC
8
BLACK
10
95.0149989999999889
20
-47.389998999999996
40
0.39999900000125
50
-270.00014324
51
-179.99985676
0
ARC
8
BLACK
10
95.0149989999999889
20
-60.5600009999999997
40
0.39999900000125
50
-180.00014324
51
-89.99985676
0
ARC
8
BLACK
10
108.1849999999999881
20
-47.3900000000000006
40
0.4
50
0.00000000
51
90.00000000
0
ARC
8
BLACK
10
108.1849999999999881
20
-60.5599999999999952
40
0.4
50
-90.00000000
51
-0.00000000
0
LINE
8
BLACK
6
CONTINUOUS
10
118.4279999999999973
20
-79.6099999999999994
11
118.4279999999999973
21
-66.4399999999999977
0
LINE
8
BLACK
6
CONTINUOUS
10
118.8279999999999887
20
-66.039999999999992
11
131.9979999999999905
21
-66.039999999999992
0
LINE
8
BLACK
6
CONTINUOUS
10
131.9979999999999905
20
-80.0099999999999909
11
118.8279999999999887
21
-80.0099999999999909
0
LINE
8
BLACK
6
CONTINUOUS
10
132.3979999999999961
20
-66.4399999999999977
11
132.3979999999999961
21
-79.6099999999999994
0
ARC
8
BLACK
10
118.8279989999999913
20
-66.4399990000000003
40
0.39999900000125
50
-270.00014324
51
-179.99985676
0
ARC
8
BLACK
10
118.8279989999999913
20
-79.6100009999999969
40
0.39999900000125
50
-180.00014324
51
-89.99985676
0
ARC
8
BLACK
10
131.9979999999999905
20
-66.4399999999999977
40
0.4
50
0.00000000
51
90.00000000
0
ARC
8
BLACK
10
131.9979999999999905
20
-79.6099999999999994
40
0.4
50
-90.00000000
51
-0.00000000
0
LINE
8
BLACK
6
CONTINUOUS
10
180.3400000000000034
20
-98.6599999999999966
11
180.3400000000000034
21
-85.4899999999999949
0
LINE
8
BLACK
6
CONTINUOUS
10
180.7399999999999807
20
-85.0899999999999892
11
193.9099999999999966
21
-85.0899999999999892
0
LINE
8
BLACK
6
CONTINUOUS
10
193.9099999999999966
20
-99.0600000000000023
11
180.7399999999999807
21
-99.0600000000000023
0
LINE
8
BLACK
6
CONTINUOUS
10
194.3100000000000023
20
-85.4899999999999949
11
194.3100000000000023
21
-98.6599999999999966
0
ARC
8
BLACK
10
180.7399989999999832
20
-85.4899989999999974
40
0.39999900000125
50
-270.00014324
51
-179.99985676
0
ARC
8
BLACK
10
180.7399989999999832
20
-98.6600009999999941
40
0.39999900000125
50
-180.00014324
51
-89.99985676
0
ARC
8
BLACK
10
193.9099999999999966
20
-85.4899999999999949
40
0.4
50
0.00000000
51
90.00000000
0
ARC
8
BLACK
10
193.9099999999999966
20
-98.6599999999999966
40
0.4
50
-90.00000000
51
-0.00000000
0
LINE
8
BLACK
6
CONTINUOUS
10
113.664999999999992
20
-60.5599999999999952
11
113.664999999999992
21
-47.3900000000000006
0
LINE
8
BLACK
6
CONTINUOUS
10
114.0649999999999977
20
-46.9899999999999949
11
127.2349999999999994
21
-46.9899999999999949
0
LINE
8
BLACK
6
CONTINUOUS
10
127.2349999999999994
20
-60.9599999999999937
11
114.0649999999999977
21
-60.9599999999999937
0
LINE
8
BLACK
6
CONTINUOUS
10
127.6349999999999909
20
-47.3900000000000006
11
127.6349999999999909
21
-60.5599999999999952
0
ARC
8
BLACK
10
114.0649990000000003
20
-47.389998999999996
40
0.39999900000125
50
-270.00014324
51
-179.99985676
0
ARC
8
BLACK
10
114.0649990000000003
20
-60.5600009999999997
40
0.39999900000125
50
-180.00014324
51
-89.99985676
0
ARC
8
BLACK
10
127.2349999999999994
20
-47.3900000000000006
40
0.4
50
0.00000000
51
90.00000000
0
ARC
8
BLACK
10
127.2349999999999994
20
-60.5599999999999952
40
0.4
50
-90.00000000
51
-0.00000000
0
LINE
8
BLACK
6
CONTINUOUS
10
35.0689999999999955
20
-66.5249999999999915
11
35.0689999999999955
21
-79.5249999999999915
0
LINE
8
BLACK
6
CONTINUOUS
10
35.5689999999999955
20
-80.0249999999999915
11
48.5689999999999955
21
-80.0249999999999915
0
LINE
8
BLACK
6
CONTINUOUS
10
48.5689999999999955
20
-66.0249999999999915
11
35.5689999999999955
21
-66.0249999999999915
0
LINE
8
BLACK
6
CONTINUOUS
10
49.0689999999999955
20
-79.5249999999999915
11
49.0689999999999955
21
-66.5249999999999915
0
ARC
8
BLACK
10
35.5690010000000001
20
-66.5250010000000032
40
0.500001000001
50
90.00011459
51
179.99988541
0
ARC
8
BLACK
10
35.5717649999999992
20
-79.5238829999999979
40
0.500001000001
50
-179.99988541
51
-90.00011459
0
ARC
8
BLACK
10
48.5689999999999955
20
-66.5249999999999915
40
0.5
50
0.00000000
51
90.00000000
0
ARC
8
BLACK
10
48.5689999999999955
20
-79.5249999999999915
40
0.5
50
-90.00000000
51
-0.00000000
0
LINE
8
BLACK
6
CONTINUOUS
10
46.9899999999999949
20
-41.509999999999998
11
46.9899999999999949
21
-28.3399999999999999
0
LINE
8
BLACK
6
CONTINUOUS
10
47.3900000000000006
20
-27.9399999999999977
11
60.5599999999999952
21
-27.9399999999999977
0
LINE
8
BLACK
6
CONTINUOUS
10
60.5599999999999952
20
-41.9099999999999966
11
47.3900000000000006
21
-41.9099999999999966
0
LINE
8
BLACK
6
CONTINUOUS
10
60.9599999999999937
20
-28.3399999999999999
11
60.9599999999999937
21
-41.509999999999998
0
ARC
8
BLACK
10
47.389998999999996
20
-28.3399989999999988
40
0.39999900000125
50
-270.00014324
51
-179.99985676
0
ARC
8
BLACK
10
47.389998999999996
20
-41.5100009999999955
40
0.39999900000125
50
-180.00014324
51
-89.99985676
0
ARC
8
BLACK
10
60.5599999999999952
20
-28.3399999999999999
40
0.4
50
0.00000000
51
90.00000000
0
ARC
8
BLACK
10
60.5599999999999952
20
-41.509999999999998
40
0.4
50
-90.00000000
51
-0.00000000
0
LINE
8
BLACK
6
CONTINUOUS
10
194.6279999999999859
20
-79.6099999999999994
11
194.6279999999999859
21
-66.4399999999999977
0
LINE
8
BLACK
6
CONTINUOUS
10
195.0279999999999916
20
-66.039999999999992
11
208.1979999999999791
21
-66.039999999999992
0
LINE
8
BLACK
6
CONTINUOUS
10
208.1979999999999791
20
-80.0099999999999909
11
195.0279999999999916
21
-80.0099999999999909
0
LINE
8
BLACK
6
CONTINUOUS
10
208.5979999999999848
20
-66.4399999999999977
11
208.5979999999999848
21
-79.6099999999999994
0
ARC
8
BLACK
10
195.0279989999999941
20
-66.4399990000000003
40
0.39999900000125
50
-270.00014324
51
-179.99985676
0
ARC
8
BLACK
10
195.0279989999999941
20
-79.6100009999999969
40
0.39999900000125
50
-180.00014324
51
-89.99985676
0
ARC
8
BLACK
10
208.1979999999999791
20
-66.4399999999999977
40
0.4
50
0.00000000
51
90.00000000
0
ARC
8
BLACK
10
208.1979999999999791
20
-79.6099999999999994
40
0.4
50
-90.00000000
51
-0.00000000
0
LINE
8
BLACK
6
CONTINUOUS
10
27.9399999999999977
20
-41.509999999999998
11
27.9399999999999977
21
-28.3399999999999999
0
LINE
8
BLACK
6
CONTINUOUS
10
28.3399999999999999
20
-27.9399999999999977
11
41.509999999999998
21
-27.9399999999999977
0
LINE
8
BLACK
6
CONTINUOUS
10
41.509999999999998
20
-41.9099999999999966
11
28.3399999999999999
21
-41.9099999999999966
0
LINE
8
BLACK
6
CONTINUOUS
10
41.9099999999999966
20
-28.3399999999999999
11
41.9099999999999966
21
-41.509999999999998
0
ARC
8
BLACK
10
28.3399989999999988
20
-28.3399989999999988
40
0.39999900000125
50
-270.00014324
51
-179.99985676
0
ARC
8
BLACK
10
28.3399989999999988
20
-41.5100009999999955
40
0.39999900000125
50
-180.00014324
51
-89.99985676
0
ARC
8
BLACK
10
41.509999999999998
20
-28.3399999999999999
40
0.4
50
0.00000000
51
90.00000000
0
ARC
8
BLACK
10
41.509999999999998
20
-41.509999999999998
40
0.4
50
-90.00000000
51
-0.00000000
0
LINE
8
BLACK
6
CONTINUOUS
10
175.578000000000003
20
-79.6099999999999994
11
175.578000000000003
21
-66.4399999999999977
0
LINE
8
BLACK
6
CONTINUOUS
10
175.9779999999999802
20
-66.039999999999992
11
189.1479999999999961
21
-66.039999999999992
0
LINE
8
BLACK
6
CONTINUOUS
10
189.1479999999999961
20
-80.0099999999999909
11
175.9779999999999802
21
-80.0099999999999909
0
LINE
8
BLACK
6
CONTINUOUS
10
189.5480000000000018
20
-66.4399999999999977
11
189.5480000000000018
21
-79.6099999999999994
0
ARC
8
BLACK
10
175.9779989999999827
20
-66.4399990000000003
40
0.39999900000125
50
-270.00014324
51
-179.99985676
0
ARC
8
BLACK
10
175.9779989999999827
20
-79.6100009999999969
40
0.39999900000125
50
-180.00014324
51
-89.99985676
0
ARC
8
BLACK
10
189.1479999999999961
20
-66.4399999999999977
40
0.4
50
0.00000000
51
90.00000000
0
ARC
8
BLACK
10
189.1479999999999961
20
-79.6099999999999994
40
0.4
50
-90.00000000
51
-0.00000000
0
LINE
8
BLACK
6
CONTINUOUS
10
123.1899999999999977
20
-41.509999999999998
11
123.1899999999999977
21
-28.3399999999999999
0
LINE
8
BLACK
6
CONTINUOUS
10
123.5899999999999892
20
-27.9399999999999977
11
136.7599999999999909
21
-27.9399999999999977
0
LINE
8
BLACK
6
CONTINUOUS
10
136.7599999999999909
20
-41.9099999999999966
11
123.5899999999999892
21
-41.9099999999999966
0
LINE
8
BLACK
6
CONTINUOUS
10
137.1599999999999966
20
-28.3399999999999999
11
137.1599999999999966
21
-41.509999999999998
0
ARC
8
BLACK
10
123.5899989999999917
20
-28.3399989999999988
40
0.39999900000125
50
-270.00014324
51
-179.99985676
0
ARC
8
BLACK
10
123.5899989999999917
20
-41.5100009999999955
40
0.39999900000125
50
-180.00014324
51
-89.99985676
0
ARC
8
BLACK
10
136.7599999999999909
20
-28.3399999999999999
40
0.4
50
0.00000000
51
90.00000000
0
ARC
8
BLACK
10
136.7599999999999909
20
-41.509999999999998
40
0.4
50
-90.00000000
51
-0.00000000
0
LINE
8
BLACK
6
CONTINUOUS
10
218.4399999999999977
20
-98.6599999999999966
11
218.4399999999999977
21
-85.4899999999999949
0
LINE
8
BLACK
6
CONTINUOUS
10
218.8400000000000034
20
-85.0899999999999892
11
232.0099999999999909
21
-85.0899999999999892
0
LINE
8
BLACK
6
CONTINUOUS
10
232.0099999999999909
20
-99.0600000000000023
11
218.8400000000000034
21
-99.0600000000000023
0
LINE
8
BLACK
6
CONTINUOUS
10
232.4099999999999966
20
-85.4899999999999949
11
232.4099999999999966
21
-98.6599999999999966
0
ARC
8
BLACK
10
218.8399989999999775
20
-85.4899989999999974
40
0.39999900000125
50
-270.00014324
51
-179.99985676
0
ARC
8
BLACK
10
218.8399989999999775
20
-98.6600009999999941
40
0.39999900000125
50
-180.00014324
51
-89.99985676
0
ARC
8
BLACK
10
232.0099999999999909
20
-85.4899999999999949
40
0.4
50
0.00000000
51
90.00000000
0
ARC
8
BLACK
10
232.0099999999999909
20
-98.6599999999999966
40
0.4
50
-90.00000000
51
-0.00000000
0
LINE
8
BLACK
6
CONTINUOUS
10
66.039999999999992
20
-41.509999999999998
11
66.039999999999992
21
-28.3399999999999999
0
LINE
8
BLACK
6
CONTINUOUS
10
66.4399999999999977
20
-27.9399999999999977
11
79.6099999999999994
21
-27.9399999999999977
0
LINE
8
BLACK
6
CONTINUOUS
10
79.6099999999999994
20
-41.9099999999999966
11
66.4399999999999977
21
-41.9099999999999966
0
LINE
8
BLACK
6
CONTINUOUS
10
80.0099999999999909
20
-28.3399999999999999
11
80.0099999999999909
21
-41.509999999999998
0
ARC
8
BLACK
10
66.4399990000000003
20
-28.3399989999999988
40
0.39999900000125
50
-270.00014324
51
-179.99985676
0
ARC
8
BLACK
10
66.4399990000000003
20
-41.5100009999999955
40
0.39999900000125
50
-180.00014324
51
-89.99985676
0
ARC
8
BLACK
10
79.6099999999999994
20
-28.3399999999999999
40
0.4
50
0.00000000
51
90.00000000
0
ARC
8
BLACK
10
79.6099999999999994
20
-41.509999999999998
40
0.4
50
-90.00000000
51
-0.00000000
0
LINE
8
BLACK
6
CONTINUOUS
10
156.5279999999999916
20
-79.6099999999999994
11
156.5279999999999916
21
-66.4399999999999977
0
LINE
8
BLACK
6
CONTINUOUS
10
156.9279999999999973
20
-66.039999999999992
11
170.0979999999999848
21
-66.039999999999992
0
LINE
8
BLACK
6
CONTINUOUS
10
170.0979999999999848
20
-80.0099999999999909
11
156.9279999999999973
21
-80.0099999999999909
0
LINE
8
BLACK
6
CONTINUOUS
10
170.4979999999999905
20
-66.4399999999999977
11
170.4979999999999905
21
-79.6099999999999994
0
ARC
8
BLACK
10
156.9279989999999998
20
-66.4399990000000003
40
0.39999900000125
50
-270.00014324
51
-179.99985676
0
ARC
8
BLACK
10
156.9279989999999998
20
-79.6100009999999969
40
0.39999900000125
50
-180.00014324
51
-89.99985676
0
ARC
8
BLACK
10
170.0979999999999848
20
-66.4399999999999977
40
0.4
50
0.00000000
51
90.00000000
0
ARC
8
BLACK
10
170.0979999999999848
20
-79.6099999999999994
40
0.4
50
-90.00000000
51
-0.00000000
0
LINE
8
BLACK
6
CONTINUOUS
10
232.7277499999999861
20
-66.4399999999999977
11
232.7277499999999861
21
-79.6099999999999994
0
LINE
8
BLACK
6
CONTINUOUS
10
233.1277499999999918
20
-80.0099999999999909
11
267.728999999999985
21
-80.0099999999999909
0
LINE
8
BLACK
6
CONTINUOUS
10
235.8189999999999884
20
-66.039999999999992
11
233.1277499999999918
21
-66.039999999999992
0
LINE
8
BLACK
6
CONTINUOUS
10
236.2189999999999941
20
-64.4249999999999972
11
236.2189999999999941
21
-65.6400000000000006
0
LINE
8
BLACK
6
CONTINUOUS
10
242.8189999999999884
20
-64.0249999999999915
11
236.6189999999999998
21
-64.0249999999999915
0
LINE
8
BLACK
6
CONTINUOUS
10
243.2189999999999941
20
-65.6400000000000006
11
243.2189999999999941
21
-64.4249999999999972
0
LINE
8
BLACK
6
CONTINUOUS
10
259.6189999999999714
20
-66.0399989999999946
11
243.6189999999999998
21
-66.039999999999992
0
LINE
8
BLACK
6
CONTINUOUS
10
260.0190000000000055
20
-64.4249999999999972
11
260.0190000000000055
21
-65.6400000000000006
0
LINE
8
BLACK
6
CONTINUOUS
10
266.6189999999999714
20
-64.0249999999999915
11
260.4189999999999827
21
-64.0249999999999915
0
LINE
8
BLACK
6
CONTINUOUS
10
267.0190000000000055
20
-65.6400000000000006
11
267.0190000000000055
21
-64.4249999999999972
0
LINE
8
BLACK
6
CONTINUOUS
10
267.728999999999985
20
-66.039999999999992
11
267.4189989999999852
21
-66.039999999999992
0
LINE
8
BLACK
6
CONTINUOUS
10
268.1289999999999623
20
-79.6099999999999994
11
268.1289999999999623
21
-66.4399999999999977
0
ARC
8
BLACK
10
233.1276999999999759
20
-66.4399999999999977
40
0.39995
50
89.99283803
51
180.00000000
0
ARC
8
BLACK
10
233.1276999999999759
20
-79.6099999999999994
40
0.4000000031249999
50
-180.00000000
51
-89.99283803
0
ARC
8
BLACK
10
236.6189999999999998
20
-64.4249999999999972
40
0.4
50
90.00000000
51
180.00000000
0
ARC
8
BLACK
10
235.8189999999999884
20
-65.6400000000000006
40
0.4
50
-90.00000000
51
-0.00000000
0
ARC
8
BLACK
10
242.8189999999999884
20
-64.4249999999999972
40
0.4
50
0.00000000
51
90.00000000
0
ARC
8
BLACK
10
243.6189999999999998
20
-65.6400000000000006
40
0.4
50
-180.00000000
51
-90.00000000
0
ARC
8
BLACK
10
260.4189989999999852
20
-64.4249989999999997
40
0.39999900000125
50
-270.00014324
51
-179.99985676
0
ARC
8
BLACK
10
259.6190009999999688
20
-65.640000999999998
40
0.39999900000125
50
-90.00014324
51
0.00014324
0
ARC
8
BLACK
10
266.6190009999999688
20
-64.4249989999999997
40
0.39999900000125
50
-0.00014324
51
90.00014324
0
ARC
8
BLACK
10
267.4189989999999852
20
-65.640000999999998
40
0.39999900000125
50
-180.00014324
51
-89.99985676
0
ARC
8
BLACK
10
267.7290009999999825
20
-66.4399990000000003
40
0.39999900000125
50
-0.00014324
51
90.00014324
0
ARC
8
BLACK
10
267.7290009999999825
20
-79.6100009999999969
40
0.39999900000125
50
-90.00014324
51
0.00014324
0
LINE
8
BLACK
6
CONTINUOUS
10
218.4399999999999977
20
-41.509999999999998
11
218.4399999999999977
21
-28.3399999999999999
0
LINE
8
BLACK
6
CONTINUOUS
10
218.8400000000000034
20
-27.9399999999999977
11
232.0099999999999909
21
-27.9399999999999977
0
LINE
8
BLACK
6
CONTINUOUS
10
232.0099999999999909
20
-41.9099999999999966
11
218.8400000000000034
21
-41.9099999999999966
0
LINE
8
BLACK
6
CONTINUOUS
10
232.4099999999999966
20
-28.3399999999999999
11
232.4099999999999966
21
-41.509999999999998
0
ARC
8
BLACK
10
218.8399989999999775
20
-28.3399989999999988
40
0.39999900000125
50
-270.00014324
51
-179.99985676
0
ARC
8
BLACK
10
218.8399989999999775
20
-41.5100009999999955
40
0.39999900000125
50
-180.00014324
51
-89.99985676
0
ARC
8
BLACK
10
232.0099999999999909
20
-28.3399999999999999
40
0.4
50
0.00000000
51
90.00000000
0
ARC
8
BLACK
10
232.0099999999999909
20
-41.509999999999998
40
0.4
50
-90.00000000
51
-0.00000000
0
LINE
8
BLACK
6
CONTINUOUS
10
227.9650000000000034
20
-60.5599999999999952
11
227.9650000000000034
21
-47.3900000000000006
0
LINE
8
BLACK
6
CONTINUOUS
10
228.3649999999999807
20
-46.9899999999999949
11
241.5349999999999966
21
-46.9899999999999949
0
LINE
8
BLACK
6
CONTINUOUS
10
241.5349999999999966
20
-60.9599999999999937
11
228.3649999999999807
21
-60.9599999999999937
0
LINE
8
BLACK
6
CONTINUOUS
10
241.9350000000000023
20
-47.3900000000000006
11
241.9350000000000023
21
-60.5599999999999952
0
ARC
8
BLACK
10
228.3649989999999832
20
-47.389998999999996
40
0.39999900000125
50
-270.00014324
51
-179.99985676
0
ARC
8
BLACK
10
228.3649989999999832
20
-60.5600009999999997
40
0.39999900000125
50
-180.00014324
51
-89.99985676
0
ARC
8
BLACK
10
241.5349999999999966
20
-47.3900000000000006
40
0.4
50
0.00000000
51
90.00000000
0
ARC
8
BLACK
10
241.5349999999999966
20
-60.5599999999999952
40
0.4
50
-90.00000000
51
-0.00000000
0
LINE
8
BLACK
6
CONTINUOUS
10
137.4779999999999802
20
-79.6099999999999994
11
137.4779999999999802
21
-66.4399999999999977
0
LINE
8
BLACK
6
CONTINUOUS
10
137.8779999999999859
20
-66.039999999999992
11
151.0480000000000018
21
-66.039999999999992
0
LINE
8
BLACK
6
CONTINUOUS
10
151.0480000000000018
20
-80.0099999999999909
11
137.8779999999999859
21
-80.0099999999999909
0
LINE
8
BLACK
6
CONTINUOUS
10
151.4479999999999791
20
-66.4399999999999977
11
151.4479999999999791
21
-79.6099999999999994
0
ARC
8
BLACK
10
137.8779989999999884
20
-66.4399990000000003
40
0.39999900000125
50
-270.00014324
51
-179.99985676
0
ARC
8
BLACK
10
137.8779989999999884
20
-79.6100009999999969
40
0.39999900000125
50
-180.00014324
51
-89.99985676
0
ARC
8
BLACK
10
151.0480000000000018
20
-66.4399999999999977
40
0.4
50
0.00000000
51
90.00000000
0
ARC
8
BLACK
10
151.0480000000000018
20
-79.6099999999999994
40
0.4
50
-90.00000000
51
-0.00000000
0
CIRCLE
8
BLACK
10
82.5499999999999972
20
-44.4499999999999957
40
1.9999989999999999
0
LINE
8
BLACK
6
CONTINUOUS
10
234.25
20
-46.4499989999999983
11
235.6499999999999773
21
-46.4499989999999983
0
ARC
8
BLACK
10
235.6499999999999773
20
-44.4499999999999957
40
1.9999989999999999
50
-90.00000000
51
90.00000000
0
LINE
8
BLACK
6
CONTINUOUS
10
235.6499999999999773
20
-42.4500010000000003
11
234.25
21
-42.4500010000000003
0
ARC
8
BLACK
10
234.25
20
-44.4499999999999957
40
1.9999989999999999
50
90.00000000
51
270.00000000
0
LINE
8
BLACK
6
CONTINUOUS
10
219.949799999999982
20
-103.5999989999999968
11
221.3497999999999877
21
-103.5999989999999968
0
ARC
8
BLACK
10
221.3497999999999877
20
-101.5999999999999943
40
1.9999989999999999
50
-90.00000000
51
90.00000000
0
LINE
8
BLACK
6
CONTINUOUS
10
221.3497999999999877
20
-99.6000009999999918
11
219.949799999999982
21
-99.6000009999999918
0
ARC
8
BLACK
10
219.949799999999982
20
-101.5999999999999943
40
1.9999989999999999
50
90.00000000
51
270.00000000
0
LINE
8
BLACK
6
CONTINUOUS
10
134.2502000000000066
20
-84.5499989999999997
11
135.6501999999999839
21
-84.5499989999999997
0
ARC
8
BLACK
10
135.6501999999999839
20
-82.5499999999999972
40
1.9999989999999999
50
-90.00000000
51
90.00000000
0
LINE
8
BLACK
6
CONTINUOUS
10
135.6501999999999839
20
-80.5500009999999946
11
134.2502000000000066
21
-80.5500009999999946
0
ARC
8
BLACK
10
134.2502000000000066
20
-82.5499999999999972
40
1.9999989999999999
50
90.00000000
51
270.00000000
  0
ENDSEC
  0
EOF
