  0
SECTION
  2
HEADER
  9
$ANGBASE
  50
0.0
  9
$ANGDIR
  70
1
  9
$MEASUREMENT
  70
1
  0
ENDSEC
  0
SECTION
  2
TABLES
  0
TABLE
  2
LTYPE
  70
4
  0
LTYPE
  5
40F
  2
CONTINUOUS
  70
0
  3
Solid line
  72
65
  73
0
  40
0.0
  0
LTYPE
  5
410
  2
DASHDOT
 70
0
  3
Dash Dot ____ _ ____ _
 72
65
 73
4
 40
2.0
 49
1.25
 49
-0.25
 49
0.25
 49
-0.25
  0
LTYPE
  5
411
  2
DASHED
 70
0
  3
Dashed __ __ __ __ __
 72
65
 73
2
 40
0.75
 49
0.5
 49
-0.25
  0
LTYPE
  5
43B
  2
DOTTED
 70
0
  3
Dotted .  .  .  .
 72
65
 73
2
 40
0.2
 49
0.0
 49
-0.2
  0
ENDTAB
  0
TABLE
  2
STYLE
  70
4
  0
STYLE
  2
KICAD
  70
0
  40
0
  41
1
  42
1
  50
0
  71
0
  3
isocp.shx
  0
STYLE
  2
KICADB
  70
0
  40
0
  41
1
  42
1
  50
0
  71
0
  3
isocp.shx
  0
STYLE
  2
KICADI
  70
0
  40
0
  41
1
  42
1
  50
15
  71
0
  3
isocp.shx
  0
STYLE
  2
KICADBI
  70
0
  40
0
  41
1
  42
1
  50
15
  71
0
  3
isocp.shx
  0
ENDTAB
  0
TABLE
  2
LAYER
  70
1
  0
LAYER
  2
BLACK
  70
0
  62
7
  6
CONTINUOUS
  0
ENDTAB
  0
ENDSEC
  0
SECTION
  2
ENTITIES
0
LINE
8
BLACK
6
CONTINUOUS
10
131.2691910000000064
20
-104.1446380000000005
11
130.9369999999999834
21
-104.1446380000000005
0
LINE
8
BLACK
6
CONTINUOUS
10
152.1645000000000039
20
-118.1099999999999994
11
182.00324999999998
21
-118.1099999999999994
0
LINE
8
BLACK
6
CONTINUOUS
10
166.5801999999999907
20
-102.125
11
155.6187500000000057
21
-102.125
0
LINE
8
BLACK
6
CONTINUOUS
10
143.2306999999999846
20
-102.5249999999999915
11
143.2306999999999846
21
-103.9399999999999977
0
LINE
8
BLACK
6
CONTINUOUS
10
143.4307000000000016
20
-104.1400000000000006
11
146.2849499999999807
21
-104.1400000000000006
0
ARC
8
BLACK
10
182.0032999999999959
20
-117.7099999999999937
40
0.39995
50
-90.00716197
51
-0.00000000
0
ARC
8
BLACK
10
118.9547999999999917
20
-102.5249000000000024
40
0.3999000031257814
50
-0.03739016
51
90.00716376
0
LINE
8
BLACK
6
CONTINUOUS
10
131.469190999999995
20
-103.9446459999999917
11
131.4692499999999882
21
-102.5249999999999915
0
LINE
8
BLACK
6
CONTINUOUS
10
273.0500000000000114
20
-28.3999999999999986
11
273.0500000000000114
21
-117.6499999999999915
0
ARC
8
BLACK
10
131.8692000000000064
20
-102.5249999999999915
40
0.39995
50
89.99283803
51
180.00000000
0
ARC
8
BLACK
10
28.3999999999999986
20
-28.3999999999999986
40
3.
50
90.00000000
51
180.00000000
0
ARC
8
BLACK
10
107.9932999999999907
20
-102.5249999999999915
40
0.4
50
90.00000000
51
180.00000000
0
LINE
8
BLACK
6
CONTINUOUS
10
107.9932999999999907
20
-102.125
11
118.95474999999999
21
-102.125
0
LINE
8
BLACK
6
CONTINUOUS
10
155.0187499999999829
20
-104.1400000000000006
11
152.1645000000000039
21
-104.1400000000000006
0
LINE
8
BLACK
6
CONTINUOUS
10
166.9802589999999896
20
-103.9446420000000018
11
166.9801999999999964
21
-102.5249999999999915
0
LINE
8
BLACK
6
CONTINUOUS
10
146.6849499999999864
20
-104.539999999999992
11
146.6849499999999864
21
-117.7099999999999937
0
ARC
8
BLACK
10
146.2849999999999966
20
-104.539999999999992
40
0.4000000031249999
50
0.00000000
51
90.00716197
0
LINE
8
BLACK
6
CONTINUOUS
10
270.0500000000000114
20
-120.6499999999999915
11
28.3999999999999986
21
-120.6499999999999915
0
ARC
8
BLACK
10
182.6031999999999869
20
-117.3249999999999886
40
0.19995
50
89.98567606
51
180.00000000
0
LINE
8
BLACK
6
CONTINUOUS
10
116.0463029999999947
20
-117.7100039999999979
11
116.0463029999999947
21
-117.3250039999999927
0
ARC
8
BLACK
10
167.1802999999999884
20
-103.9445999999999941
40
0.2000340034219182
50
-179.98797035
51
-89.98940208
0
ARC
8
BLACK
10
270.0500000000000114
20
-117.6499999999999915
40
3.
50
-90.00000000
51
-0.00000000
0
LINE
8
BLACK
6
CONTINUOUS
10
119.3547499999999957
20
-102.5251609999999971
11
119.3547499999999957
21
-103.9400779999999997
0
ARC
8
BLACK
10
190.4562999999999988
20
-116.7249999999999943
40
0.39995
50
-90.00716197
51
-0.00000000
0
ARC
8
BLACK
10
152.1645000000000039
20
-117.7099999999999937
40
0.4
50
-180.00000000
51
-90.00000000
0
ARC
8
BLACK
10
115.8462999999999994
20
-117.3249999999999886
40
0.1999960000225005
50
-0.00114590
51
89.99914055
0
LINE
8
BLACK
6
CONTINUOUS
10
182.4032499999999857
20
-117.7099999999999937
11
182.4032499999999857
21
-117.3249999999999886
0
LINE
8
BLACK
6
CONTINUOUS
10
155.21875
20
-102.5249999999999915
11
155.21875
21
-103.9399999999999977
0
LINE
8
BLACK
6
CONTINUOUS
10
182.6032500000000027
20
-117.125
11
190.4562499999999829
21
-117.125
0
LINE
8
BLACK
6
CONTINUOUS
10
190.8562499999999886
20
-116.7249999999999943
11
190.8562000000000012
21
-102.5249999999999915
0
LINE
8
BLACK
6
CONTINUOUS
10
151.7644999999999982
20
-104.539999999999992
11
151.7644999999999982
21
-117.7099999999999937
0
LINE
8
BLACK
6
CONTINUOUS
10
131.8692499999999939
20
-102.125
11
142.8307000000000073
21
-102.125
0
ARC
8
BLACK
10
179.4946999999999946
20
-102.5249999999999915
40
0.3999500324052994
50
-270.00716197
51
-179.97693557
0
ARC
8
BLACK
10
155.0186999999999955
20
-103.9399999999999977
40
0.20005
50
-89.98567606
51
-0.00000000
0
LINE
8
BLACK
6
CONTINUOUS
10
233.1277499999999918
20
-66.039999999999992
11
65.2269989999999922
21
-66.039999999999992
0
LINE
8
BLACK
6
CONTINUOUS
10
190.4561999999999955
20
-102.125
11
179.494749999999982
21
-102.125
0
LINE
8
BLACK
6
CONTINUOUS
10
178.8948279999999897
20
-104.1400779999999884
11
167.1803369999999802
21
-104.1446339999999964
0
ARC
8
BLACK
10
28.3999999999999986
20
-117.6499999999999915
40
3.
50
-180.00000000
51
-90.00000000
0
LINE
8
BLACK
6
CONTINUOUS
10
119.5547249999999906
20
-104.1400819999999925
11
130.9369999999999834
21
-104.1446380000000005
0
LINE
8
BLACK
6
CONTINUOUS
10
115.8462499999999977
20
-117.125
11
107.9932499999999891
21
-117.125
0
ARC
8
BLACK
10
152.1645000000000039
20
-104.539999999999992
40
0.4
50
90.00000000
51
180.00000000
0
LINE
8
BLACK
6
CONTINUOUS
10
65.2270000000000039
20
-80.0099999999999909
11
233.1277999999999793
21
-80.0099999999999909
0
LINE
8
BLACK
6
CONTINUOUS
10
179.0947500000000048
20
-102.5251609999999971
11
179.0947500000000048
21
-103.9400779999999997
0
ARC
8
BLACK
10
190.4561999999999955
20
-102.5249999999999915
40
0.4
50
0.00000000
51
90.00000000
0
ARC
8
BLACK
10
270.0500000000000114
20
-28.3999999999999986
40
3.
50
0.00000000
51
90.00000000
0
LINE
8
BLACK
6
CONTINUOUS
10
107.5932499999999976
20
-116.7249999999999943
11
107.593199999999996
21
-102.5249999999999915
0
ARC
8
BLACK
10
119.5546999999999969
20
-103.9401999999999902
40
0.1998820015634224
50
-180.03382192
51
-89.99283380
0
LINE
8
BLACK
6
CONTINUOUS
10
28.3999999999999986
20
-25.3999999999999986
11
270.0500000000000114
21
-25.3999999999999986
0
LINE
8
BLACK
6
CONTINUOUS
10
131.4449999999999932
20
-118.1100039999999893
11
146.2849499999999807
21
-118.1099999999999994
0
ARC
8
BLACK
10
131.2690999999999804
20
-103.9445999999999941
40
0.2000910052875941
50
-89.97393537
51
-0.01317204
0
ARC
8
BLACK
10
116.4462999999999937
20
-117.7099999999999937
40
0.4000040000112499
50
-179.99942704
51
-89.99957029
0
ARC
8
BLACK
10
155.6186999999999898
20
-102.5249999999999915
40
0.39995
50
89.99283803
51
180.00000000
0
ARC
8
BLACK
10
143.4307000000000016
20
-103.9399999999999977
40
0.2
50
-180.00000000
51
-90.00000000
0
ARC
8
BLACK
10
142.8307000000000073
20
-102.5249999999999915
40
0.4
50
0.00000000
51
90.00000000
0
ARC
8
BLACK
10
107.9932000000000016
20
-116.7250999999999976
40
0.3999000031257814
50
-180.01432574
51
-89.99283624
0
LINE
8
BLACK
6
CONTINUOUS
10
25.3999999999999986
20
-117.6499999999999915
11
25.3999999999999986
21
-28.3999999999999986
0
ARC
8
BLACK
10
146.2849999999999966
20
-117.7099999999999937
40
0.39995
50
-90.00716197
51
-0.00000000
0
ARC
8
BLACK
10
178.8948000000000036
20
-103.940100000000001
40
0.1999500012103026
50
-89.99197771
51
0.00630411
0
ARC
8
BLACK
10
166.5801999999999907
20
-102.5249999999999915
40
0.4
50
0.00000000
51
90.00000000
0
LINE
8
BLACK
6
CONTINUOUS
10
131.4449999999999932
20
-118.1100039999999893
11
116.4463030000000003
21
-118.1100039999999893
0
LINE
8
BLACK
6
CONTINUOUS
10
104.1400000000000006
20
-28.3399999999999999
11
104.1400000000000006
21
-41.509999999999998
0
LINE
8
BLACK
6
CONTINUOUS
10
104.539999999999992
20
-41.9099999999999966
11
117.7099999999999937
21
-41.9099999999999966
0
LINE
8
BLACK
6
CONTINUOUS
10
117.7099999999999937
20
-27.9399999999999977
11
104.539999999999992
21
-27.9399999999999977
0
LINE
8
BLACK
6
CONTINUOUS
10
118.1099999999999994
20
-41.509999999999998
11
118.1099999999999994
21
-28.3399999999999999
0
ARC
8
BLACK
10
104.5399989999999946
20
-28.3399989999999988
40
0.39999900000125
50
-270.00014324
51
-179.99985676
0
ARC
8
BLACK
10
104.5399989999999946
20
-41.5100009999999955
40
0.39999900000125
50
-180.00014324
51
-89.99985676
0
ARC
8
BLACK
10
117.7099999999999937
20
-28.3399999999999999
40
0.4
50
0.00000000
51
90.00000000
0
ARC
8
BLACK
10
117.7099999999999937
20
-41.509999999999998
40
0.4
50
-90.00000000
51
-0.00000000
0
LINE
8
BLACK
6
CONTINUOUS
10
199.3899999999999864
20
-104.539999999999992
11
199.3899999999999864
21
-117.7099999999999937
0
LINE
8
BLACK
6
CONTINUOUS
10
199.789999999999992
20
-118.1099999999999994
11
270.1100000000000136
21
-118.1099999999999994
0
LINE
8
BLACK
6
CONTINUOUS
10
202.6499999999999773
20
-104.1400000000000006
11
199.789999999999992
21
-104.1400000000000006
0
LINE
8
BLACK
6
CONTINUOUS
10
202.8499999999999943
20
-102.5249999999999915
11
202.8499999999999943
21
-103.9399999999999977
0
LINE
8
BLACK
6
CONTINUOUS
10
209.4499999999999886
20
-102.125
11
203.25
21
-102.125
0
LINE
8
BLACK
6
CONTINUOUS
10
209.8499999999999943
20
-103.9399999999999977
11
209.8499999999999943
21
-102.5249999999999915
0
LINE
8
BLACK
6
CONTINUOUS
10
270.1100000000000136
20
-104.1400000000000006
11
210.0499999999999829
21
-104.1400000000000006
0
LINE
8
BLACK
6
CONTINUOUS
10
270.5099999999999909
20
-117.7099999999999937
11
270.5099999999999909
21
-104.539999999999992
0
ARC
8
BLACK
10
199.789999999999992
20
-104.539999999999992
40
0.4
50
90.00000000
51
180.00000000
0
ARC
8
BLACK
10
199.789999999999992
20
-117.7099999999999937
40
0.4
50
-180.00000000
51
-90.00000000
0
ARC
8
BLACK
10
203.25
20
-102.5249999999999915
40
0.4
50
90.00000000
51
180.00000000
0
ARC
8
BLACK
10
202.6499999999999773
20
-103.9399999999999977
40
0.2
50
-90.00000000
51
-0.00000000
0
ARC
8
BLACK
10
209.4499999999999886
20
-102.5249999999999915
40
0.4
50
0.00000000
51
90.00000000
0
ARC
8
BLACK
10
210.0499999999999829
20
-103.9399999999999977
40
0.2
50
-180.00000000
51
-90.00000000
0
ARC
8
BLACK
10
270.1100010000000111
20
-104.5399989999999946
40
0.39999900000125
50
-0.00014324
51
90.00014324
0
ARC
8
BLACK
10
270.1100010000000111
20
-117.7100009999999912
40
0.39999900000125
50
-90.00014324
51
0.00014324
0
LINE
8
BLACK
6
CONTINUOUS
10
56.5150000000000006
20
-47.3900000000000006
11
56.5150000000000006
21
-60.5599999999999952
0
LINE
8
BLACK
6
CONTINUOUS
10
56.9149999999999991
20
-60.9599999999999937
11
70.0849999999999937
21
-60.9599999999999937
0
LINE
8
BLACK
6
CONTINUOUS
10
70.0849999999999937
20
-46.9899999999999949
11
56.9149999999999991
21
-46.9899999999999949
0
LINE
8
BLACK
6
CONTINUOUS
10
70.4849999999999994
20
-60.5599999999999952
11
70.4849999999999994
21
-47.3900000000000006
0
ARC
8
BLACK
10
56.9149989999999946
20
-47.389998999999996
40
0.39999900000125
50
-270.00014324
51
-179.99985676
0
ARC
8
BLACK
10
56.9149989999999946
20
-60.5600009999999997
40
0.39999900000125
50
-180.00014324
51
-89.99985676
0
ARC
8
BLACK
10
70.0849999999999937
20
-47.3900000000000006
40
0.4
50
0.00000000
51
90.00000000
0
ARC
8
BLACK
10
70.0849999999999937
20
-60.5599999999999952
40
0.4
50
-90.00000000
51
-0.00000000
0
LINE
8
BLACK
6
CONTINUOUS
10
75.5649999999999977
20
-47.3900000000000006
11
75.5649999999999977
21
-60.5599999999999952
0
LINE
8
BLACK
6
CONTINUOUS
10
75.9650000000000034
20
-60.9599999999999937
11
89.1349999999999909
21
-60.9599999999999937
0
LINE
8
BLACK
6
CONTINUOUS
10
89.1349999999999909
20
-46.9899999999999949
11
75.9650000000000034
21
-46.9899999999999949
0
LINE
8
BLACK
6
CONTINUOUS
10
89.5349999999999966
20
-60.5599999999999952
11
89.5349999999999966
21
-47.3900000000000006
0
ARC
8
BLACK
10
75.9649989999999917
20
-47.389998999999996
40
0.39999900000125
50
-270.00014324
51
-179.99985676
0
ARC
8
BLACK
10
75.9649989999999917
20
-60.5600009999999997
40
0.39999900000125
50
-180.00014324
51
-89.99985676
0
ARC
8
BLACK
10
89.1349999999999909
20
-47.3900000000000006
40
0.4
50
0.00000000
51
90.00000000
0
ARC
8
BLACK
10
89.1349999999999909
20
-60.5599999999999952
40
0.4
50
-90.00000000
51
-0.00000000
0
LINE
8
BLACK
6
CONTINUOUS
10
189.8649999999999807
20
-47.3900000000000006
11
189.8649999999999807
21
-60.5599999999999952
0
LINE
8
BLACK
6
CONTINUOUS
10
190.2649999999999864
20
-60.9599999999999937
11
203.4350000000000023
21
-60.9599999999999937
0
LINE
8
BLACK
6
CONTINUOUS
10
203.4350000000000023
20
-46.9899999999999949
11
190.2649999999999864
21
-46.9899999999999949
0
LINE
8
BLACK
6
CONTINUOUS
10
203.8349999999999795
20
-60.5599999999999952
11
203.8349999999999795
21
-47.3900000000000006
0
ARC
8
BLACK
10
190.2649989999999889
20
-47.389998999999996
40
0.39999900000125
50
-270.00014324
51
-179.99985676
0
ARC
8
BLACK
10
190.2649989999999889
20
-60.5600009999999997
40
0.39999900000125
50
-180.00014324
51
-89.99985676
0
ARC
8
BLACK
10
203.4350000000000023
20
-47.3900000000000006
40
0.4
50
0.00000000
51
90.00000000
0
ARC
8
BLACK
10
203.4350000000000023
20
-60.5599999999999952
40
0.4
50
-90.00000000
51
-0.00000000
0
LINE
8
BLACK
6
CONTINUOUS
10
180.3400000000000034
20
-28.3399999999999999
11
180.3400000000000034
21
-41.509999999999998
0
LINE
8
BLACK
6
CONTINUOUS
10
180.7399999999999807
20
-41.9099999999999966
11
193.9099999999999966
21
-41.9099999999999966
0
LINE
8
BLACK
6
CONTINUOUS
10
193.9099999999999966
20
-27.9399999999999977
11
180.7399999999999807
21
-27.9399999999999977
0
LINE
8
BLACK
6
CONTINUOUS
10
194.3100000000000023
20
-41.509999999999998
11
194.3100000000000023
21
-28.3399999999999999
0
ARC
8
BLACK
10
180.7399989999999832
20
-28.3399989999999988
40
0.39999900000125
50
-270.00014324
51
-179.99985676
0
ARC
8
BLACK
10
180.7399989999999832
20
-41.5100009999999955
40
0.39999900000125
50
-180.00014324
51
-89.99985676
0
ARC
8
BLACK
10
193.9099999999999966
20
-28.3399999999999999
40
0.4
50
0.00000000
51
90.00000000
0
ARC
8
BLACK
10
193.9099999999999966
20
-41.509999999999998
40
0.4
50
-90.00000000
51
-0.00000000
0
LINE
8
BLACK
6
CONTINUOUS
10
237.5149999999999864
20
-28.3399999999999999
11
237.5149999999999864
21
-41.509999999999998
0
LINE
8
BLACK
6
CONTINUOUS
10
238.3999999999999773
20
-41.9099999999999966
11
237.914999999999992
21
-41.9099999999999966
0
LINE
8
BLACK
6
CONTINUOUS
10
238.5999999999999943
20
-42.1099999999999994
11
238.5999999999999943
21
-43.5249999999999986
0
LINE
8
BLACK
6
CONTINUOUS
10
239.
20
-43.9249999999999972
11
245.1999999999999886
21
-43.9249999999999972
0
LINE
8
BLACK
6
CONTINUOUS
10
245.5999999999999943
20
-42.1099999999999994
11
245.5999999999999943
21
-43.5249999999999986
0
LINE
8
BLACK
6
CONTINUOUS
10
245.7999999999999829
20
-41.9099999999999966
11
262.1999989999999912
21
-41.9099999999999966
0
LINE
8
BLACK
6
CONTINUOUS
10
262.3999999999999773
20
-42.1099999999999994
11
262.3999999999999773
21
-43.5249999999999986
0
LINE
8
BLACK
6
CONTINUOUS
10
269.
20
-43.9249999999999972
11
262.8000000000000114
21
-43.9249999999999972
0
LINE
8
BLACK
6
CONTINUOUS
10
269.3999999999999773
20
-42.1099999999999994
11
269.3999999999999773
21
-43.5249999999999986
0
LINE
8
BLACK
6
CONTINUOUS
10
269.5999999999999659
20
-41.9099999999999966
11
270.0849999999999795
21
-41.9099999999999966
0
LINE
8
BLACK
6
CONTINUOUS
10
270.0849999999999795
20
-27.9399999999999977
11
237.914999999999992
21
-27.9399999999999977
0
LINE
8
BLACK
6
CONTINUOUS
10
270.4850000000000136
20
-41.509999999999998
11
270.4850000000000136
21
-28.3399999999999999
0
ARC
8
BLACK
10
237.914999999999992
20
-28.3399999999999999
40
0.4
50
90.00000000
51
180.00000000
0
ARC
8
BLACK
10
237.914999999999992
20
-41.509999999999998
40
0.4
50
-180.00000000
51
-90.00000000
0
ARC
8
BLACK
10
238.3999999999999773
20
-42.1099999999999994
40
0.2
50
0.00000000
51
90.00000000
0
ARC
8
BLACK
10
239.
20
-43.5249999999999986
40
0.4
50
-180.00000000
51
-90.00000000
0
ARC
8
BLACK
10
245.7999999999999829
20
-42.1099999999999994
40
0.2
50
90.00000000
51
180.00000000
0
ARC
8
BLACK
10
245.1999999999999886
20
-43.5249999999999986
40
0.4
50
-90.00000000
51
-0.00000000
0
ARC
8
BLACK
10
262.1999989999999912
20
-42.1100009999999969
40
0.2000010000025
50
0.00028648
51
89.99971352
0
ARC
8
BLACK
10
262.7999990000000139
20
-43.5250009999999961
40
0.39999900000125
50
-180.00014324
51
-89.99985676
0
ARC
8
BLACK
10
269.6000050000000101
20
-42.110005000000001
40
0.2000050000624984
50
90.00143236
51
179.99856764
0
ARC
8
BLACK
10
269.0000009999999975
20
-43.5250009999999961
40
0.39999900000125
50
-90.00014324
51
0.00014324
0
ARC
8
BLACK
10
270.085000999999977
20
-28.3399989999999988
40
0.39999900000125
50
-0.00014324
51
90.00014324
0
ARC
8
BLACK
10
270.085000999999977
20
-41.5100009999999955
40
0.39999900000125
50
-90.00014324
51
0.00014324
0
LINE
8
BLACK
6
CONTINUOUS
10
27.9399999999999977
20
-104.539999999999992
11
27.9399999999999977
21
-117.7099999999999937
0
LINE
8
BLACK
6
CONTINUOUS
10
28.3399999999999999
20
-104.1400000000000006
11
88.3999999999999915
21
-104.1400000000000006
0
LINE
8
BLACK
6
CONTINUOUS
10
28.3399999999999999
20
-118.1099999999999994
11
98.6599999999999966
21
-118.1099999999999994
0
LINE
8
BLACK
6
CONTINUOUS
10
88.5999999999999943
20
-103.9399999999999977
11
88.5999999999999943
21
-102.5249999999999915
0
LINE
8
BLACK
6
CONTINUOUS
10
89.
20
-102.125
11
95.1999999999999886
21
-102.125
0
LINE
8
BLACK
6
CONTINUOUS
10
95.5999999999999943
20
-102.5249999999999915
11
95.5999999999999943
21
-103.9399999999999977
0
LINE
8
BLACK
6
CONTINUOUS
10
95.7999999999999972
20
-104.1400000000000006
11
98.6599999999999966
21
-104.1400000000000006
0
LINE
8
BLACK
6
CONTINUOUS
10
99.0600000000000023
20
-117.7099999999999937
11
99.0600000000000023
21
-104.539999999999992
0
ARC
8
BLACK
10
28.3399999999999999
20
-104.539999999999992
40
0.4
50
90.00000000
51
180.00000000
0
ARC
8
BLACK
10
28.3399999999999999
20
-117.7099999999999937
40
0.4
50
-180.00000000
51
-90.00000000
0
ARC
8
BLACK
10
88.9999990000000025
20
-102.524998999999994
40
0.39999900000125
50
-270.00014324
51
-179.99985676
0
ARC
8
BLACK
10
88.399998999999994
20
-103.9399990000000003
40
0.2000010000025
50
-89.99971352
51
-0.00028648
0
ARC
8
BLACK
10
95.2000010000000003
20
-102.524998999999994
40
0.39999900000125
50
-0.00014324
51
90.00014324
0
ARC
8
BLACK
10
95.8000009999999946
20
-103.9399990000000003
40
0.2000010000025
50
-179.99971352
51
-90.00028648
0
ARC
8
BLACK
10
98.6600009999999941
20
-104.5399989999999946
40
0.39999900000125
50
-0.00014324
51
90.00014324
0
ARC
8
BLACK
10
98.6600009999999941
20
-117.7100009999999912
40
0.39999900000125
50
-90.00014324
51
0.00014324
0
LINE
8
BLACK
6
CONTINUOUS
10
161.289999999999992
20
-28.3399999999999999
11
161.289999999999992
21
-41.509999999999998
0
LINE
8
BLACK
6
CONTINUOUS
10
161.6899999999999977
20
-41.9099999999999966
11
174.8599999999999852
21
-41.9099999999999966
0
LINE
8
BLACK
6
CONTINUOUS
10
174.8599999999999852
20
-27.9399999999999977
11
161.6899999999999977
21
-27.9399999999999977
0
LINE
8
BLACK
6
CONTINUOUS
10
175.2599999999999909
20
-41.509999999999998
11
175.2599999999999909
21
-28.3399999999999999
0
ARC
8
BLACK
10
161.6899990000000003
20
-28.3399989999999988
40
0.39999900000125
50
-270.00014324
51
-179.99985676
0
ARC
8
BLACK
10
161.6899990000000003
20
-41.5100009999999955
40
0.39999900000125
50
-180.00014324
51
-89.99985676
0
ARC
8
BLACK
10
174.8599999999999852
20
-28.3399999999999999
40
0.4
50
0.00000000
51
90.00000000
0
ARC
8
BLACK
10
174.8599999999999852
20
-41.509999999999998
40
0.4
50
-90.00000000
51
-0.00000000
0
LINE
8
BLACK
6
CONTINUOUS
10
151.7649999999999864
20
-47.3900000000000006
11
151.7649999999999864
21
-60.5599999999999952
0
LINE
8
BLACK
6
CONTINUOUS
10
152.164999999999992
20
-60.9599999999999937
11
165.3349999999999795
21
-60.9599999999999937
0
LINE
8
BLACK
6
CONTINUOUS
10
165.3349999999999795
20
-46.9899999999999949
11
152.164999999999992
21
-46.9899999999999949
0
LINE
8
BLACK
6
CONTINUOUS
10
165.7349999999999852
20
-60.5599999999999952
11
165.7349999999999852
21
-47.3900000000000006
0
ARC
8
BLACK
10
152.1649989999999946
20
-47.389998999999996
40
0.39999900000125
50
-270.00014324
51
-179.99985676
0
ARC
8
BLACK
10
152.1649989999999946
20
-60.5600009999999997
40
0.39999900000125
50
-180.00014324
51
-89.99985676
0
ARC
8
BLACK
10
165.3349999999999795
20
-47.3900000000000006
40
0.4
50
0.00000000
51
90.00000000
0
ARC
8
BLACK
10
165.3349999999999795
20
-60.5599999999999952
40
0.4
50
-90.00000000
51
-0.00000000
0
LINE
8
BLACK
6
CONTINUOUS
10
199.3899999999999864
20
-28.3399999999999999
11
199.3899999999999864
21
-41.509999999999998
0
LINE
8
BLACK
6
CONTINUOUS
10
199.789999999999992
20
-41.9099999999999966
11
212.9599999999999795
21
-41.9099999999999966
0
LINE
8
BLACK
6
CONTINUOUS
10
212.9599999999999795
20
-27.9399999999999977
11
199.789999999999992
21
-27.9399999999999977
0
LINE
8
BLACK
6
CONTINUOUS
10
213.3599999999999852
20
-41.509999999999998
11
213.3599999999999852
21
-28.3399999999999999
0
ARC
8
BLACK
10
199.7899989999999946
20
-28.3399989999999988
40
0.39999900000125
50
-270.00014324
51
-179.99985676
0
ARC
8
BLACK
10
199.7899989999999946
20
-41.5100009999999955
40
0.39999900000125
50
-180.00014324
51
-89.99985676
0
ARC
8
BLACK
10
212.9599999999999795
20
-28.3399999999999999
40
0.4
50
0.00000000
51
90.00000000
0
ARC
8
BLACK
10
212.9599999999999795
20
-41.509999999999998
40
0.4
50
-90.00000000
51
-0.00000000
0
LINE
8
BLACK
6
CONTINUOUS
10
132.7150000000000034
20
-47.3900000000000006
11
132.7150000000000034
21
-60.5599999999999952
0
LINE
8
BLACK
6
CONTINUOUS
10
133.1149999999999807
20
-60.9599999999999937
11
146.2849999999999966
21
-60.9599999999999937
0
LINE
8
BLACK
6
CONTINUOUS
10
146.2849999999999966
20
-46.9899999999999949
11
133.1149999999999807
21
-46.9899999999999949
0
LINE
8
BLACK
6
CONTINUOUS
10
146.6850000000000023
20
-60.5599999999999952
11
146.6850000000000023
21
-47.3900000000000006
0
ARC
8
BLACK
10
133.1149989999999832
20
-47.389998999999996
40
0.39999900000125
50
-270.00014324
51
-179.99985676
0
ARC
8
BLACK
10
133.1149989999999832
20
-60.5600009999999997
40
0.39999900000125
50
-180.00014324
51
-89.99985676
0
ARC
8
BLACK
10
146.2849999999999966
20
-47.3900000000000006
40
0.4
50
0.00000000
51
90.00000000
0
ARC
8
BLACK
10
146.2849999999999966
20
-60.5599999999999952
40
0.4
50
-90.00000000
51
-0.00000000
0
LINE
8
BLACK
6
CONTINUOUS
10
237.5149999999999864
20
-85.4899999999999949
11
237.5149999999999864
21
-98.6599999999999966
0
LINE
8
BLACK
6
CONTINUOUS
10
237.914999999999992
20
-99.0600000000000023
11
270.0849999999999795
21
-99.0600000000000023
0
LINE
8
BLACK
6
CONTINUOUS
10
238.3999999999999773
20
-85.0899999999999892
11
237.914999999999992
21
-85.0899999999999892
0
LINE
8
BLACK
6
CONTINUOUS
10
238.5999999999999943
20
-84.8900000000000006
11
238.5999999999999943
21
-83.4749999999999943
0
LINE
8
BLACK
6
CONTINUOUS
10
239.
20
-83.0750000000000028
11
245.1999999999999886
21
-83.0750000000000028
0
LINE
8
BLACK
6
CONTINUOUS
10
245.5999999999999943
20
-84.8900000000000006
11
245.5999999999999943
21
-83.4749999999999943
0
LINE
8
BLACK
6
CONTINUOUS
10
262.1999999999999886
20
-85.0899999999999892
11
245.8000009999999804
21
-85.0899999999999892
0
LINE
8
BLACK
6
CONTINUOUS
10
262.3999999999999773
20
-84.8900000000000006
11
262.3999999999999773
21
-83.4749999999999943
0
LINE
8
BLACK
6
CONTINUOUS
10
269.
20
-83.0750000000000028
11
262.8000000000000114
21
-83.0750000000000028
0
LINE
8
BLACK
6
CONTINUOUS
10
269.3999999999999773
20
-84.8900000000000006
11
269.3999999999999773
21
-83.4749999999999943
0
LINE
8
BLACK
6
CONTINUOUS
10
269.5999999999999659
20
-85.0899999999999892
11
270.0849999999999795
21
-85.0899999999999892
0
LINE
8
BLACK
6
CONTINUOUS
10
270.4850000000000136
20
-98.6599999999999966
11
270.4850000000000136
21
-85.4899999999999949
0
ARC
8
BLACK
10
237.9149989999999946
20
-85.4899989999999974
40
0.39999900000125
50
-270.00014324
51
-179.99985676
0
ARC
8
BLACK
10
237.9149989999999946
20
-98.6600009999999941
40
0.39999900000125
50
-180.00014324
51
-89.99985676
0
ARC
8
BLACK
10
238.9999990000000025
20
-83.4749989999999968
40
0.39999900000125
50
-270.00014324
51
-179.99985676
0
ARC
8
BLACK
10
238.3999949999999899
20
-84.889994999999999
40
0.2000050000624984
50
-89.99856764
51
-0.00143236
0
ARC
8
BLACK
10
245.2000009999999861
20
-83.4749989999999968
40
0.39999900000125
50
-0.00014324
51
90.00014324
0
ARC
8
BLACK
10
245.8000009999999804
20
-84.8899990000000031
40
0.2000010000025
50
-179.99971352
51
-90.00028648
0
ARC
8
BLACK
10
262.8000000000000114
20
-83.4749999999999943
40
0.4
50
90.00000000
51
180.00000000
0
ARC
8
BLACK
10
262.1999999999999886
20
-84.8900000000000006
40
0.2
50
-90.00000000
51
-0.00000000
0
ARC
8
BLACK
10
269.
20
-83.4749999999999943
40
0.4
50
0.00000000
51
90.00000000
0
ARC
8
BLACK
10
269.5999999999999659
20
-84.8900000000000006
40
0.2
50
-180.00000000
51
-90.00000000
0
ARC
8
BLACK
10
270.0849999999999795
20
-85.4899999999999949
40
0.4
50
0.00000000
51
90.00000000
0
ARC
8
BLACK
10
270.0849999999999795
20
-98.6599999999999966
40
0.4
50
-90.00000000
51
-0.00000000
0
LINE
8
BLACK
6
CONTINUOUS
10
142.2399999999999807
20
-85.4899999999999949
11
142.2399999999999807
21
-98.6599999999999966
0
LINE
8
BLACK
6
CONTINUOUS
10
142.6399999999999864
20
-99.0600000000000023
11
155.8100000000000023
21
-99.0600000000000023
0
LINE
8
BLACK
6
CONTINUOUS
10
155.8100000000000023
20
-85.0899999999999892
11
142.6399999999999864
21
-85.0899999999999892
0
LINE
8
BLACK
6
CONTINUOUS
10
156.2099999999999795
20
-98.6599999999999966
11
156.2099999999999795
21
-85.4899999999999949
0
ARC
8
BLACK
10
142.6399989999999889
20
-85.4899989999999974
40
0.39999900000125
50
-270.00014324
51
-179.99985676
0
ARC
8
BLACK
10
142.6399989999999889
20
-98.6600009999999941
40
0.39999900000125
50
-180.00014324
51
-89.99985676
0
ARC
8
BLACK
10
155.8100000000000023
20
-85.4899999999999949
40
0.4
50
0.00000000
51
90.00000000
0
ARC
8
BLACK
10
155.8100000000000023
20
-98.6599999999999966
40
0.4
50
-90.00000000
51
-0.00000000
0
LINE
8
BLACK
6
CONTINUOUS
10
123.1899999999999977
20
-85.4899999999999949
11
123.1899999999999977
21
-98.6599999999999966
0
LINE
8
BLACK
6
CONTINUOUS
10
123.5899999999999892
20
-99.0600000000000023
11
136.7599999999999909
21
-99.0600000000000023
0
LINE
8
BLACK
6
CONTINUOUS
10
136.7599999999999909
20
-85.0899999999999892
11
123.5899999999999892
21
-85.0899999999999892
0
LINE
8
BLACK
6
CONTINUOUS
10
137.1599999999999966
20
-98.6599999999999966
11
137.1599999999999966
21
-85.4899999999999949
0
ARC
8
BLACK
10
123.5899989999999917
20
-85.4899989999999974
40
0.39999900000125
50
-270.00014324
51
-179.99985676
0
ARC
8
BLACK
10
123.5899989999999917
20
-98.6600009999999941
40
0.39999900000125
50
-180.00014324
51
-89.99985676
0
ARC
8
BLACK
10
136.7599999999999909
20
-85.4899999999999949
40
0.4
50
0.00000000
51
90.00000000
0
ARC
8
BLACK
10
136.7599999999999909
20
-98.6599999999999966
40
0.4
50
-90.00000000
51
-0.00000000
0
LINE
8
BLACK
6
CONTINUOUS
10
27.9649999999999999
20
-28.3399999999999999
11
27.9649999999999999
21
-41.509999999999998
0
LINE
8
BLACK
6
CONTINUOUS
10
28.8499999999999979
20
-41.9099999999999966
11
28.3649999999999984
21
-41.9099999999999966
0
LINE
8
BLACK
6
CONTINUOUS
10
29.0499999999999972
20
-42.1099999999999994
11
29.0499999999999972
21
-43.5249999999999986
0
LINE
8
BLACK
6
CONTINUOUS
10
29.4499999999999993
20
-43.9249999999999972
11
35.6499999999999986
21
-43.9249999999999972
0
LINE
8
BLACK
6
CONTINUOUS
10
36.0499999999999972
20
-42.1099999999999994
11
36.0499999999999972
21
-43.5249999999999986
0
LINE
8
BLACK
6
CONTINUOUS
10
36.25
20
-41.9099999999999966
11
52.6499990000000011
21
-41.9099999999999966
0
LINE
8
BLACK
6
CONTINUOUS
10
52.8499999999999943
20
-42.1099999999999994
11
52.8499999999999943
21
-43.5249999999999986
0
LINE
8
BLACK
6
CONTINUOUS
10
59.4499999999999957
20
-43.9249999999999972
11
53.25
21
-43.9249999999999972
0
LINE
8
BLACK
6
CONTINUOUS
10
59.8499999999999943
20
-42.1099999999999994
11
59.8499999999999943
21
-43.5249999999999986
0
LINE
8
BLACK
6
CONTINUOUS
10
60.0499999999999972
20
-41.9099999999999966
11
60.5349999999999966
21
-41.9099999999999966
0
LINE
8
BLACK
6
CONTINUOUS
10
60.5349999999999966
20
-27.9399999999999977
11
28.3649999999999984
21
-27.9399999999999977
0
LINE
8
BLACK
6
CONTINUOUS
10
60.9349999999999952
20
-41.509999999999998
11
60.9349999999999952
21
-28.3399999999999999
0
ARC
8
BLACK
10
28.3649999999999984
20
-28.3399999999999999
40
0.4
50
90.00000000
51
180.00000000
0
ARC
8
BLACK
10
28.3649999999999984
20
-41.509999999999998
40
0.4
50
-180.00000000
51
-90.00000000
0
ARC
8
BLACK
10
28.8499999999999979
20
-42.1099999999999994
40
0.2
50
0.00000000
51
90.00000000
0
ARC
8
BLACK
10
29.4499999999999993
20
-43.5249999999999986
40
0.4
50
-180.00000000
51
-90.00000000
0
ARC
8
BLACK
10
36.25
20
-42.1099999999999994
40
0.2
50
90.00000000
51
180.00000000
0
ARC
8
BLACK
10
35.6499999999999986
20
-43.5249999999999986
40
0.4
50
-90.00000000
51
-0.00000000
0
ARC
8
BLACK
10
52.6499990000000011
20
-42.1100009999999969
40
0.2000010000025
50
0.00028648
51
89.99971352
0
ARC
8
BLACK
10
53.2499989999999954
20
-43.5250009999999961
40
0.39999900000125
50
-180.00014324
51
-89.99985676
0
ARC
8
BLACK
10
60.0500049999999987
20
-42.110005000000001
40
0.2000050000624984
50
90.00143236
51
179.99856764
0
ARC
8
BLACK
10
59.4500010000000003
20
-43.5250009999999961
40
0.39999900000125
50
-90.00014324
51
0.00014324
0
ARC
8
BLACK
10
60.5350009999999941
20
-28.3399989999999988
40
0.39999900000125
50
-0.00014324
51
90.00014324
0
ARC
8
BLACK
10
60.5350009999999941
20
-41.5100009999999955
40
0.39999900000125
50
-90.00014324
51
0.00014324
0
LINE
8
BLACK
6
CONTINUOUS
10
66.039999999999992
20
-85.4899999999999949
11
66.039999999999992
21
-98.6599999999999966
0
LINE
8
BLACK
6
CONTINUOUS
10
66.4399999999999977
20
-99.0600000000000023
11
79.6099999999999994
21
-99.0600000000000023
0
LINE
8
BLACK
6
CONTINUOUS
10
79.6099999999999994
20
-85.0899999999999892
11
66.4399999999999977
21
-85.0899999999999892
0
LINE
8
BLACK
6
CONTINUOUS
10
80.0099999999999909
20
-98.6599999999999966
11
80.0099999999999909
21
-85.4899999999999949
0
ARC
8
BLACK
10
66.4399990000000003
20
-85.4899989999999974
40
0.39999900000125
50
-270.00014324
51
-179.99985676
0
ARC
8
BLACK
10
66.4399990000000003
20
-98.6600009999999941
40
0.39999900000125
50
-180.00014324
51
-89.99985676
0
ARC
8
BLACK
10
79.6099999999999994
20
-85.4899999999999949
40
0.4
50
0.00000000
51
90.00000000
0
ARC
8
BLACK
10
79.6099999999999994
20
-98.6599999999999966
40
0.4
50
-90.00000000
51
-0.00000000
0
LINE
8
BLACK
6
CONTINUOUS
10
199.3899999999999864
20
-85.4899999999999949
11
199.3899999999999864
21
-98.6599999999999966
0
LINE
8
BLACK
6
CONTINUOUS
10
199.789999999999992
20
-99.0600000000000023
11
212.9599999999999795
21
-99.0600000000000023
0
LINE
8
BLACK
6
CONTINUOUS
10
212.9599999999999795
20
-85.0899999999999892
11
199.789999999999992
21
-85.0899999999999892
0
LINE
8
BLACK
6
CONTINUOUS
10
213.3599999999999852
20
-98.6599999999999966
11
213.3599999999999852
21
-85.4899999999999949
0
ARC
8
BLACK
10
199.7899989999999946
20
-85.4899989999999974
40
0.39999900000125
50
-270.00014324
51
-179.99985676
0
ARC
8
BLACK
10
199.7899989999999946
20
-98.6600009999999941
40
0.39999900000125
50
-180.00014324
51
-89.99985676
0
ARC
8
BLACK
10
212.9599999999999795
20
-85.4899999999999949
40
0.4
50
0.00000000
51
90.00000000
0
ARC
8
BLACK
10
212.9599999999999795
20
-98.6599999999999966
40
0.4
50
-90.00000000
51
-0.00000000
0
LINE
8
BLACK
6
CONTINUOUS
10
161.289999999999992
20
-85.4899999999999949
11
161.289999999999992
21
-98.6599999999999966
0
LINE
8
BLACK
6
CONTINUOUS
10
161.6899999999999977
20
-99.0600000000000023
11
174.8599999999999852
21
-99.0600000000000023
0
LINE
8
BLACK
6
CONTINUOUS
10
174.8599999999999852
20
-85.0899999999999892
11
161.6899999999999977
21
-85.0899999999999892
0
LINE
8
BLACK
6
CONTINUOUS
10
175.2599999999999909
20
-98.6599999999999966
11
175.2599999999999909
21
-85.4899999999999949
0
ARC
8
BLACK
10
161.6899990000000003
20
-85.4899989999999974
40
0.39999900000125
50
-270.00014324
51
-179.99985676
0
ARC
8
BLACK
10
161.6899990000000003
20
-98.6600009999999941
40
0.39999900000125
50
-180.00014324
51
-89.99985676
0
ARC
8
BLACK
10
174.8599999999999852
20
-85.4899999999999949
40
0.4
50
0.00000000
51
90.00000000
0
ARC
8
BLACK
10
174.8599999999999852
20
-98.6599999999999966
40
0.4
50
-90.00000000
51
-0.00000000
0
LINE
8
BLACK
6
CONTINUOUS
10
32.7025000000000006
20
-47.3900000000000006
11
32.7025000000000006
21
-60.5599999999999952
0
LINE
8
BLACK
6
CONTINUOUS
10
33.1024999999999991
20
-60.9599999999999937
11
46.2725000000000009
21
-60.9599999999999937
0
LINE
8
BLACK
6
CONTINUOUS
10
46.2725000000000009
20
-46.9899999999999949
11
33.1024999999999991
21
-46.9899999999999949
0
LINE
8
BLACK
6
CONTINUOUS
10
46.6724999999999994
20
-60.5599999999999952
11
46.6724999999999994
21
-47.3900000000000006
0
ARC
8
BLACK
10
33.1024990000000017
20
-47.389998999999996
40
0.39999900000125
50
-270.00014324
51
-179.99985676
0
ARC
8
BLACK
10
33.1024990000000017
20
-60.5600009999999997
40
0.39999900000125
50
-180.00014324
51
-89.99985676
0
ARC
8
BLACK
10
46.2725000000000009
20
-47.3900000000000006
40
0.4
50
0.00000000
51
90.00000000
0
ARC
8
BLACK
10
46.2725000000000009
20
-60.5599999999999952
40
0.4
50
-90.00000000
51
-0.00000000
0
LINE
8
BLACK
6
CONTINUOUS
10
142.2399999999999807
20
-28.3399999999999999
11
142.2399999999999807
21
-41.509999999999998
0
LINE
8
BLACK
6
CONTINUOUS
10
142.6399999999999864
20
-41.9099999999999966
11
155.8100000000000023
21
-41.9099999999999966
0
LINE
8
BLACK
6
CONTINUOUS
10
155.8100000000000023
20
-27.9399999999999977
11
142.6399999999999864
21
-27.9399999999999977
0
LINE
8
BLACK
6
CONTINUOUS
10
156.2099999999999795
20
-41.509999999999998
11
156.2099999999999795
21
-28.3399999999999999
0
ARC
8
BLACK
10
142.6399989999999889
20
-28.3399989999999988
40
0.39999900000125
50
-270.00014324
51
-179.99985676
0
ARC
8
BLACK
10
142.6399989999999889
20
-41.5100009999999955
40
0.39999900000125
50
-180.00014324
51
-89.99985676
0
ARC
8
BLACK
10
155.8100000000000023
20
-28.3399999999999999
40
0.4
50
0.00000000
51
90.00000000
0
ARC
8
BLACK
10
155.8100000000000023
20
-41.509999999999998
40
0.4
50
-90.00000000
51
-0.00000000
0
LINE
8
BLACK
6
CONTINUOUS
10
170.8149999999999977
20
-47.3900000000000006
11
170.8149999999999977
21
-60.5599999999999952
0
LINE
8
BLACK
6
CONTINUOUS
10
171.2150000000000034
20
-60.9599999999999937
11
184.3849999999999909
21
-60.9599999999999937
0
LINE
8
BLACK
6
CONTINUOUS
10
184.3849999999999909
20
-46.9899999999999949
11
171.2150000000000034
21
-46.9899999999999949
0
LINE
8
BLACK
6
CONTINUOUS
10
184.7849999999999966
20
-60.5599999999999952
11
184.7849999999999966
21
-47.3900000000000006
0
ARC
8
BLACK
10
171.2149990000000059
20
-47.389998999999996
40
0.39999900000125
50
-270.00014324
51
-179.99985676
0
ARC
8
BLACK
10
171.2149990000000059
20
-60.5600009999999997
40
0.39999900000125
50
-180.00014324
51
-89.99985676
0
ARC
8
BLACK
10
184.3849999999999909
20
-47.3900000000000006
40
0.4
50
0.00000000
51
90.00000000
0
ARC
8
BLACK
10
184.3849999999999909
20
-60.5599999999999952
40
0.4
50
-90.00000000
51
-0.00000000
0
LINE
8
BLACK
6
CONTINUOUS
10
85.0899999999999892
20
-85.4899999999999949
11
85.0899999999999892
21
-98.6599999999999966
0
LINE
8
BLACK
6
CONTINUOUS
10
85.4899999999999949
20
-99.0600000000000023
11
98.6599999999999966
21
-99.0600000000000023
0
LINE
8
BLACK
6
CONTINUOUS
10
98.6599999999999966
20
-85.0899999999999892
11
85.4899999999999949
21
-85.0899999999999892
0
LINE
8
BLACK
6
CONTINUOUS
10
99.0600000000000023
20
-98.6599999999999966
11
99.0600000000000023
21
-85.4899999999999949
0
ARC
8
BLACK
10
85.4899989999999974
20
-85.4899989999999974
40
0.39999900000125
50
-270.00014324
51
-179.99985676
0
ARC
8
BLACK
10
85.4899989999999974
20
-98.6600009999999941
40
0.39999900000125
50
-180.00014324
51
-89.99985676
0
ARC
8
BLACK
10
98.6599999999999966
20
-85.4899999999999949
40
0.4
50
0.00000000
51
90.00000000
0
ARC
8
BLACK
10
98.6599999999999966
20
-98.6599999999999966
40
0.4
50
-90.00000000
51
-0.00000000
0
LINE
8
BLACK
6
CONTINUOUS
10
85.0899999999999892
20
-28.3399999999999999
11
85.0899999999999892
21
-41.509999999999998
0
LINE
8
BLACK
6
CONTINUOUS
10
85.4899999999999949
20
-41.9099999999999966
11
98.6599999999999966
21
-41.9099999999999966
0
LINE
8
BLACK
6
CONTINUOUS
10
98.6599999999999966
20
-27.9399999999999977
11
85.4899999999999949
21
-27.9399999999999977
0
LINE
8
BLACK
6
CONTINUOUS
10
99.0600000000000023
20
-41.509999999999998
11
99.0600000000000023
21
-28.3399999999999999
0
ARC
8
BLACK
10
85.4899989999999974
20
-28.3399989999999988
40
0.39999900000125
50
-270.00014324
51
-179.99985676
0
ARC
8
BLACK
10
85.4899989999999974
20
-41.5100009999999955
40
0.39999900000125
50
-180.00014324
51
-89.99985676
0
ARC
8
BLACK
10
98.6599999999999966
20
-28.3399999999999999
40
0.4
50
0.00000000
51
90.00000000
0
ARC
8
BLACK
10
98.6599999999999966
20
-41.509999999999998
40
0.4
50
-90.00000000
51
-0.00000000
0
LINE
8
BLACK
6
CONTINUOUS
10
27.9649999999999999
20
-85.4899999999999949
11
27.9649999999999999
21
-98.6599999999999966
0
LINE
8
BLACK
6
CONTINUOUS
10
28.3649999999999984
20
-99.0600000000000023
11
60.5349999999999966
21
-99.0600000000000023
0
LINE
8
BLACK
6
CONTINUOUS
10
28.8499999999999979
20
-85.0899999999999892
11
28.3649999999999984
21
-85.0899999999999892
0
LINE
8
BLACK
6
CONTINUOUS
10
29.0499999999999972
20
-84.8900000000000006
11
29.0499999999999972
21
-83.4749999999999943
0
LINE
8
BLACK
6
CONTINUOUS
10
29.4499999999999993
20
-83.0750000000000028
11
35.6499999999999986
21
-83.0750000000000028
0
LINE
8
BLACK
6
CONTINUOUS
10
36.0499999999999972
20
-84.8900000000000006
11
36.0499999999999972
21
-83.4749999999999943
0
LINE
8
BLACK
6
CONTINUOUS
10
52.6499999999999986
20
-85.0899999999999892
11
36.2500009999999975
21
-85.0899999999999892
0
LINE
8
BLACK
6
CONTINUOUS
10
52.8499999999999943
20
-84.8900000000000006
11
52.8499999999999943
21
-83.4749999999999943
0
LINE
8
BLACK
6
CONTINUOUS
10
59.4499999999999957
20
-83.0750000000000028
11
53.25
21
-83.0750000000000028
0
LINE
8
BLACK
6
CONTINUOUS
10
59.8499999999999943
20
-84.8900000000000006
11
59.8499999999999943
21
-83.4749999999999943
0
LINE
8
BLACK
6
CONTINUOUS
10
60.0499999999999972
20
-85.0899999999999892
11
60.5349999999999966
21
-85.0899999999999892
0
LINE
8
BLACK
6
CONTINUOUS
10
60.9349999999999952
20
-98.6599999999999966
11
60.9349999999999952
21
-85.4899999999999949
0
ARC
8
BLACK
10
28.3649989999999974
20
-85.4899989999999974
40
0.39999900000125
50
-270.00014324
51
-179.99985676
0
ARC
8
BLACK
10
28.3649989999999974
20
-98.6600009999999941
40
0.39999900000125
50
-180.00014324
51
-89.99985676
0
ARC
8
BLACK
10
29.4499989999999983
20
-83.4749989999999968
40
0.39999900000125
50
-270.00014324
51
-179.99985676
0
ARC
8
BLACK
10
28.8499949999999998
20
-84.889994999999999
40
0.2000050000624984
50
-89.99856764
51
-0.00143236
0
ARC
8
BLACK
10
35.6500009999999961
20
-83.4749989999999968
40
0.39999900000125
50
-0.00014324
51
90.00014324
0
ARC
8
BLACK
10
36.2500009999999975
20
-84.8899990000000031
40
0.2000010000025
50
-179.99971352
51
-90.00028648
0
ARC
8
BLACK
10
53.25
20
-83.4749999999999943
40
0.4
50
90.00000000
51
180.00000000
0
ARC
8
BLACK
10
52.6499999999999986
20
-84.8900000000000006
40
0.2
50
-90.00000000
51
-0.00000000
0
ARC
8
BLACK
10
59.4499999999999957
20
-83.4749999999999943
40
0.4
50
0.00000000
51
90.00000000
0
ARC
8
BLACK
10
60.0499999999999972
20
-84.8900000000000006
40
0.2
50
-180.00000000
51
-90.00000000
0
ARC
8
BLACK
10
60.5349999999999966
20
-85.4899999999999949
40
0.4
50
0.00000000
51
90.00000000
0
ARC
8
BLACK
10
60.5349999999999966
20
-98.6599999999999966
40
0.4
50
-90.00000000
51
-0.00000000
0
LINE
8
BLACK
6
CONTINUOUS
10
104.1400000000000006
20
-85.4899999999999949
11
104.1400000000000006
21
-98.6599999999999966
0
LINE
8
BLACK
6
CONTINUOUS
10
104.539999999999992
20
-99.0600000000000023
11
117.7099999999999937
21
-99.0600000000000023
0
LINE
8
BLACK
6
CONTINUOUS
10
117.7099999999999937
20
-85.0899999999999892
11
104.539999999999992
21
-85.0899999999999892
0
LINE
8
BLACK
6
CONTINUOUS
10
118.1099999999999994
20
-98.6599999999999966
11
118.1099999999999994
21
-85.4899999999999949
0
ARC
8
BLACK
10
104.5399989999999946
20
-85.4899989999999974
40
0.39999900000125
50
-270.00014324
51
-179.99985676
0
ARC
8
BLACK
10
104.5399989999999946
20
-98.6600009999999941
40
0.39999900000125
50
-180.00014324
51
-89.99985676
0
ARC
8
BLACK
10
117.7099999999999937
20
-85.4899999999999949
40
0.4
50
0.00000000
51
90.00000000
0
ARC
8
BLACK
10
117.7099999999999937
20
-98.6599999999999966
40
0.4
50
-90.00000000
51
-0.00000000
0
LINE
8
BLACK
6
CONTINUOUS
10
208.914999999999992
20
-47.3900000000000006
11
208.914999999999992
21
-60.5599999999999952
0
LINE
8
BLACK
6
CONTINUOUS
10
209.3149999999999977
20
-60.9599999999999937
11
222.4849999999999852
21
-60.9599999999999937
0
LINE
8
BLACK
6
CONTINUOUS
10
222.4849999999999852
20
-46.9899999999999949
11
209.3149999999999977
21
-46.9899999999999949
0
LINE
8
BLACK
6
CONTINUOUS
10
222.8849999999999909
20
-60.5599999999999952
11
222.8849999999999909
21
-47.3900000000000006
0
ARC
8
BLACK
10
209.3149990000000003
20
-47.389998999999996
40
0.39999900000125
50
-270.00014324
51
-179.99985676
0
ARC
8
BLACK
10
209.3149990000000003
20
-60.5600009999999997
40
0.39999900000125
50
-180.00014324
51
-89.99985676
0
ARC
8
BLACK
10
222.4849999999999852
20
-47.3900000000000006
40
0.4
50
0.00000000
51
90.00000000
0
ARC
8
BLACK
10
222.4849999999999852
20
-60.5599999999999952
40
0.4
50
-90.00000000
51
-0.00000000
0
LINE
8
BLACK
6
CONTINUOUS
10
94.6149999999999949
20
-47.3900000000000006
11
94.6149999999999949
21
-60.5599999999999952
0
LINE
8
BLACK
6
CONTINUOUS
10
95.0150000000000006
20
-60.9599999999999937
11
108.1849999999999881
21
-60.9599999999999937
0
LINE
8
BLACK
6
CONTINUOUS
10
108.1849999999999881
20
-46.9899999999999949
11
95.0150000000000006
21
-46.9899999999999949
0
LINE
8
BLACK
6
CONTINUOUS
10
108.5849999999999937
20
-60.5599999999999952
11
108.5849999999999937
21
-47.3900000000000006
0
ARC
8
BLACK
10
95.0149989999999889
20
-47.389998999999996
40
0.39999900000125
50
-270.00014324
51
-179.99985676
0
ARC
8
BLACK
10
95.0149989999999889
20
-60.5600009999999997
40
0.39999900000125
50
-180.00014324
51
-89.99985676
0
ARC
8
BLACK
10
108.1849999999999881
20
-47.3900000000000006
40
0.4
50
0.00000000
51
90.00000000
0
ARC
8
BLACK
10
108.1849999999999881
20
-60.5599999999999952
40
0.4
50
-90.00000000
51
-0.00000000
0
LINE
8
BLACK
6
CONTINUOUS
10
180.3400000000000034
20
-85.4899999999999949
11
180.3400000000000034
21
-98.6599999999999966
0
LINE
8
BLACK
6
CONTINUOUS
10
180.7399999999999807
20
-99.0600000000000023
11
193.9099999999999966
21
-99.0600000000000023
0
LINE
8
BLACK
6
CONTINUOUS
10
193.9099999999999966
20
-85.0899999999999892
11
180.7399999999999807
21
-85.0899999999999892
0
LINE
8
BLACK
6
CONTINUOUS
10
194.3100000000000023
20
-98.6599999999999966
11
194.3100000000000023
21
-85.4899999999999949
0
ARC
8
BLACK
10
180.7399989999999832
20
-85.4899989999999974
40
0.39999900000125
50
-270.00014324
51
-179.99985676
0
ARC
8
BLACK
10
180.7399989999999832
20
-98.6600009999999941
40
0.39999900000125
50
-180.00014324
51
-89.99985676
0
ARC
8
BLACK
10
193.9099999999999966
20
-85.4899999999999949
40
0.4
50
0.00000000
51
90.00000000
0
ARC
8
BLACK
10
193.9099999999999966
20
-98.6599999999999966
40
0.4
50
-90.00000000
51
-0.00000000
0
LINE
8
BLACK
6
CONTINUOUS
10
113.664999999999992
20
-47.3900000000000006
11
113.664999999999992
21
-60.5599999999999952
0
LINE
8
BLACK
6
CONTINUOUS
10
114.0649999999999977
20
-60.9599999999999937
11
127.2349999999999994
21
-60.9599999999999937
0
LINE
8
BLACK
6
CONTINUOUS
10
127.2349999999999994
20
-46.9899999999999949
11
114.0649999999999977
21
-46.9899999999999949
0
LINE
8
BLACK
6
CONTINUOUS
10
127.6349999999999909
20
-60.5599999999999952
11
127.6349999999999909
21
-47.3900000000000006
0
ARC
8
BLACK
10
114.0649990000000003
20
-47.389998999999996
40
0.39999900000125
50
-270.00014324
51
-179.99985676
0
ARC
8
BLACK
10
114.0649990000000003
20
-60.5600009999999997
40
0.39999900000125
50
-180.00014324
51
-89.99985676
0
ARC
8
BLACK
10
127.2349999999999994
20
-47.3900000000000006
40
0.4
50
0.00000000
51
90.00000000
0
ARC
8
BLACK
10
127.2349999999999994
20
-60.5599999999999952
40
0.4
50
-90.00000000
51
-0.00000000
0
LINE
8
BLACK
6
CONTINUOUS
10
30.2257499999999979
20
-79.6100009999999969
11
30.2257499999999979
21
-66.4399990000000003
0
LINE
8
BLACK
6
CONTINUOUS
10
30.625748999999999
20
-66.039999999999992
11
31.1357479999999995
21
-66.039999999999992
0
LINE
8
BLACK
6
CONTINUOUS
10
30.625748999999999
20
-80.0099999999999909
11
65.2270000000000039
21
-80.0099999999999909
0
LINE
8
BLACK
6
CONTINUOUS
10
31.3357489999999999
20
-65.8399979999999942
11
31.3357489999999999
21
-64.4249989999999997
0
LINE
8
BLACK
6
CONTINUOUS
10
31.7357479999999974
20
-64.0249999999999915
11
37.9357499999999987
21
-64.0249999999999915
0
LINE
8
BLACK
6
CONTINUOUS
10
38.3357489999999999
20
-65.8399989999999917
11
38.3357489999999999
21
-64.4249989999999997
0
LINE
8
BLACK
6
CONTINUOUS
10
38.5357500000000002
20
-66.039999999999992
11
54.9356999999999971
21
-66.039999999999992
0
LINE
8
BLACK
6
CONTINUOUS
10
55.135748999999997
20
-65.8400000000000034
11
55.135748999999997
21
-64.4188039999999944
0
LINE
8
BLACK
6
CONTINUOUS
10
61.7295039999999986
20
-64.0249999999999915
11
55.5357999999999947
21
-64.0249999999999915
0
LINE
8
BLACK
6
CONTINUOUS
10
62.135748999999997
20
-65.8400000000000034
11
62.135748999999997
21
-64.4249999999999972
0
LINE
8
BLACK
6
CONTINUOUS
10
62.3403159999999943
20
-66.039999999999992
11
65.2269989999999922
21
-66.039999999999992
0
ARC
8
BLACK
10
30.625748999999999
20
-66.4399990000000003
40
0.399999
50
90.00000000
51
180.00000000
0
ARC
8
BLACK
10
30.625748999999999
20
-79.6100009999999969
40
0.399999
50
-180.00000000
51
-90.00000000
0
ARC
8
BLACK
10
31.7357479999999974
20
-64.4249989999999997
40
0.399999
50
90.00000000
51
180.00000000
0
ARC
8
BLACK
10
31.1357479999999995
20
-65.8399989999999917
40
0.2000010000025
50
-90.00000000
51
0.00028648
0
ARC
8
BLACK
10
37.9357499999999987
20
-64.4249989999999997
40
0.399999
50
0.00000000
51
90.00000000
0
ARC
8
BLACK
10
38.5357500000000002
20
-65.8399989999999917
40
0.200001
50
-180.00000000
51
-90.00000000
0
ARC
8
BLACK
10
55.5357999999999947
20
-64.4251000000000005
40
0.4001005401358513
50
90.00000000
51
179.09835384
0
ARC
8
BLACK
10
54.9356999999999971
20
-65.8400000000000034
40
0.200049
50
-89.98624915
51
-0.00000000
0
ARC
8
BLACK
10
61.7356999999999942
20
-64.4249999999999972
40
0.4000479851417827
50
0.00000000
51
90.88744065
0
ARC
8
BLACK
10
62.335799999999999
20
-65.8400000000000034
40
0.2000509791428175
50
-180.00000000
51
-88.70648111
0
LINE
8
BLACK
6
CONTINUOUS
10
123.1899999999999977
20
-28.3399999999999999
11
123.1899999999999977
21
-41.509999999999998
0
LINE
8
BLACK
6
CONTINUOUS
10
123.5899999999999892
20
-41.9099999999999966
11
136.7599999999999909
21
-41.9099999999999966
0
LINE
8
BLACK
6
CONTINUOUS
10
136.7599999999999909
20
-27.9399999999999977
11
123.5899999999999892
21
-27.9399999999999977
0
LINE
8
BLACK
6
CONTINUOUS
10
137.1599999999999966
20
-41.509999999999998
11
137.1599999999999966
21
-28.3399999999999999
0
ARC
8
BLACK
10
123.5899989999999917
20
-28.3399989999999988
40
0.39999900000125
50
-270.00014324
51
-179.99985676
0
ARC
8
BLACK
10
123.5899989999999917
20
-41.5100009999999955
40
0.39999900000125
50
-180.00014324
51
-89.99985676
0
ARC
8
BLACK
10
136.7599999999999909
20
-28.3399999999999999
40
0.4
50
0.00000000
51
90.00000000
0
ARC
8
BLACK
10
136.7599999999999909
20
-41.509999999999998
40
0.4
50
-90.00000000
51
-0.00000000
0
LINE
8
BLACK
6
CONTINUOUS
10
251.777499999999975
20
-47.3900000000000006
11
251.777499999999975
21
-60.5599999999999952
0
LINE
8
BLACK
6
CONTINUOUS
10
252.1774999999999807
20
-60.9599999999999937
11
265.3474999999999682
21
-60.9599999999999937
0
LINE
8
BLACK
6
CONTINUOUS
10
265.3474999999999682
20
-46.9899999999999949
11
252.1774999999999807
21
-46.9899999999999949
0
LINE
8
BLACK
6
CONTINUOUS
10
265.7475000000000023
20
-60.5599999999999952
11
265.7475000000000023
21
-47.3900000000000006
0
ARC
8
BLACK
10
252.1774989999999832
20
-47.389998999999996
40
0.39999900000125
50
-270.00014324
51
-179.99985676
0
ARC
8
BLACK
10
252.1774989999999832
20
-60.5600009999999997
40
0.39999900000125
50
-180.00014324
51
-89.99985676
0
ARC
8
BLACK
10
265.3474999999999682
20
-47.3900000000000006
40
0.4
50
0.00000000
51
90.00000000
0
ARC
8
BLACK
10
265.3474999999999682
20
-60.5599999999999952
40
0.4
50
-90.00000000
51
-0.00000000
0
LINE
8
BLACK
6
CONTINUOUS
10
218.4399999999999977
20
-85.4899999999999949
11
218.4399999999999977
21
-98.6599999999999966
0
LINE
8
BLACK
6
CONTINUOUS
10
218.8400000000000034
20
-99.0600000000000023
11
232.0099999999999909
21
-99.0600000000000023
0
LINE
8
BLACK
6
CONTINUOUS
10
232.0099999999999909
20
-85.0899999999999892
11
218.8400000000000034
21
-85.0899999999999892
0
LINE
8
BLACK
6
CONTINUOUS
10
232.4099999999999966
20
-98.6599999999999966
11
232.4099999999999966
21
-85.4899999999999949
0
ARC
8
BLACK
10
218.8399989999999775
20
-85.4899989999999974
40
0.39999900000125
50
-270.00014324
51
-179.99985676
0
ARC
8
BLACK
10
218.8399989999999775
20
-98.6600009999999941
40
0.39999900000125
50
-180.00014324
51
-89.99985676
0
ARC
8
BLACK
10
232.0099999999999909
20
-85.4899999999999949
40
0.4
50
0.00000000
51
90.00000000
0
ARC
8
BLACK
10
232.0099999999999909
20
-98.6599999999999966
40
0.4
50
-90.00000000
51
-0.00000000
0
LINE
8
BLACK
6
CONTINUOUS
10
66.039999999999992
20
-28.3399999999999999
11
66.039999999999992
21
-41.509999999999998
0
LINE
8
BLACK
6
CONTINUOUS
10
66.4399999999999977
20
-41.9099999999999966
11
79.6099999999999994
21
-41.9099999999999966
0
LINE
8
BLACK
6
CONTINUOUS
10
79.6099999999999994
20
-27.9399999999999977
11
66.4399999999999977
21
-27.9399999999999977
0
LINE
8
BLACK
6
CONTINUOUS
10
80.0099999999999909
20
-41.509999999999998
11
80.0099999999999909
21
-28.3399999999999999
0
ARC
8
BLACK
10
66.4399990000000003
20
-28.3399989999999988
40
0.39999900000125
50
-270.00014324
51
-179.99985676
0
ARC
8
BLACK
10
66.4399990000000003
20
-41.5100009999999955
40
0.39999900000125
50
-180.00014324
51
-89.99985676
0
ARC
8
BLACK
10
79.6099999999999994
20
-28.3399999999999999
40
0.4
50
0.00000000
51
90.00000000
0
ARC
8
BLACK
10
79.6099999999999994
20
-41.509999999999998
40
0.4
50
-90.00000000
51
-0.00000000
0
LINE
8
BLACK
6
CONTINUOUS
10
233.1277999999999793
20
-80.0099999999999909
11
267.7290009999999825
21
-80.0099999999999909
0
LINE
8
BLACK
6
CONTINUOUS
10
236.0189989999999796
20
-66.039999999999992
11
233.1277499999999918
21
-66.039999999999992
0
LINE
8
BLACK
6
CONTINUOUS
10
236.2189989999999966
20
-65.8400000000000034
11
236.2189989999999966
21
-64.4249999999999972
0
LINE
8
BLACK
6
CONTINUOUS
10
236.6189990000000023
20
-64.0249999999999915
11
242.8189989999999909
21
-64.0249999999999915
0
LINE
8
BLACK
6
CONTINUOUS
10
243.2189989999999966
20
-65.8400000000000034
11
243.2189989999999966
21
-64.4249999999999972
0
LINE
8
BLACK
6
CONTINUOUS
10
259.8189989999999625
20
-66.039999999999992
11
243.4189999999999827
21
-66.039999999999992
0
LINE
8
BLACK
6
CONTINUOUS
10
260.018999000000008
20
-65.8400000000000034
11
260.018999000000008
21
-64.4249999999999972
0
LINE
8
BLACK
6
CONTINUOUS
10
266.6189989999999739
20
-64.0249999999999915
11
260.4189989999999852
21
-64.0249999999999915
0
LINE
8
BLACK
6
CONTINUOUS
10
267.018999000000008
20
-65.8400000000000034
11
267.018999000000008
21
-64.4249999999999972
0
LINE
8
BLACK
6
CONTINUOUS
10
267.219003999999984
20
-66.039999999999992
11
267.7290009999999825
21
-66.039999999999992
0
LINE
8
BLACK
6
CONTINUOUS
10
268.1289999999999623
20
-79.6100009999999969
11
268.1289999999999623
21
-66.4399990000000003
0
ARC
8
BLACK
10
236.6189979999999764
20
-64.4249989999999997
40
0.39999900000125
50
-270.00014324
51
-179.99985676
0
ARC
8
BLACK
10
236.0189979999999821
20
-65.8399989999999917
40
0.2000010000025
50
-89.99971352
51
-0.00028648
0
ARC
8
BLACK
10
242.8189999999999884
20
-64.4249989999999997
40
0.39999900000125
50
-0.00014324
51
90.00014324
0
ARC
8
BLACK
10
243.4189999999999827
20
-65.8399989999999917
40
0.2000010000025
50
-179.99971352
51
-90.00028648
0
ARC
8
BLACK
10
260.4189999999999827
20
-64.4249999999999972
40
0.400001
50
90.00014324
51
180.00000000
0
ARC
8
BLACK
10
259.81899999999996
20
-65.8400000000000034
40
0.199999
50
-90.00028648
51
-0.00000000
0
ARC
8
BLACK
10
266.6189999999999714
20
-64.4249999999999972
40
0.40000000000125
50
0.00000000
51
90.00014324
0
ARC
8
BLACK
10
267.2189999999999941
20
-65.8400000000000034
40
0.2000000000025
50
-180.00000000
51
-90.00028648
0
ARC
8
BLACK
10
267.728999999999985
20
-66.4399999999999977
40
0.40000000000125
50
0.00014324
51
89.99985676
0
ARC
8
BLACK
10
267.728999999999985
20
-79.6099999999999994
40
0.40000000000125
50
-89.99985676
51
-0.00014324
0
LINE
8
BLACK
6
CONTINUOUS
10
218.4399999999999977
20
-28.3399999999999999
11
218.4399999999999977
21
-41.509999999999998
0
LINE
8
BLACK
6
CONTINUOUS
10
218.8400000000000034
20
-41.9099999999999966
11
232.0099999999999909
21
-41.9099999999999966
0
LINE
8
BLACK
6
CONTINUOUS
10
232.0099999999999909
20
-27.9399999999999977
11
218.8400000000000034
21
-27.9399999999999977
0
LINE
8
BLACK
6
CONTINUOUS
10
232.4099999999999966
20
-41.509999999999998
11
232.4099999999999966
21
-28.3399999999999999
0
ARC
8
BLACK
10
218.8399989999999775
20
-28.3399989999999988
40
0.39999900000125
50
-270.00014324
51
-179.99985676
0
ARC
8
BLACK
10
218.8399989999999775
20
-41.5100009999999955
40
0.39999900000125
50
-180.00014324
51
-89.99985676
0
ARC
8
BLACK
10
232.0099999999999909
20
-28.3399999999999999
40
0.4
50
0.00000000
51
90.00000000
0
ARC
8
BLACK
10
232.0099999999999909
20
-41.509999999999998
40
0.4
50
-90.00000000
51
-0.00000000
0
LINE
8
BLACK
6
CONTINUOUS
10
227.9650000000000034
20
-47.3900000000000006
11
227.9650000000000034
21
-60.5599999999999952
0
LINE
8
BLACK
6
CONTINUOUS
10
228.3649999999999807
20
-60.9599999999999937
11
241.5349999999999966
21
-60.9599999999999937
0
LINE
8
BLACK
6
CONTINUOUS
10
241.5349999999999966
20
-46.9899999999999949
11
228.3649999999999807
21
-46.9899999999999949
0
LINE
8
BLACK
6
CONTINUOUS
10
241.9350000000000023
20
-60.5599999999999952
11
241.9350000000000023
21
-47.3900000000000006
0
ARC
8
BLACK
10
228.3649989999999832
20
-47.389998999999996
40
0.39999900000125
50
-270.00014324
51
-179.99985676
0
ARC
8
BLACK
10
228.3649989999999832
20
-60.5600009999999997
40
0.39999900000125
50
-180.00014324
51
-89.99985676
0
ARC
8
BLACK
10
241.5349999999999966
20
-47.3900000000000006
40
0.4
50
0.00000000
51
90.00000000
0
ARC
8
BLACK
10
241.5349999999999966
20
-60.5599999999999952
40
0.4
50
-90.00000000
51
-0.00000000
0
CIRCLE
8
BLACK
10
149.2249999999999943
20
-63.5
40
1.9999989999999999
0
CIRCLE
8
BLACK
10
77.7999999999999972
20
-101.5999999999999943
40
1.9999989999999999
0
CIRCLE
8
BLACK
10
234.9499999999999886
20
-82.5499999999999972
40
1.9999989999999999
0
CIRCLE
8
BLACK
10
82.5499999999999972
20
-44.4499999999999957
40
1.9999989999999999
0
CIRCLE
8
BLACK
10
220.6499999999999773
20
-101.5999999999999943
40
1.9999989999999999
0
CIRCLE
8
BLACK
10
149.2249999999999943
20
-82.5499999999999972
40
1.9999989999999999
0
CIRCLE
8
BLACK
10
63.5
20
-82.5499999999999972
40
1.9999989999999999
0
CIRCLE
8
BLACK
10
215.8999999999999773
20
-44.4499999999999957
40
1.9999989999999999
  0
ENDSEC
  0
EOF
